<?xml version="1.0" encoding="UTF-8" standalone="no"?>
<!DOCTYPE svg PUBLIC "-//W3C//DTD SVG 1.1//EN"
 "http://www.w3.org/Graphics/SVG/1.1/DTD/svg11.dtd">
<!-- Generated by graphviz version 2.43.0 (0)
 -->
<!-- Title: %3 Pages: 1 -->
<svg width="569pt" height="392pt"
 viewBox="0.00 0.00 568.99 392.00" xmlns="http://www.w3.org/2000/svg" xmlns:xlink="http://www.w3.org/1999/xlink">
<g id="graph0" class="graph" transform="scale(1 1) rotate(0) translate(4 388)">
<title>%3</title>
<polygon fill="white" stroke="transparent" points="-4,4 -4,-388 564.99,-388 564.99,4 -4,4"/>
<!-- leaf_0x206d -->
<g id="node1" class="node">
<title>leaf_0x206d</title>
<ellipse fill="none" stroke="black" cx="407.8" cy="-18" rx="46.59" ry="18"/>
<text text-anchor="middle" x="407.8" y="-14.3" font-family="Times,serif" font-size="14.00">&quot; m&quot; (1)</text>
</g>
<!-- leaf_0x6970 -->
<g id="node2" class="node">
<title>leaf_0x6970</title>
<ellipse fill="none" stroke="black" cx="516.8" cy="-18" rx="44.39" ry="18"/>
<text text-anchor="middle" x="516.8" y="-14.3" font-family="Times,serif" font-size="14.00">&quot;ip&quot; (1)</text>
</g>
<!-- internal_0 -->
<g id="node3" class="node">
<title>internal_0</title>
<ellipse fill="none" stroke="black" cx="424.8" cy="-105" rx="27" ry="18"/>
<text text-anchor="middle" x="424.8" y="-101.3" font-family="Times,serif" font-size="14.00">(2)</text>
</g>
<!-- internal_0&#45;&gt;leaf_0x206d -->
<g id="edge1" class="edge">
<title>internal_0&#45;&gt;leaf_0x206d</title>
<path fill="none" stroke="black" d="M421.36,-86.8C419.03,-75.16 415.91,-59.55 413.24,-46.24"/>
<polygon fill="black" stroke="black" points="416.62,-45.29 411.23,-36.18 409.76,-46.67 416.62,-45.29"/>
<text text-anchor="middle" x="421.8" y="-57.8" font-family="Times,serif" font-size="14.00">0</text>
</g>
<!-- internal_0&#45;&gt;leaf_0x6970 -->
<g id="edge2" class="edge">
<title>internal_0&#45;&gt;leaf_0x6970</title>
<path fill="none" stroke="black" d="M439.99,-89.96C454.11,-76.92 475.4,-57.24 491.99,-41.92"/>
<polygon fill="black" stroke="black" points="494.73,-44.15 499.7,-34.79 489.98,-39.01 494.73,-44.15"/>
<text text-anchor="middle" x="480.8" y="-57.8" font-family="Times,serif" font-size="14.00">1</text>
</g>
<!-- leaf_0x7070 -->
<g id="node4" class="node">
<title>leaf_0x7070</title>
<ellipse fill="none" stroke="black" cx="46.8" cy="-105" rx="46.59" ry="18"/>
<text text-anchor="middle" x="46.8" y="-101.3" font-family="Times,serif" font-size="14.00">&quot;pp&quot; (1)</text>
</g>
<!-- leaf_0x7069 -->
<g id="node5" class="node">
<title>leaf_0x7069</title>
<ellipse fill="none" stroke="black" cx="155.8" cy="-105" rx="44.39" ry="18"/>
<text text-anchor="middle" x="155.8" y="-101.3" font-family="Times,serif" font-size="14.00">&quot;pi&quot; (1)</text>
</g>
<!-- internal_1 -->
<g id="node6" class="node">
<title>internal_1</title>
<ellipse fill="none" stroke="black" cx="155.8" cy="-192" rx="27" ry="18"/>
<text text-anchor="middle" x="155.8" y="-188.3" font-family="Times,serif" font-size="14.00">(2)</text>
</g>
<!-- internal_1&#45;&gt;leaf_0x7070 -->
<g id="edge3" class="edge">
<title>internal_1&#45;&gt;leaf_0x7070</title>
<path fill="none" stroke="black" d="M138.76,-177.72C121.61,-164.34 94.85,-143.48 74.61,-127.69"/>
<polygon fill="black" stroke="black" points="76.7,-124.88 66.66,-121.49 72.39,-130.4 76.7,-124.88"/>
<text text-anchor="middle" x="113.8" y="-144.8" font-family="Times,serif" font-size="14.00">0</text>
</g>
<!-- internal_1&#45;&gt;leaf_0x7069 -->
<g id="edge4" class="edge">
<title>internal_1&#45;&gt;leaf_0x7069</title>
<path fill="none" stroke="black" d="M155.8,-173.8C155.8,-162.16 155.8,-146.55 155.8,-133.24"/>
<polygon fill="black" stroke="black" points="159.3,-133.18 155.8,-123.18 152.3,-133.18 159.3,-133.18"/>
<text text-anchor="middle" x="160.8" y="-144.8" font-family="Times,serif" font-size="14.00">1</text>
</g>
<!-- leaf_0x6920 -->
<g id="node7" class="node">
<title>leaf_0x6920</title>
<ellipse fill="none" stroke="black" cx="155.8" cy="-18" rx="40.89" ry="18"/>
<text text-anchor="middle" x="155.8" y="-14.3" font-family="Times,serif" font-size="14.00">&quot;i &quot; (1)</text>
</g>
<!-- leaf_0x6d69 -->
<g id="node8" class="node">
<title>leaf_0x6d69</title>
<ellipse fill="none" stroke="black" cx="261.8" cy="-18" rx="46.59" ry="18"/>
<text text-anchor="middle" x="261.8" y="-14.3" font-family="Times,serif" font-size="14.00">&quot;mi&quot; (1)</text>
</g>
<!-- internal_2 -->
<g id="node9" class="node">
<title>internal_2</title>
<ellipse fill="none" stroke="black" cx="244.8" cy="-105" rx="27" ry="18"/>
<text text-anchor="middle" x="244.8" y="-101.3" font-family="Times,serif" font-size="14.00">(2)</text>
</g>
<!-- internal_2&#45;&gt;leaf_0x6920 -->
<g id="edge5" class="edge">
<title>internal_2&#45;&gt;leaf_0x6920</title>
<path fill="none" stroke="black" d="M229.7,-89.58C215.97,-76.47 195.5,-56.92 179.58,-41.71"/>
<polygon fill="black" stroke="black" points="181.83,-39.02 172.18,-34.64 176.99,-44.08 181.83,-39.02"/>
<text text-anchor="middle" x="210.8" y="-57.8" font-family="Times,serif" font-size="14.00">0</text>
</g>
<!-- internal_2&#45;&gt;leaf_0x6d69 -->
<g id="edge6" class="edge">
<title>internal_2&#45;&gt;leaf_0x6d69</title>
<path fill="none" stroke="black" d="M248.24,-86.8C250.56,-75.16 253.69,-59.55 256.35,-46.24"/>
<polygon fill="black" stroke="black" points="259.83,-46.67 258.36,-36.18 252.97,-45.29 259.83,-46.67"/>
<text text-anchor="middle" x="258.8" y="-57.8" font-family="Times,serif" font-size="14.00">1</text>
</g>
<!-- leaf_0x7373 -->
<g id="node10" class="node">
<title>leaf_0x7373</title>
<ellipse fill="none" stroke="black" cx="334.8" cy="-105" rx="44.69" ry="18"/>
<text text-anchor="middle" x="334.8" y="-101.3" font-family="Times,serif" font-size="14.00">&quot;ss&quot; (2)</text>
</g>
<!-- internal_3 -->
<g id="node11" class="node">
<title>internal_3</title>
<ellipse fill="none" stroke="black" cx="333.8" cy="-192" rx="27" ry="18"/>
<text text-anchor="middle" x="333.8" y="-188.3" font-family="Times,serif" font-size="14.00">(4)</text>
</g>
<!-- internal_3&#45;&gt;internal_2 -->
<g id="edge8" class="edge">
<title>internal_3&#45;&gt;internal_2</title>
<path fill="none" stroke="black" d="M318.7,-176.58C304.55,-163.07 283.22,-142.7 267.11,-127.31"/>
<polygon fill="black" stroke="black" points="269.32,-124.58 259.67,-120.21 264.48,-129.64 269.32,-124.58"/>
<text text-anchor="middle" x="298.8" y="-144.8" font-family="Times,serif" font-size="14.00">1</text>
</g>
<!-- internal_3&#45;&gt;leaf_0x7373 -->
<g id="edge7" class="edge">
<title>internal_3&#45;&gt;leaf_0x7373</title>
<path fill="none" stroke="black" d="M334,-173.8C334.14,-162.16 334.32,-146.55 334.48,-133.24"/>
<polygon fill="black" stroke="black" points="337.98,-133.22 334.59,-123.18 330.98,-133.13 337.98,-133.22"/>
<text text-anchor="middle" x="338.8" y="-144.8" font-family="Times,serif" font-size="14.00">0</text>
</g>
<!-- leaf_0x7369 -->
<g id="node12" class="node">
<title>leaf_0x7369</title>
<ellipse fill="none" stroke="black" cx="512.8" cy="-105" rx="42.79" ry="18"/>
<text text-anchor="middle" x="512.8" y="-101.3" font-family="Times,serif" font-size="14.00">&quot;si&quot; (2)</text>
</g>
<!-- internal_4 -->
<g id="node13" class="node">
<title>internal_4</title>
<ellipse fill="none" stroke="black" cx="424.8" cy="-192" rx="27" ry="18"/>
<text text-anchor="middle" x="424.8" y="-188.3" font-family="Times,serif" font-size="14.00">(4)</text>
</g>
<!-- internal_4&#45;&gt;internal_0 -->
<g id="edge9" class="edge">
<title>internal_4&#45;&gt;internal_0</title>
<path fill="none" stroke="black" d="M424.8,-173.8C424.8,-162.16 424.8,-146.55 424.8,-133.24"/>
<polygon fill="black" stroke="black" points="428.3,-133.18 424.8,-123.18 421.3,-133.18 428.3,-133.18"/>
<text text-anchor="middle" x="429.8" y="-144.8" font-family="Times,serif" font-size="14.00">0</text>
</g>
<!-- internal_4&#45;&gt;leaf_0x7369 -->
<g id="edge10" class="edge">
<title>internal_4&#45;&gt;leaf_0x7369</title>
<path fill="none" stroke="black" d="M439.72,-176.58C453.21,-163.56 473.29,-144.16 488.99,-129"/>
<polygon fill="black" stroke="black" points="491.53,-131.4 496.3,-121.94 486.67,-126.37 491.53,-131.4"/>
<text text-anchor="middle" x="478.8" y="-144.8" font-family="Times,serif" font-size="14.00">1</text>
</g>
<!-- leaf_0x6973 -->
<g id="node14" class="node">
<title>leaf_0x6973</title>
<ellipse fill="none" stroke="black" cx="244.8" cy="-192" rx="42.79" ry="18"/>
<text text-anchor="middle" x="244.8" y="-188.3" font-family="Times,serif" font-size="14.00">&quot;is&quot; (3)</text>
</g>
<!-- internal_5 -->
<g id="node15" class="node">
<title>internal_5</title>
<ellipse fill="none" stroke="black" cx="244.8" cy="-279" rx="27" ry="18"/>
<text text-anchor="middle" x="244.8" y="-275.3" font-family="Times,serif" font-size="14.00">(5)</text>
</g>
<!-- internal_5&#45;&gt;internal_1 -->
<g id="edge11" class="edge">
<title>internal_5&#45;&gt;internal_1</title>
<path fill="none" stroke="black" d="M229.7,-263.58C215.55,-250.07 194.22,-229.7 178.11,-214.31"/>
<polygon fill="black" stroke="black" points="180.32,-211.58 170.67,-207.21 175.48,-216.64 180.32,-211.58"/>
<text text-anchor="middle" x="210.8" y="-231.8" font-family="Times,serif" font-size="14.00">0</text>
</g>
<!-- internal_5&#45;&gt;leaf_0x6973 -->
<g id="edge12" class="edge">
<title>internal_5&#45;&gt;leaf_0x6973</title>
<path fill="none" stroke="black" d="M244.8,-260.8C244.8,-249.16 244.8,-233.55 244.8,-220.24"/>
<polygon fill="black" stroke="black" points="248.3,-220.18 244.8,-210.18 241.3,-220.18 248.3,-220.18"/>
<text text-anchor="middle" x="249.8" y="-231.8" font-family="Times,serif" font-size="14.00">1</text>
</g>
<!-- internal_6 -->
<g id="node16" class="node">
<title>internal_6</title>
<ellipse fill="none" stroke="black" cx="333.8" cy="-279" rx="27" ry="18"/>
<text text-anchor="middle" x="333.8" y="-275.3" font-family="Times,serif" font-size="14.00">(8)</text>
</g>
<!-- internal_6&#45;&gt;internal_3 -->
<g id="edge13" class="edge">
<title>internal_6&#45;&gt;internal_3</title>
<path fill="none" stroke="black" d="M333.8,-260.8C333.8,-249.16 333.8,-233.55 333.8,-220.24"/>
<polygon fill="black" stroke="black" points="337.3,-220.18 333.8,-210.18 330.3,-220.18 337.3,-220.18"/>
<text text-anchor="middle" x="338.8" y="-231.8" font-family="Times,serif" font-size="14.00">0</text>
</g>
<!-- internal_6&#45;&gt;internal_4 -->
<g id="edge14" class="edge">
<title>internal_6&#45;&gt;internal_4</title>
<path fill="none" stroke="black" d="M348.82,-263.96C363.31,-250.43 385.43,-229.77 402.07,-214.22"/>
<polygon fill="black" stroke="black" points="404.83,-216.44 409.75,-207.06 400.05,-211.33 404.83,-216.44"/>
<text text-anchor="middle" x="388.8" y="-231.8" font-family="Times,serif" font-size="14.00">1</text>
</g>
<!-- internal_7 -->
<g id="node17" class="node">
<title>internal_7</title>
<ellipse fill="none" stroke="black" cx="287.8" cy="-366" rx="29.5" ry="18"/>
<text text-anchor="middle" x="287.8" y="-362.3" font-family="Times,serif" font-size="14.00">(13)</text>
</g>
<!-- internal_7&#45;&gt;internal_5 -->
<g id="edge15" class="edge">
<title>internal_7&#45;&gt;internal_5</title>
<path fill="none" stroke="black" d="M279.51,-348.61C273.32,-336.38 264.75,-319.44 257.67,-305.46"/>
<polygon fill="black" stroke="black" points="260.7,-303.68 253.06,-296.34 254.45,-306.84 260.7,-303.68"/>
<text text-anchor="middle" x="273.8" y="-318.8" font-family="Times,serif" font-size="14.00">0</text>
</g>
<!-- internal_7&#45;&gt;internal_6 -->
<g id="edge16" class="edge">
<title>internal_7&#45;&gt;internal_6</title>
<path fill="none" stroke="black" d="M296.67,-348.61C303.33,-336.3 312.57,-319.23 320.17,-305.19"/>
<polygon fill="black" stroke="black" points="323.43,-306.51 325.11,-296.05 317.27,-303.18 323.43,-306.51"/>
<text text-anchor="middle" x="317.8" y="-318.8" font-family="Times,serif" font-size="14.00">1</text>
</g>
</g>
</svg>
