<?xml version="1.0" encoding="UTF-8" standalone="no"?>
<!DOCTYPE svg PUBLIC "-//W3C//DTD SVG 1.1//EN"
 "http://www.w3.org/Graphics/SVG/1.1/DTD/svg11.dtd">
<!-- Generated by graphviz version 2.43.0 (0)
 -->
<!-- Title: %3 Pages: 1 -->
<svg width="2408pt" height="479pt"
 viewBox="0.00 0.00 2407.74 479.00" xmlns="http://www.w3.org/2000/svg" xmlns:xlink="http://www.w3.org/1999/xlink">
<g id="graph0" class="graph" transform="scale(1 1) rotate(0) translate(4 475)">
<title>%3</title>
<polygon fill="white" stroke="transparent" points="-4,4 -4,-475 2403.74,-475 2403.74,4 -4,4"/>
<!-- leaf_0x2061 -->
<g id="node1" class="node">
<title>leaf_0x2061</title>
<ellipse fill="none" stroke="black" cx="466.6" cy="-105" rx="43.59" ry="18"/>
<text text-anchor="middle" x="466.6" y="-101.3" font-family="Times,serif" font-size="14.00">&quot; a&quot; (1)</text>
</g>
<!-- leaf_0x2073 -->
<g id="node2" class="node">
<title>leaf_0x2073</title>
<ellipse fill="none" stroke="black" cx="570.6" cy="-105" rx="42.79" ry="18"/>
<text text-anchor="middle" x="570.6" y="-101.3" font-family="Times,serif" font-size="14.00">&quot; s&quot; (1)</text>
</g>
<!-- internal_0 -->
<g id="node3" class="node">
<title>internal_0</title>
<ellipse fill="none" stroke="black" cx="570.6" cy="-192" rx="27" ry="18"/>
<text text-anchor="middle" x="570.6" y="-188.3" font-family="Times,serif" font-size="14.00">(2)</text>
</g>
<!-- internal_0&#45;&gt;leaf_0x2061 -->
<g id="edge1" class="edge">
<title>internal_0&#45;&gt;leaf_0x2061</title>
<path fill="none" stroke="black" d="M553.89,-177.34C537.51,-163.96 512.29,-143.34 493.16,-127.71"/>
<polygon fill="black" stroke="black" points="495.33,-124.97 485.38,-121.35 490.9,-130.39 495.33,-124.97"/>
<text text-anchor="middle" x="530.6" y="-144.8" font-family="Times,serif" font-size="14.00">0</text>
</g>
<!-- internal_0&#45;&gt;leaf_0x2073 -->
<g id="edge2" class="edge">
<title>internal_0&#45;&gt;leaf_0x2073</title>
<path fill="none" stroke="black" d="M570.6,-173.8C570.6,-162.16 570.6,-146.55 570.6,-133.24"/>
<polygon fill="black" stroke="black" points="574.1,-133.18 570.6,-123.18 567.1,-133.18 574.1,-133.18"/>
<text text-anchor="middle" x="575.6" y="-144.8" font-family="Times,serif" font-size="14.00">1</text>
</g>
<!-- leaf_0x6172 -->
<g id="node4" class="node">
<title>leaf_0x6172</title>
<ellipse fill="none" stroke="black" cx="722.6" cy="-18" rx="44.69" ry="18"/>
<text text-anchor="middle" x="722.6" y="-14.3" font-family="Times,serif" font-size="14.00">&quot;ar&quot; (1)</text>
</g>
<!-- leaf_0x6973 -->
<g id="node5" class="node">
<title>leaf_0x6973</title>
<ellipse fill="none" stroke="black" cx="828.6" cy="-18" rx="42.79" ry="18"/>
<text text-anchor="middle" x="828.6" y="-14.3" font-family="Times,serif" font-size="14.00">&quot;is&quot; (1)</text>
</g>
<!-- internal_1 -->
<g id="node6" class="node">
<title>internal_1</title>
<ellipse fill="none" stroke="black" cx="874.6" cy="-105" rx="27" ry="18"/>
<text text-anchor="middle" x="874.6" y="-101.3" font-family="Times,serif" font-size="14.00">(2)</text>
</g>
<!-- internal_1&#45;&gt;leaf_0x6172 -->
<g id="edge3" class="edge">
<title>internal_1&#45;&gt;leaf_0x6172</title>
<path fill="none" stroke="black" d="M854.41,-92.71C829.46,-78.76 786.6,-54.79 756.55,-37.99"/>
<polygon fill="black" stroke="black" points="758.11,-34.85 747.67,-33.02 754.69,-40.96 758.11,-34.85"/>
<text text-anchor="middle" x="813.6" y="-57.8" font-family="Times,serif" font-size="14.00">0</text>
</g>
<!-- internal_1&#45;&gt;leaf_0x6973 -->
<g id="edge4" class="edge">
<title>internal_1&#45;&gt;leaf_0x6973</title>
<path fill="none" stroke="black" d="M865.73,-87.61C859.15,-75.46 850.06,-58.66 842.52,-44.73"/>
<polygon fill="black" stroke="black" points="845.43,-42.76 837.6,-35.63 839.28,-46.09 845.43,-42.76"/>
<text text-anchor="middle" x="859.6" y="-57.8" font-family="Times,serif" font-size="14.00">1</text>
</g>
<!-- leaf_0x6620 -->
<g id="node7" class="node">
<title>leaf_0x6620</title>
<ellipse fill="none" stroke="black" cx="41.6" cy="-105" rx="41.69" ry="18"/>
<text text-anchor="middle" x="41.6" y="-101.3" font-family="Times,serif" font-size="14.00">&quot;f &quot; (1)</text>
</g>
<!-- leaf_0x7273 -->
<g id="node8" class="node">
<title>leaf_0x7273</title>
<ellipse fill="none" stroke="black" cx="145.6" cy="-105" rx="44.39" ry="18"/>
<text text-anchor="middle" x="145.6" y="-101.3" font-family="Times,serif" font-size="14.00">&quot;rs&quot; (1)</text>
</g>
<!-- internal_2 -->
<g id="node9" class="node">
<title>internal_2</title>
<ellipse fill="none" stroke="black" cx="145.6" cy="-192" rx="27" ry="18"/>
<text text-anchor="middle" x="145.6" y="-188.3" font-family="Times,serif" font-size="14.00">(2)</text>
</g>
<!-- internal_2&#45;&gt;leaf_0x6620 -->
<g id="edge5" class="edge">
<title>internal_2&#45;&gt;leaf_0x6620</title>
<path fill="none" stroke="black" d="M128.89,-177.34C112.51,-163.96 87.29,-143.34 68.16,-127.71"/>
<polygon fill="black" stroke="black" points="70.33,-124.97 60.38,-121.35 65.9,-130.39 70.33,-124.97"/>
<text text-anchor="middle" x="105.6" y="-144.8" font-family="Times,serif" font-size="14.00">0</text>
</g>
<!-- internal_2&#45;&gt;leaf_0x7273 -->
<g id="edge6" class="edge">
<title>internal_2&#45;&gt;leaf_0x7273</title>
<path fill="none" stroke="black" d="M145.6,-173.8C145.6,-162.16 145.6,-146.55 145.6,-133.24"/>
<polygon fill="black" stroke="black" points="149.1,-133.18 145.6,-123.18 142.1,-133.18 149.1,-133.18"/>
<text text-anchor="middle" x="150.6" y="-144.8" font-family="Times,serif" font-size="14.00">1</text>
</g>
<!-- leaf_0x6f64 -->
<g id="node10" class="node">
<title>leaf_0x6f64</title>
<ellipse fill="none" stroke="black" cx="253.6" cy="-105" rx="46.29" ry="18"/>
<text text-anchor="middle" x="253.6" y="-101.3" font-family="Times,serif" font-size="14.00">&quot;od&quot; (1)</text>
</g>
<!-- leaf_0x6169 -->
<g id="node11" class="node">
<title>leaf_0x6169</title>
<ellipse fill="none" stroke="black" cx="361.6" cy="-105" rx="43.59" ry="18"/>
<text text-anchor="middle" x="361.6" y="-101.3" font-family="Times,serif" font-size="14.00">&quot;ai&quot; (1)</text>
</g>
<!-- internal_3 -->
<g id="node12" class="node">
<title>internal_3</title>
<ellipse fill="none" stroke="black" cx="307.6" cy="-192" rx="27" ry="18"/>
<text text-anchor="middle" x="307.6" y="-188.3" font-family="Times,serif" font-size="14.00">(2)</text>
</g>
<!-- internal_3&#45;&gt;leaf_0x6f64 -->
<g id="edge7" class="edge">
<title>internal_3&#45;&gt;leaf_0x6f64</title>
<path fill="none" stroke="black" d="M297.44,-175.01C289.67,-162.78 278.8,-145.68 269.83,-131.56"/>
<polygon fill="black" stroke="black" points="272.58,-129.35 264.26,-122.79 266.67,-133.11 272.58,-129.35"/>
<text text-anchor="middle" x="289.6" y="-144.8" font-family="Times,serif" font-size="14.00">0</text>
</g>
<!-- internal_3&#45;&gt;leaf_0x6169 -->
<g id="edge8" class="edge">
<title>internal_3&#45;&gt;leaf_0x6169</title>
<path fill="none" stroke="black" d="M317.75,-175.01C325.57,-162.7 336.53,-145.46 345.53,-131.28"/>
<polygon fill="black" stroke="black" points="348.71,-132.81 351.12,-122.5 342.8,-129.06 348.71,-132.81"/>
<text text-anchor="middle" x="343.6" y="-144.8" font-family="Times,serif" font-size="14.00">1</text>
</g>
<!-- leaf_0x6572 -->
<g id="node13" class="node">
<title>leaf_0x6572</title>
<ellipse fill="none" stroke="black" cx="1590.6" cy="-18" rx="44.69" ry="18"/>
<text text-anchor="middle" x="1590.6" y="-14.3" font-family="Times,serif" font-size="14.00">&quot;er&quot; (1)</text>
</g>
<!-- leaf_0x6e75 -->
<g id="node14" class="node">
<title>leaf_0x6e75</title>
<ellipse fill="none" stroke="black" cx="1700.6" cy="-18" rx="46.59" ry="18"/>
<text text-anchor="middle" x="1700.6" y="-14.3" font-family="Times,serif" font-size="14.00">&quot;nu&quot; (1)</text>
</g>
<!-- internal_4 -->
<g id="node15" class="node">
<title>internal_4</title>
<ellipse fill="none" stroke="black" cx="1700.6" cy="-105" rx="27" ry="18"/>
<text text-anchor="middle" x="1700.6" y="-101.3" font-family="Times,serif" font-size="14.00">(2)</text>
</g>
<!-- internal_4&#45;&gt;leaf_0x6572 -->
<g id="edge9" class="edge">
<title>internal_4&#45;&gt;leaf_0x6572</title>
<path fill="none" stroke="black" d="M1683.41,-90.72C1665.99,-77.26 1638.76,-56.22 1618.29,-40.4"/>
<polygon fill="black" stroke="black" points="1620.32,-37.54 1610.26,-34.2 1616.03,-43.08 1620.32,-37.54"/>
<text text-anchor="middle" x="1657.6" y="-57.8" font-family="Times,serif" font-size="14.00">0</text>
</g>
<!-- internal_4&#45;&gt;leaf_0x6e75 -->
<g id="edge10" class="edge">
<title>internal_4&#45;&gt;leaf_0x6e75</title>
<path fill="none" stroke="black" d="M1700.6,-86.8C1700.6,-75.16 1700.6,-59.55 1700.6,-46.24"/>
<polygon fill="black" stroke="black" points="1704.1,-46.18 1700.6,-36.18 1697.1,-46.18 1704.1,-46.18"/>
<text text-anchor="middle" x="1705.6" y="-57.8" font-family="Times,serif" font-size="14.00">1</text>
</g>
<!-- leaf_0x656e -->
<g id="node16" class="node">
<title>leaf_0x656e</title>
<ellipse fill="none" stroke="black" cx="2025.6" cy="-18" rx="46.29" ry="18"/>
<text text-anchor="middle" x="2025.6" y="-14.3" font-family="Times,serif" font-size="14.00">&quot;en&quot; (1)</text>
</g>
<!-- leaf_0x6e74 -->
<g id="node17" class="node">
<title>leaf_0x6e74</title>
<ellipse fill="none" stroke="black" cx="2134.6" cy="-18" rx="44.69" ry="18"/>
<text text-anchor="middle" x="2134.6" y="-14.3" font-family="Times,serif" font-size="14.00">&quot;nt&quot; (1)</text>
</g>
<!-- internal_5 -->
<g id="node18" class="node">
<title>internal_5</title>
<ellipse fill="none" stroke="black" cx="2071.6" cy="-105" rx="27" ry="18"/>
<text text-anchor="middle" x="2071.6" y="-101.3" font-family="Times,serif" font-size="14.00">(2)</text>
</g>
<!-- internal_5&#45;&gt;leaf_0x656e -->
<g id="edge11" class="edge">
<title>internal_5&#45;&gt;leaf_0x656e</title>
<path fill="none" stroke="black" d="M2062.73,-87.61C2056.19,-75.54 2047.18,-58.88 2039.66,-45"/>
<polygon fill="black" stroke="black" points="2042.59,-43.05 2034.75,-35.92 2036.43,-46.38 2042.59,-43.05"/>
<text text-anchor="middle" x="2056.6" y="-57.8" font-family="Times,serif" font-size="14.00">0</text>
</g>
<!-- internal_5&#45;&gt;leaf_0x6e74 -->
<g id="edge12" class="edge">
<title>internal_5&#45;&gt;leaf_0x6e74</title>
<path fill="none" stroke="black" d="M2083.15,-88.41C2092.48,-75.83 2105.76,-57.91 2116.49,-43.42"/>
<polygon fill="black" stroke="black" points="2119.33,-45.48 2122.47,-35.36 2113.7,-41.31 2119.33,-45.48"/>
<text text-anchor="middle" x="2112.6" y="-57.8" font-family="Times,serif" font-size="14.00">1</text>
</g>
<!-- leaf_0x6e73 -->
<g id="node19" class="node">
<title>leaf_0x6e73</title>
<ellipse fill="none" stroke="black" cx="2243.6" cy="-18" rx="46.29" ry="18"/>
<text text-anchor="middle" x="2243.6" y="-14.3" font-family="Times,serif" font-size="14.00">&quot;ns&quot; (1)</text>
</g>
<!-- leaf_0x6e63 -->
<g id="node20" class="node">
<title>leaf_0x6e63</title>
<ellipse fill="none" stroke="black" cx="2353.6" cy="-18" rx="46.29" ry="18"/>
<text text-anchor="middle" x="2353.6" y="-14.3" font-family="Times,serif" font-size="14.00">&quot;nc&quot; (1)</text>
</g>
<!-- internal_6 -->
<g id="node21" class="node">
<title>internal_6</title>
<ellipse fill="none" stroke="black" cx="2243.6" cy="-105" rx="27" ry="18"/>
<text text-anchor="middle" x="2243.6" y="-101.3" font-family="Times,serif" font-size="14.00">(2)</text>
</g>
<!-- internal_6&#45;&gt;leaf_0x6e73 -->
<g id="edge13" class="edge">
<title>internal_6&#45;&gt;leaf_0x6e73</title>
<path fill="none" stroke="black" d="M2243.6,-86.8C2243.6,-75.16 2243.6,-59.55 2243.6,-46.24"/>
<polygon fill="black" stroke="black" points="2247.1,-46.18 2243.6,-36.18 2240.1,-46.18 2247.1,-46.18"/>
<text text-anchor="middle" x="2248.6" y="-57.8" font-family="Times,serif" font-size="14.00">0</text>
</g>
<!-- internal_6&#45;&gt;leaf_0x6e63 -->
<g id="edge14" class="edge">
<title>internal_6&#45;&gt;leaf_0x6e63</title>
<path fill="none" stroke="black" d="M2260.78,-90.72C2278.1,-77.34 2305.1,-56.48 2325.52,-40.69"/>
<polygon fill="black" stroke="black" points="2327.78,-43.38 2333.55,-34.49 2323.5,-37.84 2327.78,-43.38"/>
<text text-anchor="middle" x="2310.6" y="-57.8" font-family="Times,serif" font-size="14.00">1</text>
</g>
<!-- leaf_0x206f -->
<g id="node22" class="node">
<title>leaf_0x206f</title>
<ellipse fill="none" stroke="black" cx="1808.6" cy="-18" rx="43.59" ry="18"/>
<text text-anchor="middle" x="1808.6" y="-14.3" font-family="Times,serif" font-size="14.00">&quot; o&quot; (1)</text>
</g>
<!-- leaf_0x6163 -->
<g id="node23" class="node">
<title>leaf_0x6163</title>
<ellipse fill="none" stroke="black" cx="1915.6" cy="-18" rx="45.49" ry="18"/>
<text text-anchor="middle" x="1915.6" y="-14.3" font-family="Times,serif" font-size="14.00">&quot;ac&quot; (1)</text>
</g>
<!-- internal_7 -->
<g id="node24" class="node">
<title>internal_7</title>
<ellipse fill="none" stroke="black" cx="1808.6" cy="-105" rx="27" ry="18"/>
<text text-anchor="middle" x="1808.6" y="-101.3" font-family="Times,serif" font-size="14.00">(2)</text>
</g>
<!-- internal_7&#45;&gt;leaf_0x206f -->
<g id="edge15" class="edge">
<title>internal_7&#45;&gt;leaf_0x206f</title>
<path fill="none" stroke="black" d="M1808.6,-86.8C1808.6,-75.16 1808.6,-59.55 1808.6,-46.24"/>
<polygon fill="black" stroke="black" points="1812.1,-46.18 1808.6,-36.18 1805.1,-46.18 1812.1,-46.18"/>
<text text-anchor="middle" x="1813.6" y="-57.8" font-family="Times,serif" font-size="14.00">0</text>
</g>
<!-- internal_7&#45;&gt;leaf_0x6163 -->
<g id="edge16" class="edge">
<title>internal_7&#45;&gt;leaf_0x6163</title>
<path fill="none" stroke="black" d="M1825.32,-90.72C1842.08,-77.4 1868.19,-56.66 1888.02,-40.9"/>
<polygon fill="black" stroke="black" points="1890.44,-43.45 1896.1,-34.49 1886.09,-37.97 1890.44,-43.45"/>
<text text-anchor="middle" x="1873.6" y="-57.8" font-family="Times,serif" font-size="14.00">1</text>
</g>
<!-- leaf_0x6520 -->
<g id="node25" class="node">
<title>leaf_0x6520</title>
<ellipse fill="none" stroke="black" cx="1153.6" cy="-18" rx="43.59" ry="18"/>
<text text-anchor="middle" x="1153.6" y="-14.3" font-family="Times,serif" font-size="14.00">&quot;e &quot; (1)</text>
</g>
<!-- leaf_0x6e20 -->
<g id="node26" class="node">
<title>leaf_0x6e20</title>
<ellipse fill="none" stroke="black" cx="1259.6" cy="-18" rx="44.39" ry="18"/>
<text text-anchor="middle" x="1259.6" y="-14.3" font-family="Times,serif" font-size="14.00">&quot;n &quot; (1)</text>
</g>
<!-- internal_8 -->
<g id="node27" class="node">
<title>internal_8</title>
<ellipse fill="none" stroke="black" cx="1206.6" cy="-105" rx="27" ry="18"/>
<text text-anchor="middle" x="1206.6" y="-101.3" font-family="Times,serif" font-size="14.00">(2)</text>
</g>
<!-- internal_8&#45;&gt;leaf_0x6520 -->
<g id="edge17" class="edge">
<title>internal_8&#45;&gt;leaf_0x6520</title>
<path fill="none" stroke="black" d="M1196.63,-88.01C1188.95,-75.7 1178.2,-58.46 1169.36,-44.28"/>
<polygon fill="black" stroke="black" points="1172.14,-42.13 1163.88,-35.5 1166.2,-45.83 1172.14,-42.13"/>
<text text-anchor="middle" x="1188.6" y="-57.8" font-family="Times,serif" font-size="14.00">0</text>
</g>
<!-- internal_8&#45;&gt;leaf_0x6e20 -->
<g id="edge18" class="edge">
<title>internal_8&#45;&gt;leaf_0x6e20</title>
<path fill="none" stroke="black" d="M1216.57,-88.01C1224.19,-75.78 1234.86,-58.68 1243.66,-44.56"/>
<polygon fill="black" stroke="black" points="1246.81,-46.13 1249.13,-35.79 1240.87,-42.42 1246.81,-46.13"/>
<text text-anchor="middle" x="1241.6" y="-57.8" font-family="Times,serif" font-size="14.00">1</text>
</g>
<!-- leaf_0x6420 -->
<g id="node28" class="node">
<title>leaf_0x6420</title>
<ellipse fill="none" stroke="black" cx="1365.6" cy="-18" rx="44.39" ry="18"/>
<text text-anchor="middle" x="1365.6" y="-14.3" font-family="Times,serif" font-size="14.00">&quot;d &quot; (1)</text>
</g>
<!-- leaf_0x6d62 -->
<g id="node29" class="node">
<title>leaf_0x6d62</title>
<ellipse fill="none" stroke="black" cx="1477.6" cy="-18" rx="50.09" ry="18"/>
<text text-anchor="middle" x="1477.6" y="-14.3" font-family="Times,serif" font-size="14.00">&quot;mb&quot; (1)</text>
</g>
<!-- internal_9 -->
<g id="node30" class="node">
<title>internal_9</title>
<ellipse fill="none" stroke="black" cx="1365.6" cy="-105" rx="27" ry="18"/>
<text text-anchor="middle" x="1365.6" y="-101.3" font-family="Times,serif" font-size="14.00">(2)</text>
</g>
<!-- internal_9&#45;&gt;leaf_0x6420 -->
<g id="edge19" class="edge">
<title>internal_9&#45;&gt;leaf_0x6420</title>
<path fill="none" stroke="black" d="M1365.6,-86.8C1365.6,-75.16 1365.6,-59.55 1365.6,-46.24"/>
<polygon fill="black" stroke="black" points="1369.1,-46.18 1365.6,-36.18 1362.1,-46.18 1369.1,-46.18"/>
<text text-anchor="middle" x="1370.6" y="-57.8" font-family="Times,serif" font-size="14.00">0</text>
</g>
<!-- internal_9&#45;&gt;leaf_0x6d62 -->
<g id="edge20" class="edge">
<title>internal_9&#45;&gt;leaf_0x6d62</title>
<path fill="none" stroke="black" d="M1383.1,-90.72C1400.72,-77.34 1428.22,-56.48 1449.01,-40.69"/>
<polygon fill="black" stroke="black" points="1451.33,-43.32 1457.18,-34.49 1447.1,-37.75 1451.33,-43.32"/>
<text text-anchor="middle" x="1433.6" y="-57.8" font-family="Times,serif" font-size="14.00">1</text>
</g>
<!-- leaf_0x5468 -->
<g id="node31" class="node">
<title>leaf_0x5468</title>
<ellipse fill="none" stroke="black" cx="936.6" cy="-18" rx="46.59" ry="18"/>
<text text-anchor="middle" x="936.6" y="-14.3" font-family="Times,serif" font-size="14.00">&quot;Th&quot; (1)</text>
</g>
<!-- leaf_0x636f -->
<g id="node32" class="node">
<title>leaf_0x636f</title>
<ellipse fill="none" stroke="black" cx="1046.6" cy="-18" rx="45.49" ry="18"/>
<text text-anchor="middle" x="1046.6" y="-14.3" font-family="Times,serif" font-size="14.00">&quot;co&quot; (1)</text>
</g>
<!-- internal_10 -->
<g id="node33" class="node">
<title>internal_10</title>
<ellipse fill="none" stroke="black" cx="991.6" cy="-105" rx="27" ry="18"/>
<text text-anchor="middle" x="991.6" y="-101.3" font-family="Times,serif" font-size="14.00">(2)</text>
</g>
<!-- internal_10&#45;&gt;leaf_0x5468 -->
<g id="edge21" class="edge">
<title>internal_10&#45;&gt;leaf_0x5468</title>
<path fill="none" stroke="black" d="M981.25,-88.01C973.34,-75.78 962.27,-58.68 953.13,-44.56"/>
<polygon fill="black" stroke="black" points="955.83,-42.28 947.46,-35.79 949.95,-46.09 955.83,-42.28"/>
<text text-anchor="middle" x="972.6" y="-57.8" font-family="Times,serif" font-size="14.00">0</text>
</g>
<!-- internal_10&#45;&gt;leaf_0x636f -->
<g id="edge22" class="edge">
<title>internal_10&#45;&gt;leaf_0x636f</title>
<path fill="none" stroke="black" d="M1001.94,-88.01C1009.85,-75.78 1020.92,-58.68 1030.06,-44.56"/>
<polygon fill="black" stroke="black" points="1033.24,-46.09 1035.73,-35.79 1027.36,-42.28 1033.24,-46.09"/>
<text text-anchor="middle" x="1027.6" y="-57.8" font-family="Times,serif" font-size="14.00">1</text>
</g>
<!-- leaf_0x6368 -->
<g id="node34" class="node">
<title>leaf_0x6368</title>
<ellipse fill="none" stroke="black" cx="677.6" cy="-105" rx="46.29" ry="18"/>
<text text-anchor="middle" x="677.6" y="-101.3" font-family="Times,serif" font-size="14.00">&quot;ch&quot; (1)</text>
</g>
<!-- leaf_0x7465 -->
<g id="node35" class="node">
<title>leaf_0x7465</title>
<ellipse fill="none" stroke="black" cx="785.6" cy="-105" rx="44.39" ry="18"/>
<text text-anchor="middle" x="785.6" y="-101.3" font-family="Times,serif" font-size="14.00">&quot;te&quot; (2)</text>
</g>
<!-- internal_11 -->
<g id="node36" class="node">
<title>internal_11</title>
<ellipse fill="none" stroke="black" cx="677.6" cy="-192" rx="27" ry="18"/>
<text text-anchor="middle" x="677.6" y="-188.3" font-family="Times,serif" font-size="14.00">(3)</text>
</g>
<!-- internal_11&#45;&gt;leaf_0x6368 -->
<g id="edge23" class="edge">
<title>internal_11&#45;&gt;leaf_0x6368</title>
<path fill="none" stroke="black" d="M677.6,-173.8C677.6,-162.16 677.6,-146.55 677.6,-133.24"/>
<polygon fill="black" stroke="black" points="681.1,-133.18 677.6,-123.18 674.1,-133.18 681.1,-133.18"/>
<text text-anchor="middle" x="682.6" y="-144.8" font-family="Times,serif" font-size="14.00">0</text>
</g>
<!-- internal_11&#45;&gt;leaf_0x7465 -->
<g id="edge24" class="edge">
<title>internal_11&#45;&gt;leaf_0x7465</title>
<path fill="none" stroke="black" d="M694.47,-177.72C711.57,-164.26 738.31,-143.22 758.4,-127.4"/>
<polygon fill="black" stroke="black" points="760.59,-130.13 766.29,-121.2 756.27,-124.63 760.59,-130.13"/>
<text text-anchor="middle" x="743.6" y="-144.8" font-family="Times,serif" font-size="14.00">1</text>
</g>
<!-- internal_12 -->
<g id="node37" class="node">
<title>internal_12</title>
<ellipse fill="none" stroke="black" cx="991.6" cy="-192" rx="27" ry="18"/>
<text text-anchor="middle" x="991.6" y="-188.3" font-family="Times,serif" font-size="14.00">(4)</text>
</g>
<!-- internal_12&#45;&gt;internal_1 -->
<g id="edge25" class="edge">
<title>internal_12&#45;&gt;internal_1</title>
<path fill="none" stroke="black" d="M974.08,-178.27C954.61,-164.13 922.96,-141.14 900.6,-124.89"/>
<polygon fill="black" stroke="black" points="902.38,-121.86 892.23,-118.81 898.27,-127.52 902.38,-121.86"/>
<text text-anchor="middle" x="945.6" y="-144.8" font-family="Times,serif" font-size="14.00">0</text>
</g>
<!-- internal_12&#45;&gt;internal_10 -->
<g id="edge26" class="edge">
<title>internal_12&#45;&gt;internal_10</title>
<path fill="none" stroke="black" d="M991.6,-173.8C991.6,-162.16 991.6,-146.55 991.6,-133.24"/>
<polygon fill="black" stroke="black" points="995.1,-133.18 991.6,-123.18 988.1,-133.18 995.1,-133.18"/>
<text text-anchor="middle" x="996.6" y="-144.8" font-family="Times,serif" font-size="14.00">1</text>
</g>
<!-- internal_13 -->
<g id="node38" class="node">
<title>internal_13</title>
<ellipse fill="none" stroke="black" cx="307.6" cy="-279" rx="27" ry="18"/>
<text text-anchor="middle" x="307.6" y="-275.3" font-family="Times,serif" font-size="14.00">(4)</text>
</g>
<!-- internal_13&#45;&gt;internal_2 -->
<g id="edge28" class="edge">
<title>internal_13&#45;&gt;internal_2</title>
<path fill="none" stroke="black" d="M287.08,-267.23C258.79,-252.39 207.65,-225.56 175.22,-208.54"/>
<polygon fill="black" stroke="black" points="176.68,-205.36 166.2,-203.81 173.43,-211.56 176.68,-205.36"/>
<text text-anchor="middle" x="241.6" y="-231.8" font-family="Times,serif" font-size="14.00">1</text>
</g>
<!-- internal_13&#45;&gt;internal_3 -->
<g id="edge27" class="edge">
<title>internal_13&#45;&gt;internal_3</title>
<path fill="none" stroke="black" d="M307.6,-260.8C307.6,-249.16 307.6,-233.55 307.6,-220.24"/>
<polygon fill="black" stroke="black" points="311.1,-220.18 307.6,-210.18 304.1,-220.18 311.1,-220.18"/>
<text text-anchor="middle" x="312.6" y="-231.8" font-family="Times,serif" font-size="14.00">0</text>
</g>
<!-- internal_14 -->
<g id="node39" class="node">
<title>internal_14</title>
<ellipse fill="none" stroke="black" cx="1767.6" cy="-192" rx="27" ry="18"/>
<text text-anchor="middle" x="1767.6" y="-188.3" font-family="Times,serif" font-size="14.00">(4)</text>
</g>
<!-- internal_14&#45;&gt;internal_4 -->
<g id="edge29" class="edge">
<title>internal_14&#45;&gt;internal_4</title>
<path fill="none" stroke="black" d="M1755.62,-175.8C1745.49,-162.95 1730.8,-144.32 1719.15,-129.54"/>
<polygon fill="black" stroke="black" points="1721.64,-127.04 1712.7,-121.35 1716.14,-131.37 1721.64,-127.04"/>
<text text-anchor="middle" x="1743.6" y="-144.8" font-family="Times,serif" font-size="14.00">0</text>
</g>
<!-- internal_14&#45;&gt;internal_7 -->
<g id="edge30" class="edge">
<title>internal_14&#45;&gt;internal_7</title>
<path fill="none" stroke="black" d="M1775.5,-174.61C1781.4,-162.38 1789.57,-145.44 1796.32,-131.46"/>
<polygon fill="black" stroke="black" points="1799.52,-132.87 1800.72,-122.34 1793.22,-129.82 1799.52,-132.87"/>
<text text-anchor="middle" x="1795.6" y="-144.8" font-family="Times,serif" font-size="14.00">1</text>
</g>
<!-- internal_15 -->
<g id="node40" class="node">
<title>internal_15</title>
<ellipse fill="none" stroke="black" cx="2071.6" cy="-192" rx="27" ry="18"/>
<text text-anchor="middle" x="2071.6" y="-188.3" font-family="Times,serif" font-size="14.00">(4)</text>
</g>
<!-- internal_15&#45;&gt;internal_5 -->
<g id="edge32" class="edge">
<title>internal_15&#45;&gt;internal_5</title>
<path fill="none" stroke="black" d="M2071.6,-173.8C2071.6,-162.16 2071.6,-146.55 2071.6,-133.24"/>
<polygon fill="black" stroke="black" points="2075.1,-133.18 2071.6,-123.18 2068.1,-133.18 2075.1,-133.18"/>
<text text-anchor="middle" x="2076.6" y="-144.8" font-family="Times,serif" font-size="14.00">1</text>
</g>
<!-- internal_15&#45;&gt;internal_6 -->
<g id="edge31" class="edge">
<title>internal_15&#45;&gt;internal_6</title>
<path fill="none" stroke="black" d="M2092.69,-180.58C2122.94,-165.62 2178.83,-138.01 2213.44,-120.9"/>
<polygon fill="black" stroke="black" points="2215.19,-123.94 2222.6,-116.37 2212.09,-117.67 2215.19,-123.94"/>
<text text-anchor="middle" x="2173.6" y="-144.8" font-family="Times,serif" font-size="14.00">0</text>
</g>
<!-- internal_16 -->
<g id="node41" class="node">
<title>internal_16</title>
<ellipse fill="none" stroke="black" cx="1206.6" cy="-192" rx="27" ry="18"/>
<text text-anchor="middle" x="1206.6" y="-188.3" font-family="Times,serif" font-size="14.00">(4)</text>
</g>
<!-- internal_16&#45;&gt;internal_8 -->
<g id="edge34" class="edge">
<title>internal_16&#45;&gt;internal_8</title>
<path fill="none" stroke="black" d="M1206.6,-173.8C1206.6,-162.16 1206.6,-146.55 1206.6,-133.24"/>
<polygon fill="black" stroke="black" points="1210.1,-133.18 1206.6,-123.18 1203.1,-133.18 1210.1,-133.18"/>
<text text-anchor="middle" x="1211.6" y="-144.8" font-family="Times,serif" font-size="14.00">1</text>
</g>
<!-- internal_16&#45;&gt;internal_9 -->
<g id="edge33" class="edge">
<title>internal_16&#45;&gt;internal_9</title>
<path fill="none" stroke="black" d="M1227.06,-180.06C1254.84,-165.21 1304.68,-138.57 1336.39,-121.61"/>
<polygon fill="black" stroke="black" points="1338.05,-124.7 1345.21,-116.9 1334.74,-118.52 1338.05,-124.7"/>
<text text-anchor="middle" x="1301.6" y="-144.8" font-family="Times,serif" font-size="14.00">0</text>
</g>
<!-- internal_17 -->
<g id="node42" class="node">
<title>internal_17</title>
<ellipse fill="none" stroke="black" cx="605.6" cy="-279" rx="27" ry="18"/>
<text text-anchor="middle" x="605.6" y="-275.3" font-family="Times,serif" font-size="14.00">(5)</text>
</g>
<!-- internal_17&#45;&gt;internal_0 -->
<g id="edge35" class="edge">
<title>internal_17&#45;&gt;internal_0</title>
<path fill="none" stroke="black" d="M598.68,-261.21C593.71,-249.14 586.92,-232.64 581.26,-218.89"/>
<polygon fill="black" stroke="black" points="584.42,-217.38 577.38,-209.47 577.95,-220.05 584.42,-217.38"/>
<text text-anchor="middle" x="595.6" y="-231.8" font-family="Times,serif" font-size="14.00">0</text>
</g>
<!-- internal_17&#45;&gt;internal_11 -->
<g id="edge36" class="edge">
<title>internal_17&#45;&gt;internal_11</title>
<path fill="none" stroke="black" d="M618.47,-262.8C629.53,-249.75 645.63,-230.74 658.24,-215.85"/>
<polygon fill="black" stroke="black" points="661.04,-217.96 664.84,-208.06 655.7,-213.43 661.04,-217.96"/>
<text text-anchor="middle" x="651.6" y="-231.8" font-family="Times,serif" font-size="14.00">1</text>
</g>
<!-- internal_18 -->
<g id="node43" class="node">
<title>internal_18</title>
<ellipse fill="none" stroke="black" cx="1125.6" cy="-279" rx="27" ry="18"/>
<text text-anchor="middle" x="1125.6" y="-275.3" font-family="Times,serif" font-size="14.00">(8)</text>
</g>
<!-- internal_18&#45;&gt;internal_12 -->
<g id="edge37" class="edge">
<title>internal_18&#45;&gt;internal_12</title>
<path fill="none" stroke="black" d="M1106.68,-266C1083.84,-251.51 1045.23,-227.02 1019.09,-210.44"/>
<polygon fill="black" stroke="black" points="1020.73,-207.34 1010.41,-204.94 1016.98,-213.25 1020.73,-207.34"/>
<text text-anchor="middle" x="1072.6" y="-231.8" font-family="Times,serif" font-size="14.00">0</text>
</g>
<!-- internal_18&#45;&gt;internal_16 -->
<g id="edge38" class="edge">
<title>internal_18&#45;&gt;internal_16</title>
<path fill="none" stroke="black" d="M1139.71,-263.19C1152.37,-249.91 1171.12,-230.23 1185.55,-215.08"/>
<polygon fill="black" stroke="black" points="1188.28,-217.29 1192.65,-207.64 1183.22,-212.46 1188.28,-217.29"/>
<text text-anchor="middle" x="1176.6" y="-231.8" font-family="Times,serif" font-size="14.00">1</text>
</g>
<!-- internal_19 -->
<g id="node44" class="node">
<title>internal_19</title>
<ellipse fill="none" stroke="black" cx="1767.6" cy="-279" rx="27" ry="18"/>
<text text-anchor="middle" x="1767.6" y="-275.3" font-family="Times,serif" font-size="14.00">(8)</text>
</g>
<!-- internal_19&#45;&gt;internal_14 -->
<g id="edge39" class="edge">
<title>internal_19&#45;&gt;internal_14</title>
<path fill="none" stroke="black" d="M1767.6,-260.8C1767.6,-249.16 1767.6,-233.55 1767.6,-220.24"/>
<polygon fill="black" stroke="black" points="1771.1,-220.18 1767.6,-210.18 1764.1,-220.18 1771.1,-220.18"/>
<text text-anchor="middle" x="1772.6" y="-231.8" font-family="Times,serif" font-size="14.00">0</text>
</g>
<!-- internal_19&#45;&gt;internal_15 -->
<g id="edge40" class="edge">
<title>internal_19&#45;&gt;internal_15</title>
<path fill="none" stroke="black" d="M1791.96,-271.19C1845.88,-256.11 1975.42,-219.89 2037.42,-202.56"/>
<polygon fill="black" stroke="black" points="2038.43,-205.91 2047.12,-199.84 2036.54,-199.17 2038.43,-205.91"/>
<text text-anchor="middle" x="1943.6" y="-231.8" font-family="Times,serif" font-size="14.00">1</text>
</g>
<!-- internal_20 -->
<g id="node45" class="node">
<title>internal_20</title>
<ellipse fill="none" stroke="black" cx="605.6" cy="-366" rx="27" ry="18"/>
<text text-anchor="middle" x="605.6" y="-362.3" font-family="Times,serif" font-size="14.00">(9)</text>
</g>
<!-- internal_20&#45;&gt;internal_13 -->
<g id="edge41" class="edge">
<title>internal_20&#45;&gt;internal_13</title>
<path fill="none" stroke="black" d="M581.21,-358.04C528.25,-342.94 402.62,-307.1 341.78,-289.75"/>
<polygon fill="black" stroke="black" points="342.48,-286.31 331.9,-286.93 340.56,-293.04 342.48,-286.31"/>
<text text-anchor="middle" x="479.6" y="-318.8" font-family="Times,serif" font-size="14.00">0</text>
</g>
<!-- internal_20&#45;&gt;internal_17 -->
<g id="edge42" class="edge">
<title>internal_20&#45;&gt;internal_17</title>
<path fill="none" stroke="black" d="M605.6,-347.8C605.6,-336.16 605.6,-320.55 605.6,-307.24"/>
<polygon fill="black" stroke="black" points="609.1,-307.18 605.6,-297.18 602.1,-307.18 609.1,-307.18"/>
<text text-anchor="middle" x="610.6" y="-318.8" font-family="Times,serif" font-size="14.00">1</text>
</g>
<!-- internal_21 -->
<g id="node46" class="node">
<title>internal_21</title>
<ellipse fill="none" stroke="black" cx="1125.6" cy="-366" rx="29.5" ry="18"/>
<text text-anchor="middle" x="1125.6" y="-362.3" font-family="Times,serif" font-size="14.00">(16)</text>
</g>
<!-- internal_21&#45;&gt;internal_18 -->
<g id="edge43" class="edge">
<title>internal_21&#45;&gt;internal_18</title>
<path fill="none" stroke="black" d="M1125.6,-347.8C1125.6,-336.16 1125.6,-320.55 1125.6,-307.24"/>
<polygon fill="black" stroke="black" points="1129.1,-307.18 1125.6,-297.18 1122.1,-307.18 1129.1,-307.18"/>
<text text-anchor="middle" x="1130.6" y="-318.8" font-family="Times,serif" font-size="14.00">0</text>
</g>
<!-- internal_21&#45;&gt;internal_19 -->
<g id="edge44" class="edge">
<title>internal_21&#45;&gt;internal_19</title>
<path fill="none" stroke="black" d="M1154.01,-361.24C1257.67,-347.51 1615.46,-300.14 1731.18,-284.82"/>
<polygon fill="black" stroke="black" points="1731.84,-288.26 1741.29,-283.48 1730.92,-281.33 1731.84,-288.26"/>
<text text-anchor="middle" x="1490.6" y="-318.8" font-family="Times,serif" font-size="14.00">1</text>
</g>
<!-- internal_22 -->
<g id="node47" class="node">
<title>internal_22</title>
<ellipse fill="none" stroke="black" cx="739.6" cy="-453" rx="29.5" ry="18"/>
<text text-anchor="middle" x="739.6" y="-449.3" font-family="Times,serif" font-size="14.00">(25)</text>
</g>
<!-- internal_22&#45;&gt;internal_20 -->
<g id="edge45" class="edge">
<title>internal_22&#45;&gt;internal_20</title>
<path fill="none" stroke="black" d="M719.82,-439.46C696.9,-424.92 658.97,-400.86 633.16,-384.49"/>
<polygon fill="black" stroke="black" points="634.9,-381.44 624.58,-379.04 631.15,-387.36 634.9,-381.44"/>
<text text-anchor="middle" x="686.6" y="-405.8" font-family="Times,serif" font-size="14.00">0</text>
</g>
<!-- internal_22&#45;&gt;internal_21 -->
<g id="edge46" class="edge">
<title>internal_22&#45;&gt;internal_21</title>
<path fill="none" stroke="black" d="M766.74,-446.02C834.57,-431.09 1011.53,-392.12 1088.71,-375.12"/>
<polygon fill="black" stroke="black" points="1089.47,-378.54 1098.48,-372.97 1087.96,-371.7 1089.47,-378.54"/>
<text text-anchor="middle" x="961.6" y="-405.8" font-family="Times,serif" font-size="14.00">1</text>
</g>
</g>
</svg>
