<?xml version="1.0" encoding="UTF-8" standalone="no"?>
<!DOCTYPE svg PUBLIC "-//W3C//DTD SVG 1.1//EN"
 "http://www.w3.org/Graphics/SVG/1.1/DTD/svg11.dtd">
<!-- Generated by graphviz version 2.43.0 (0)
 -->
<!-- Title: %3 Pages: 1 -->
<svg width="565pt" height="392pt"
 viewBox="0.00 0.00 564.59 392.00" xmlns="http://www.w3.org/2000/svg" xmlns:xlink="http://www.w3.org/1999/xlink">
<g id="graph0" class="graph" transform="scale(1 1) rotate(0) translate(4 388)">
<title>%3</title>
<polygon fill="white" stroke="transparent" points="-4,4 -4,-388 560.59,-388 560.59,4 -4,4"/>
<!-- leaf_0x7069 -->
<g id="node1" class="node">
<title>leaf_0x7069</title>
<ellipse fill="none" stroke="black" cx="400.8" cy="-18" rx="44.39" ry="18"/>
<text text-anchor="middle" x="400.8" y="-14.3" font-family="Times,serif" font-size="14.00">&quot;pi&quot; (1)</text>
</g>
<!-- leaf_0x206d -->
<g id="node2" class="node">
<title>leaf_0x206d</title>
<ellipse fill="none" stroke="black" cx="509.8" cy="-18" rx="46.59" ry="18"/>
<text text-anchor="middle" x="509.8" y="-14.3" font-family="Times,serif" font-size="14.00">&quot; m&quot; (1)</text>
</g>
<!-- internal_0 -->
<g id="node3" class="node">
<title>internal_0</title>
<ellipse fill="none" stroke="black" cx="418.8" cy="-105" rx="27" ry="18"/>
<text text-anchor="middle" x="418.8" y="-101.3" font-family="Times,serif" font-size="14.00">(2)</text>
</g>
<!-- internal_0&#45;&gt;leaf_0x7069 -->
<g id="edge1" class="edge">
<title>internal_0&#45;&gt;leaf_0x7069</title>
<path fill="none" stroke="black" d="M415.15,-86.8C412.69,-75.16 409.38,-59.55 406.56,-46.24"/>
<polygon fill="black" stroke="black" points="409.93,-45.23 404.43,-36.18 403.08,-46.68 409.93,-45.23"/>
<text text-anchor="middle" x="415.8" y="-57.8" font-family="Times,serif" font-size="14.00">0</text>
</g>
<!-- internal_0&#45;&gt;leaf_0x206d -->
<g id="edge2" class="edge">
<title>internal_0&#45;&gt;leaf_0x206d</title>
<path fill="none" stroke="black" d="M433.82,-89.96C447.79,-76.92 468.85,-57.24 485.26,-41.92"/>
<polygon fill="black" stroke="black" points="487.97,-44.18 492.89,-34.79 483.19,-39.06 487.97,-44.18"/>
<text text-anchor="middle" x="473.8" y="-57.8" font-family="Times,serif" font-size="14.00">1</text>
</g>
<!-- leaf_0x6d69 -->
<g id="node4" class="node">
<title>leaf_0x6d69</title>
<ellipse fill="none" stroke="black" cx="46.8" cy="-105" rx="46.59" ry="18"/>
<text text-anchor="middle" x="46.8" y="-101.3" font-family="Times,serif" font-size="14.00">&quot;mi&quot; (1)</text>
</g>
<!-- leaf_0x6920 -->
<g id="node5" class="node">
<title>leaf_0x6920</title>
<ellipse fill="none" stroke="black" cx="152.8" cy="-105" rx="40.89" ry="18"/>
<text text-anchor="middle" x="152.8" y="-101.3" font-family="Times,serif" font-size="14.00">&quot;i &quot; (1)</text>
</g>
<!-- internal_1 -->
<g id="node6" class="node">
<title>internal_1</title>
<ellipse fill="none" stroke="black" cx="152.8" cy="-192" rx="27" ry="18"/>
<text text-anchor="middle" x="152.8" y="-188.3" font-family="Times,serif" font-size="14.00">(2)</text>
</g>
<!-- internal_1&#45;&gt;leaf_0x6d69 -->
<g id="edge3" class="edge">
<title>internal_1&#45;&gt;leaf_0x6d69</title>
<path fill="none" stroke="black" d="M136.23,-177.72C119.62,-164.4 93.76,-143.66 74.11,-127.9"/>
<polygon fill="black" stroke="black" points="76.11,-125.02 66.11,-121.49 71.73,-130.48 76.11,-125.02"/>
<text text-anchor="middle" x="111.8" y="-144.8" font-family="Times,serif" font-size="14.00">0</text>
</g>
<!-- internal_1&#45;&gt;leaf_0x6920 -->
<g id="edge4" class="edge">
<title>internal_1&#45;&gt;leaf_0x6920</title>
<path fill="none" stroke="black" d="M152.8,-173.8C152.8,-162.16 152.8,-146.55 152.8,-133.24"/>
<polygon fill="black" stroke="black" points="156.3,-133.18 152.8,-123.18 149.3,-133.18 156.3,-133.18"/>
<text text-anchor="middle" x="157.8" y="-144.8" font-family="Times,serif" font-size="14.00">1</text>
</g>
<!-- leaf_0x6970 -->
<g id="node7" class="node">
<title>leaf_0x6970</title>
<ellipse fill="none" stroke="black" cx="147.8" cy="-18" rx="44.39" ry="18"/>
<text text-anchor="middle" x="147.8" y="-14.3" font-family="Times,serif" font-size="14.00">&quot;ip&quot; (1)</text>
</g>
<!-- leaf_0x7070 -->
<g id="node8" class="node">
<title>leaf_0x7070</title>
<ellipse fill="none" stroke="black" cx="256.8" cy="-18" rx="46.59" ry="18"/>
<text text-anchor="middle" x="256.8" y="-14.3" font-family="Times,serif" font-size="14.00">&quot;pp&quot; (1)</text>
</g>
<!-- internal_2 -->
<g id="node9" class="node">
<title>internal_2</title>
<ellipse fill="none" stroke="black" cx="238.8" cy="-105" rx="27" ry="18"/>
<text text-anchor="middle" x="238.8" y="-101.3" font-family="Times,serif" font-size="14.00">(2)</text>
</g>
<!-- internal_2&#45;&gt;leaf_0x6970 -->
<g id="edge5" class="edge">
<title>internal_2&#45;&gt;leaf_0x6970</title>
<path fill="none" stroke="black" d="M223.77,-89.96C209.8,-76.92 188.74,-57.24 172.33,-41.92"/>
<polygon fill="black" stroke="black" points="174.4,-39.06 164.7,-34.79 169.62,-44.18 174.4,-39.06"/>
<text text-anchor="middle" x="203.8" y="-57.8" font-family="Times,serif" font-size="14.00">0</text>
</g>
<!-- internal_2&#45;&gt;leaf_0x7070 -->
<g id="edge6" class="edge">
<title>internal_2&#45;&gt;leaf_0x7070</title>
<path fill="none" stroke="black" d="M242.44,-86.8C244.9,-75.16 248.21,-59.55 251.03,-46.24"/>
<polygon fill="black" stroke="black" points="254.51,-46.68 253.16,-36.18 247.66,-45.23 254.51,-46.68"/>
<text text-anchor="middle" x="253.8" y="-57.8" font-family="Times,serif" font-size="14.00">1</text>
</g>
<!-- leaf_0x7373 -->
<g id="node10" class="node">
<title>leaf_0x7373</title>
<ellipse fill="none" stroke="black" cx="328.8" cy="-105" rx="44.69" ry="18"/>
<text text-anchor="middle" x="328.8" y="-101.3" font-family="Times,serif" font-size="14.00">&quot;ss&quot; (2)</text>
</g>
<!-- internal_3 -->
<g id="node11" class="node">
<title>internal_3</title>
<ellipse fill="none" stroke="black" cx="328.8" cy="-192" rx="27" ry="18"/>
<text text-anchor="middle" x="328.8" y="-188.3" font-family="Times,serif" font-size="14.00">(4)</text>
</g>
<!-- internal_3&#45;&gt;internal_2 -->
<g id="edge8" class="edge">
<title>internal_3&#45;&gt;internal_2</title>
<path fill="none" stroke="black" d="M313.93,-176.96C299.6,-163.43 277.73,-142.77 261.27,-127.22"/>
<polygon fill="black" stroke="black" points="263.35,-124.38 253.68,-120.06 258.55,-129.47 263.35,-124.38"/>
<text text-anchor="middle" x="293.8" y="-144.8" font-family="Times,serif" font-size="14.00">1</text>
</g>
<!-- internal_3&#45;&gt;leaf_0x7373 -->
<g id="edge7" class="edge">
<title>internal_3&#45;&gt;leaf_0x7373</title>
<path fill="none" stroke="black" d="M328.8,-173.8C328.8,-162.16 328.8,-146.55 328.8,-133.24"/>
<polygon fill="black" stroke="black" points="332.3,-133.18 328.8,-123.18 325.3,-133.18 332.3,-133.18"/>
<text text-anchor="middle" x="333.8" y="-144.8" font-family="Times,serif" font-size="14.00">0</text>
</g>
<!-- leaf_0x7369 -->
<g id="node12" class="node">
<title>leaf_0x7369</title>
<ellipse fill="none" stroke="black" cx="506.8" cy="-105" rx="42.79" ry="18"/>
<text text-anchor="middle" x="506.8" y="-101.3" font-family="Times,serif" font-size="14.00">&quot;si&quot; (2)</text>
</g>
<!-- internal_4 -->
<g id="node13" class="node">
<title>internal_4</title>
<ellipse fill="none" stroke="black" cx="418.8" cy="-192" rx="27" ry="18"/>
<text text-anchor="middle" x="418.8" y="-188.3" font-family="Times,serif" font-size="14.00">(4)</text>
</g>
<!-- internal_4&#45;&gt;internal_0 -->
<g id="edge10" class="edge">
<title>internal_4&#45;&gt;internal_0</title>
<path fill="none" stroke="black" d="M418.8,-173.8C418.8,-162.16 418.8,-146.55 418.8,-133.24"/>
<polygon fill="black" stroke="black" points="422.3,-133.18 418.8,-123.18 415.3,-133.18 422.3,-133.18"/>
<text text-anchor="middle" x="423.8" y="-144.8" font-family="Times,serif" font-size="14.00">1</text>
</g>
<!-- internal_4&#45;&gt;leaf_0x7369 -->
<g id="edge9" class="edge">
<title>internal_4&#45;&gt;leaf_0x7369</title>
<path fill="none" stroke="black" d="M433.72,-176.58C447.21,-163.56 467.29,-144.16 482.99,-129"/>
<polygon fill="black" stroke="black" points="485.53,-131.4 490.3,-121.94 480.67,-126.37 485.53,-131.4"/>
<text text-anchor="middle" x="472.8" y="-144.8" font-family="Times,serif" font-size="14.00">0</text>
</g>
<!-- leaf_0x6973 -->
<g id="node14" class="node">
<title>leaf_0x6973</title>
<ellipse fill="none" stroke="black" cx="240.8" cy="-192" rx="42.79" ry="18"/>
<text text-anchor="middle" x="240.8" y="-188.3" font-family="Times,serif" font-size="14.00">&quot;is&quot; (3)</text>
</g>
<!-- internal_5 -->
<g id="node15" class="node">
<title>internal_5</title>
<ellipse fill="none" stroke="black" cx="240.8" cy="-279" rx="27" ry="18"/>
<text text-anchor="middle" x="240.8" y="-275.3" font-family="Times,serif" font-size="14.00">(5)</text>
</g>
<!-- internal_5&#45;&gt;internal_1 -->
<g id="edge11" class="edge">
<title>internal_5&#45;&gt;internal_1</title>
<path fill="none" stroke="black" d="M225.87,-263.58C211.88,-250.07 190.79,-229.7 174.86,-214.31"/>
<polygon fill="black" stroke="black" points="177.13,-211.64 167.5,-207.21 172.26,-216.67 177.13,-211.64"/>
<text text-anchor="middle" x="207.8" y="-231.8" font-family="Times,serif" font-size="14.00">0</text>
</g>
<!-- internal_5&#45;&gt;leaf_0x6973 -->
<g id="edge12" class="edge">
<title>internal_5&#45;&gt;leaf_0x6973</title>
<path fill="none" stroke="black" d="M240.8,-260.8C240.8,-249.16 240.8,-233.55 240.8,-220.24"/>
<polygon fill="black" stroke="black" points="244.3,-220.18 240.8,-210.18 237.3,-220.18 244.3,-220.18"/>
<text text-anchor="middle" x="245.8" y="-231.8" font-family="Times,serif" font-size="14.00">1</text>
</g>
<!-- internal_6 -->
<g id="node16" class="node">
<title>internal_6</title>
<ellipse fill="none" stroke="black" cx="328.8" cy="-279" rx="27" ry="18"/>
<text text-anchor="middle" x="328.8" y="-275.3" font-family="Times,serif" font-size="14.00">(8)</text>
</g>
<!-- internal_6&#45;&gt;internal_3 -->
<g id="edge13" class="edge">
<title>internal_6&#45;&gt;internal_3</title>
<path fill="none" stroke="black" d="M328.8,-260.8C328.8,-249.16 328.8,-233.55 328.8,-220.24"/>
<polygon fill="black" stroke="black" points="332.3,-220.18 328.8,-210.18 325.3,-220.18 332.3,-220.18"/>
<text text-anchor="middle" x="333.8" y="-231.8" font-family="Times,serif" font-size="14.00">0</text>
</g>
<!-- internal_6&#45;&gt;internal_4 -->
<g id="edge14" class="edge">
<title>internal_6&#45;&gt;internal_4</title>
<path fill="none" stroke="black" d="M343.66,-263.96C357.99,-250.43 379.87,-229.77 396.32,-214.22"/>
<polygon fill="black" stroke="black" points="399.05,-216.47 403.91,-207.06 394.24,-211.38 399.05,-216.47"/>
<text text-anchor="middle" x="383.8" y="-231.8" font-family="Times,serif" font-size="14.00">1</text>
</g>
<!-- internal_7 -->
<g id="node17" class="node">
<title>internal_7</title>
<ellipse fill="none" stroke="black" cx="283.8" cy="-366" rx="29.5" ry="18"/>
<text text-anchor="middle" x="283.8" y="-362.3" font-family="Times,serif" font-size="14.00">(13)</text>
</g>
<!-- internal_7&#45;&gt;internal_5 -->
<g id="edge15" class="edge">
<title>internal_7&#45;&gt;internal_5</title>
<path fill="none" stroke="black" d="M275.51,-348.61C269.32,-336.38 260.75,-319.44 253.67,-305.46"/>
<polygon fill="black" stroke="black" points="256.7,-303.68 249.06,-296.34 250.45,-306.84 256.7,-303.68"/>
<text text-anchor="middle" x="269.8" y="-318.8" font-family="Times,serif" font-size="14.00">0</text>
</g>
<!-- internal_7&#45;&gt;internal_6 -->
<g id="edge16" class="edge">
<title>internal_7&#45;&gt;internal_6</title>
<path fill="none" stroke="black" d="M292.47,-348.61C298.95,-336.38 307.91,-319.44 315.32,-305.46"/>
<polygon fill="black" stroke="black" points="318.56,-306.81 320.15,-296.34 312.37,-303.54 318.56,-306.81"/>
<text text-anchor="middle" x="313.8" y="-318.8" font-family="Times,serif" font-size="14.00">1</text>
</g>
</g>
</svg>
