<?xml version="1.0" encoding="UTF-8" standalone="no"?>
<!DOCTYPE svg PUBLIC "-//W3C//DTD SVG 1.1//EN"
 "http://www.w3.org/Graphics/SVG/1.1/DTD/svg11.dtd">
<!-- Generated by graphviz version 2.43.0 (0)
 -->
<!-- Title: %3 Pages: 1 -->
<svg width="2239pt" height="479pt"
 viewBox="0.00 0.00 2239.04 479.00" xmlns="http://www.w3.org/2000/svg" xmlns:xlink="http://www.w3.org/1999/xlink">
<g id="graph0" class="graph" transform="scale(1 1) rotate(0) translate(4 475)">
<title>%3</title>
<polygon fill="white" stroke="transparent" points="-4,4 -4,-475 2235.04,-475 2235.04,4 -4,4"/>
<!-- leaf_0x7273 -->
<g id="node1" class="node">
<title>leaf_0x7273</title>
<ellipse fill="none" stroke="black" cx="578.55" cy="-18" rx="44.39" ry="18"/>
<text text-anchor="middle" x="578.55" y="-14.3" font-family="Times,serif" font-size="14.00">&quot;rs&quot; (1)</text>
</g>
<!-- leaf_0x6172 -->
<g id="node2" class="node">
<title>leaf_0x6172</title>
<ellipse fill="none" stroke="black" cx="685.55" cy="-18" rx="44.69" ry="18"/>
<text text-anchor="middle" x="685.55" y="-14.3" font-family="Times,serif" font-size="14.00">&quot;ar&quot; (1)</text>
</g>
<!-- internal_0 -->
<g id="node3" class="node">
<title>internal_0</title>
<ellipse fill="none" stroke="black" cx="685.55" cy="-105" rx="27" ry="18"/>
<text text-anchor="middle" x="685.55" y="-101.3" font-family="Times,serif" font-size="14.00">(2)</text>
</g>
<!-- internal_0&#45;&gt;leaf_0x7273 -->
<g id="edge1" class="edge">
<title>internal_0&#45;&gt;leaf_0x7273</title>
<path fill="none" stroke="black" d="M668.83,-90.72C652.06,-77.4 625.95,-56.66 606.12,-40.9"/>
<polygon fill="black" stroke="black" points="608.05,-37.97 598.05,-34.49 603.7,-43.45 608.05,-37.97"/>
<text text-anchor="middle" x="643.55" y="-57.8" font-family="Times,serif" font-size="14.00">0</text>
</g>
<!-- internal_0&#45;&gt;leaf_0x6172 -->
<g id="edge2" class="edge">
<title>internal_0&#45;&gt;leaf_0x6172</title>
<path fill="none" stroke="black" d="M685.55,-86.8C685.55,-75.16 685.55,-59.55 685.55,-46.24"/>
<polygon fill="black" stroke="black" points="689.05,-46.18 685.55,-36.18 682.05,-46.18 689.05,-46.18"/>
<text text-anchor="middle" x="690.55" y="-57.8" font-family="Times,serif" font-size="14.00">1</text>
</g>
<!-- leaf_0x6368 -->
<g id="node4" class="node">
<title>leaf_0x6368</title>
<ellipse fill="none" stroke="black" cx="476.55" cy="-105" rx="46.29" ry="18"/>
<text text-anchor="middle" x="476.55" y="-101.3" font-family="Times,serif" font-size="14.00">&quot;ch&quot; (1)</text>
</g>
<!-- leaf_0x6d62 -->
<g id="node5" class="node">
<title>leaf_0x6d62</title>
<ellipse fill="none" stroke="black" cx="590.55" cy="-105" rx="50.09" ry="18"/>
<text text-anchor="middle" x="590.55" y="-101.3" font-family="Times,serif" font-size="14.00">&quot;mb&quot; (1)</text>
</g>
<!-- internal_1 -->
<g id="node6" class="node">
<title>internal_1</title>
<ellipse fill="none" stroke="black" cx="590.55" cy="-192" rx="27" ry="18"/>
<text text-anchor="middle" x="590.55" y="-188.3" font-family="Times,serif" font-size="14.00">(2)</text>
</g>
<!-- internal_1&#45;&gt;leaf_0x6368 -->
<g id="edge3" class="edge">
<title>internal_1&#45;&gt;leaf_0x6368</title>
<path fill="none" stroke="black" d="M573.23,-178.09C555.2,-164.64 526.64,-143.35 505.22,-127.38"/>
<polygon fill="black" stroke="black" points="507.23,-124.51 497.12,-121.34 503.04,-130.12 507.23,-124.51"/>
<text text-anchor="middle" x="545.55" y="-144.8" font-family="Times,serif" font-size="14.00">0</text>
</g>
<!-- internal_1&#45;&gt;leaf_0x6d62 -->
<g id="edge4" class="edge">
<title>internal_1&#45;&gt;leaf_0x6d62</title>
<path fill="none" stroke="black" d="M590.55,-173.8C590.55,-162.16 590.55,-146.55 590.55,-133.24"/>
<polygon fill="black" stroke="black" points="594.05,-133.18 590.55,-123.18 587.05,-133.18 594.05,-133.18"/>
<text text-anchor="middle" x="595.55" y="-144.8" font-family="Times,serif" font-size="14.00">1</text>
</g>
<!-- leaf_0x6e20 -->
<g id="node7" class="node">
<title>leaf_0x6e20</title>
<ellipse fill="none" stroke="black" cx="792.55" cy="-18" rx="44.39" ry="18"/>
<text text-anchor="middle" x="792.55" y="-14.3" font-family="Times,serif" font-size="14.00">&quot;n &quot; (1)</text>
</g>
<!-- leaf_0x2061 -->
<g id="node8" class="node">
<title>leaf_0x2061</title>
<ellipse fill="none" stroke="black" cx="898.55" cy="-18" rx="43.59" ry="18"/>
<text text-anchor="middle" x="898.55" y="-14.3" font-family="Times,serif" font-size="14.00">&quot; a&quot; (1)</text>
</g>
<!-- internal_2 -->
<g id="node9" class="node">
<title>internal_2</title>
<ellipse fill="none" stroke="black" cx="898.55" cy="-105" rx="27" ry="18"/>
<text text-anchor="middle" x="898.55" y="-101.3" font-family="Times,serif" font-size="14.00">(2)</text>
</g>
<!-- internal_2&#45;&gt;leaf_0x6e20 -->
<g id="edge5" class="edge">
<title>internal_2&#45;&gt;leaf_0x6e20</title>
<path fill="none" stroke="black" d="M881.98,-90.72C865.37,-77.4 839.51,-56.66 819.86,-40.9"/>
<polygon fill="black" stroke="black" points="821.86,-38.02 811.86,-34.49 817.48,-43.48 821.86,-38.02"/>
<text text-anchor="middle" x="857.55" y="-57.8" font-family="Times,serif" font-size="14.00">0</text>
</g>
<!-- internal_2&#45;&gt;leaf_0x2061 -->
<g id="edge6" class="edge">
<title>internal_2&#45;&gt;leaf_0x2061</title>
<path fill="none" stroke="black" d="M898.55,-86.8C898.55,-75.16 898.55,-59.55 898.55,-46.24"/>
<polygon fill="black" stroke="black" points="902.05,-46.18 898.55,-36.18 895.05,-46.18 902.05,-46.18"/>
<text text-anchor="middle" x="903.55" y="-57.8" font-family="Times,serif" font-size="14.00">1</text>
</g>
<!-- leaf_0x6520 -->
<g id="node10" class="node">
<title>leaf_0x6520</title>
<ellipse fill="none" stroke="black" cx="43.55" cy="-105" rx="43.59" ry="18"/>
<text text-anchor="middle" x="43.55" y="-101.3" font-family="Times,serif" font-size="14.00">&quot;e &quot; (1)</text>
</g>
<!-- leaf_0x656e -->
<g id="node11" class="node">
<title>leaf_0x656e</title>
<ellipse fill="none" stroke="black" cx="151.55" cy="-105" rx="46.29" ry="18"/>
<text text-anchor="middle" x="151.55" y="-101.3" font-family="Times,serif" font-size="14.00">&quot;en&quot; (1)</text>
</g>
<!-- internal_3 -->
<g id="node12" class="node">
<title>internal_3</title>
<ellipse fill="none" stroke="black" cx="151.55" cy="-192" rx="27" ry="18"/>
<text text-anchor="middle" x="151.55" y="-188.3" font-family="Times,serif" font-size="14.00">(2)</text>
</g>
<!-- internal_3&#45;&gt;leaf_0x6520 -->
<g id="edge7" class="edge">
<title>internal_3&#45;&gt;leaf_0x6520</title>
<path fill="none" stroke="black" d="M134.67,-177.72C117.57,-164.26 90.84,-143.22 70.74,-127.4"/>
<polygon fill="black" stroke="black" points="72.88,-124.63 62.85,-121.2 68.55,-130.13 72.88,-124.63"/>
<text text-anchor="middle" x="109.55" y="-144.8" font-family="Times,serif" font-size="14.00">0</text>
</g>
<!-- internal_3&#45;&gt;leaf_0x656e -->
<g id="edge8" class="edge">
<title>internal_3&#45;&gt;leaf_0x656e</title>
<path fill="none" stroke="black" d="M151.55,-173.8C151.55,-162.16 151.55,-146.55 151.55,-133.24"/>
<polygon fill="black" stroke="black" points="155.05,-133.18 151.55,-123.18 148.05,-133.18 155.05,-133.18"/>
<text text-anchor="middle" x="156.55" y="-144.8" font-family="Times,serif" font-size="14.00">1</text>
</g>
<!-- leaf_0x6169 -->
<g id="node13" class="node">
<title>leaf_0x6169</title>
<ellipse fill="none" stroke="black" cx="259.55" cy="-105" rx="43.59" ry="18"/>
<text text-anchor="middle" x="259.55" y="-101.3" font-family="Times,serif" font-size="14.00">&quot;ai&quot; (1)</text>
</g>
<!-- leaf_0x6163 -->
<g id="node14" class="node">
<title>leaf_0x6163</title>
<ellipse fill="none" stroke="black" cx="366.55" cy="-105" rx="45.49" ry="18"/>
<text text-anchor="middle" x="366.55" y="-101.3" font-family="Times,serif" font-size="14.00">&quot;ac&quot; (1)</text>
</g>
<!-- internal_4 -->
<g id="node15" class="node">
<title>internal_4</title>
<ellipse fill="none" stroke="black" cx="313.55" cy="-192" rx="27" ry="18"/>
<text text-anchor="middle" x="313.55" y="-188.3" font-family="Times,serif" font-size="14.00">(2)</text>
</g>
<!-- internal_4&#45;&gt;leaf_0x6169 -->
<g id="edge9" class="edge">
<title>internal_4&#45;&gt;leaf_0x6169</title>
<path fill="none" stroke="black" d="M303.39,-175.01C295.57,-162.7 284.61,-145.46 275.61,-131.28"/>
<polygon fill="black" stroke="black" points="278.34,-129.06 270.03,-122.5 272.43,-132.81 278.34,-129.06"/>
<text text-anchor="middle" x="295.55" y="-144.8" font-family="Times,serif" font-size="14.00">0</text>
</g>
<!-- internal_4&#45;&gt;leaf_0x6163 -->
<g id="edge10" class="edge">
<title>internal_4&#45;&gt;leaf_0x6163</title>
<path fill="none" stroke="black" d="M323.52,-175.01C331.14,-162.78 341.81,-145.68 350.61,-131.56"/>
<polygon fill="black" stroke="black" points="353.76,-133.13 356.08,-122.79 347.82,-129.42 353.76,-133.13"/>
<text text-anchor="middle" x="348.55" y="-144.8" font-family="Times,serif" font-size="14.00">1</text>
</g>
<!-- leaf_0x2073 -->
<g id="node16" class="node">
<title>leaf_0x2073</title>
<ellipse fill="none" stroke="black" cx="1648.55" cy="-18" rx="42.79" ry="18"/>
<text text-anchor="middle" x="1648.55" y="-14.3" font-family="Times,serif" font-size="14.00">&quot; s&quot; (1)</text>
</g>
<!-- leaf_0x6e74 -->
<g id="node17" class="node">
<title>leaf_0x6e74</title>
<ellipse fill="none" stroke="black" cx="1754.55" cy="-18" rx="44.69" ry="18"/>
<text text-anchor="middle" x="1754.55" y="-14.3" font-family="Times,serif" font-size="14.00">&quot;nt&quot; (1)</text>
</g>
<!-- internal_5 -->
<g id="node18" class="node">
<title>internal_5</title>
<ellipse fill="none" stroke="black" cx="1754.55" cy="-105" rx="27" ry="18"/>
<text text-anchor="middle" x="1754.55" y="-101.3" font-family="Times,serif" font-size="14.00">(2)</text>
</g>
<!-- internal_5&#45;&gt;leaf_0x2073 -->
<g id="edge11" class="edge">
<title>internal_5&#45;&gt;leaf_0x2073</title>
<path fill="none" stroke="black" d="M1737.98,-90.72C1721.27,-77.32 1695.19,-56.41 1675.5,-40.61"/>
<polygon fill="black" stroke="black" points="1677.49,-37.72 1667.5,-34.2 1673.11,-43.18 1677.49,-37.72"/>
<text text-anchor="middle" x="1713.55" y="-57.8" font-family="Times,serif" font-size="14.00">0</text>
</g>
<!-- internal_5&#45;&gt;leaf_0x6e74 -->
<g id="edge12" class="edge">
<title>internal_5&#45;&gt;leaf_0x6e74</title>
<path fill="none" stroke="black" d="M1754.55,-86.8C1754.55,-75.16 1754.55,-59.55 1754.55,-46.24"/>
<polygon fill="black" stroke="black" points="1758.05,-46.18 1754.55,-36.18 1751.05,-46.18 1758.05,-46.18"/>
<text text-anchor="middle" x="1759.55" y="-57.8" font-family="Times,serif" font-size="14.00">1</text>
</g>
<!-- leaf_0x6e63 -->
<g id="node19" class="node">
<title>leaf_0x6e63</title>
<ellipse fill="none" stroke="black" cx="2075.55" cy="-18" rx="46.29" ry="18"/>
<text text-anchor="middle" x="2075.55" y="-14.3" font-family="Times,serif" font-size="14.00">&quot;nc&quot; (1)</text>
</g>
<!-- leaf_0x636f -->
<g id="node20" class="node">
<title>leaf_0x636f</title>
<ellipse fill="none" stroke="black" cx="2185.55" cy="-18" rx="45.49" ry="18"/>
<text text-anchor="middle" x="2185.55" y="-14.3" font-family="Times,serif" font-size="14.00">&quot;co&quot; (1)</text>
</g>
<!-- internal_6 -->
<g id="node21" class="node">
<title>internal_6</title>
<ellipse fill="none" stroke="black" cx="2075.55" cy="-105" rx="27" ry="18"/>
<text text-anchor="middle" x="2075.55" y="-101.3" font-family="Times,serif" font-size="14.00">(2)</text>
</g>
<!-- internal_6&#45;&gt;leaf_0x6e63 -->
<g id="edge13" class="edge">
<title>internal_6&#45;&gt;leaf_0x6e63</title>
<path fill="none" stroke="black" d="M2075.55,-86.8C2075.55,-75.16 2075.55,-59.55 2075.55,-46.24"/>
<polygon fill="black" stroke="black" points="2079.05,-46.18 2075.55,-36.18 2072.05,-46.18 2079.05,-46.18"/>
<text text-anchor="middle" x="2080.55" y="-57.8" font-family="Times,serif" font-size="14.00">0</text>
</g>
<!-- internal_6&#45;&gt;leaf_0x636f -->
<g id="edge14" class="edge">
<title>internal_6&#45;&gt;leaf_0x636f</title>
<path fill="none" stroke="black" d="M2092.73,-90.72C2110.05,-77.34 2137.05,-56.48 2157.47,-40.69"/>
<polygon fill="black" stroke="black" points="2159.73,-43.38 2165.5,-34.49 2155.45,-37.84 2159.73,-43.38"/>
<text text-anchor="middle" x="2142.55" y="-57.8" font-family="Times,serif" font-size="14.00">1</text>
</g>
<!-- leaf_0x6e73 -->
<g id="node22" class="node">
<title>leaf_0x6e73</title>
<ellipse fill="none" stroke="black" cx="1863.55" cy="-18" rx="46.29" ry="18"/>
<text text-anchor="middle" x="1863.55" y="-14.3" font-family="Times,serif" font-size="14.00">&quot;ns&quot; (1)</text>
</g>
<!-- leaf_0x6620 -->
<g id="node23" class="node">
<title>leaf_0x6620</title>
<ellipse fill="none" stroke="black" cx="1969.55" cy="-18" rx="41.69" ry="18"/>
<text text-anchor="middle" x="1969.55" y="-14.3" font-family="Times,serif" font-size="14.00">&quot;f &quot; (1)</text>
</g>
<!-- internal_7 -->
<g id="node24" class="node">
<title>internal_7</title>
<ellipse fill="none" stroke="black" cx="1863.55" cy="-105" rx="27" ry="18"/>
<text text-anchor="middle" x="1863.55" y="-101.3" font-family="Times,serif" font-size="14.00">(2)</text>
</g>
<!-- internal_7&#45;&gt;leaf_0x6e73 -->
<g id="edge15" class="edge">
<title>internal_7&#45;&gt;leaf_0x6e73</title>
<path fill="none" stroke="black" d="M1863.55,-86.8C1863.55,-75.16 1863.55,-59.55 1863.55,-46.24"/>
<polygon fill="black" stroke="black" points="1867.05,-46.18 1863.55,-36.18 1860.05,-46.18 1867.05,-46.18"/>
<text text-anchor="middle" x="1868.55" y="-57.8" font-family="Times,serif" font-size="14.00">0</text>
</g>
<!-- internal_7&#45;&gt;leaf_0x6620 -->
<g id="edge16" class="edge">
<title>internal_7&#45;&gt;leaf_0x6620</title>
<path fill="none" stroke="black" d="M1880.11,-90.72C1896.82,-77.32 1922.9,-56.41 1942.59,-40.61"/>
<polygon fill="black" stroke="black" points="1944.98,-43.18 1950.6,-34.2 1940.6,-37.72 1944.98,-43.18"/>
<text text-anchor="middle" x="1928.55" y="-57.8" font-family="Times,serif" font-size="14.00">1</text>
</g>
<!-- leaf_0x6572 -->
<g id="node25" class="node">
<title>leaf_0x6572</title>
<ellipse fill="none" stroke="black" cx="1220.55" cy="-18" rx="44.69" ry="18"/>
<text text-anchor="middle" x="1220.55" y="-14.3" font-family="Times,serif" font-size="14.00">&quot;er&quot; (1)</text>
</g>
<!-- leaf_0x6973 -->
<g id="node26" class="node">
<title>leaf_0x6973</title>
<ellipse fill="none" stroke="black" cx="1326.55" cy="-18" rx="42.79" ry="18"/>
<text text-anchor="middle" x="1326.55" y="-14.3" font-family="Times,serif" font-size="14.00">&quot;is&quot; (1)</text>
</g>
<!-- internal_8 -->
<g id="node27" class="node">
<title>internal_8</title>
<ellipse fill="none" stroke="black" cx="1306.55" cy="-105" rx="27" ry="18"/>
<text text-anchor="middle" x="1306.55" y="-101.3" font-family="Times,serif" font-size="14.00">(2)</text>
</g>
<!-- internal_8&#45;&gt;leaf_0x6572 -->
<g id="edge17" class="edge">
<title>internal_8&#45;&gt;leaf_0x6572</title>
<path fill="none" stroke="black" d="M1291.96,-89.58C1278.78,-76.56 1259.16,-57.16 1243.81,-42"/>
<polygon fill="black" stroke="black" points="1246.24,-39.48 1236.67,-34.94 1241.32,-44.46 1246.24,-39.48"/>
<text text-anchor="middle" x="1274.55" y="-57.8" font-family="Times,serif" font-size="14.00">0</text>
</g>
<!-- internal_8&#45;&gt;leaf_0x6973 -->
<g id="edge18" class="edge">
<title>internal_8&#45;&gt;leaf_0x6973</title>
<path fill="none" stroke="black" d="M1310.59,-86.8C1313.33,-75.16 1317.01,-59.55 1320.14,-46.24"/>
<polygon fill="black" stroke="black" points="1323.62,-46.71 1322.5,-36.18 1316.81,-45.11 1323.62,-46.71"/>
<text text-anchor="middle" x="1323.55" y="-57.8" font-family="Times,serif" font-size="14.00">1</text>
</g>
<!-- leaf_0x5468 -->
<g id="node28" class="node">
<title>leaf_0x5468</title>
<ellipse fill="none" stroke="black" cx="1434.55" cy="-18" rx="46.59" ry="18"/>
<text text-anchor="middle" x="1434.55" y="-14.3" font-family="Times,serif" font-size="14.00">&quot;Th&quot; (1)</text>
</g>
<!-- leaf_0x6420 -->
<g id="node29" class="node">
<title>leaf_0x6420</title>
<ellipse fill="none" stroke="black" cx="1543.55" cy="-18" rx="44.39" ry="18"/>
<text text-anchor="middle" x="1543.55" y="-14.3" font-family="Times,serif" font-size="14.00">&quot;d &quot; (1)</text>
</g>
<!-- internal_9 -->
<g id="node30" class="node">
<title>internal_9</title>
<ellipse fill="none" stroke="black" cx="1434.55" cy="-105" rx="27" ry="18"/>
<text text-anchor="middle" x="1434.55" y="-101.3" font-family="Times,serif" font-size="14.00">(2)</text>
</g>
<!-- internal_9&#45;&gt;leaf_0x5468 -->
<g id="edge19" class="edge">
<title>internal_9&#45;&gt;leaf_0x5468</title>
<path fill="none" stroke="black" d="M1434.55,-86.8C1434.55,-75.16 1434.55,-59.55 1434.55,-46.24"/>
<polygon fill="black" stroke="black" points="1438.05,-46.18 1434.55,-36.18 1431.05,-46.18 1438.05,-46.18"/>
<text text-anchor="middle" x="1439.55" y="-57.8" font-family="Times,serif" font-size="14.00">0</text>
</g>
<!-- internal_9&#45;&gt;leaf_0x6420 -->
<g id="edge20" class="edge">
<title>internal_9&#45;&gt;leaf_0x6420</title>
<path fill="none" stroke="black" d="M1451.58,-90.72C1468.84,-77.26 1495.82,-56.22 1516.1,-40.4"/>
<polygon fill="black" stroke="black" points="1518.33,-43.11 1524.06,-34.2 1514.02,-37.59 1518.33,-43.11"/>
<text text-anchor="middle" x="1501.55" y="-57.8" font-family="Times,serif" font-size="14.00">1</text>
</g>
<!-- leaf_0x206f -->
<g id="node31" class="node">
<title>leaf_0x206f</title>
<ellipse fill="none" stroke="black" cx="1003.55" cy="-18" rx="43.59" ry="18"/>
<text text-anchor="middle" x="1003.55" y="-14.3" font-family="Times,serif" font-size="14.00">&quot; o&quot; (1)</text>
</g>
<!-- leaf_0x6f64 -->
<g id="node32" class="node">
<title>leaf_0x6f64</title>
<ellipse fill="none" stroke="black" cx="1111.55" cy="-18" rx="46.29" ry="18"/>
<text text-anchor="middle" x="1111.55" y="-14.3" font-family="Times,serif" font-size="14.00">&quot;od&quot; (1)</text>
</g>
<!-- internal_10 -->
<g id="node33" class="node">
<title>internal_10</title>
<ellipse fill="none" stroke="black" cx="1043.55" cy="-105" rx="27" ry="18"/>
<text text-anchor="middle" x="1043.55" y="-101.3" font-family="Times,serif" font-size="14.00">(2)</text>
</g>
<!-- internal_10&#45;&gt;leaf_0x206f -->
<g id="edge21" class="edge">
<title>internal_10&#45;&gt;leaf_0x206f</title>
<path fill="none" stroke="black" d="M1035.83,-87.61C1030.15,-75.54 1022.31,-58.88 1015.78,-45"/>
<polygon fill="black" stroke="black" points="1018.93,-43.48 1011.51,-35.92 1012.6,-46.46 1018.93,-43.48"/>
<text text-anchor="middle" x="1031.55" y="-57.8" font-family="Times,serif" font-size="14.00">0</text>
</g>
<!-- internal_10&#45;&gt;leaf_0x6f64 -->
<g id="edge22" class="edge">
<title>internal_10&#45;&gt;leaf_0x6f64</title>
<path fill="none" stroke="black" d="M1055.7,-88.8C1065.73,-76.27 1080.15,-58.24 1091.83,-43.65"/>
<polygon fill="black" stroke="black" points="1094.82,-45.51 1098.33,-35.52 1089.35,-41.14 1094.82,-45.51"/>
<text text-anchor="middle" x="1087.55" y="-57.8" font-family="Times,serif" font-size="14.00">1</text>
</g>
<!-- leaf_0x6e75 -->
<g id="node34" class="node">
<title>leaf_0x6e75</title>
<ellipse fill="none" stroke="black" cx="777.55" cy="-105" rx="46.59" ry="18"/>
<text text-anchor="middle" x="777.55" y="-101.3" font-family="Times,serif" font-size="14.00">&quot;nu&quot; (1)</text>
</g>
<!-- internal_11 -->
<g id="node35" class="node">
<title>internal_11</title>
<ellipse fill="none" stroke="black" cx="685.55" cy="-192" rx="27" ry="18"/>
<text text-anchor="middle" x="685.55" y="-188.3" font-family="Times,serif" font-size="14.00">(3)</text>
</g>
<!-- internal_11&#45;&gt;internal_0 -->
<g id="edge24" class="edge">
<title>internal_11&#45;&gt;internal_0</title>
<path fill="none" stroke="black" d="M685.55,-173.8C685.55,-162.16 685.55,-146.55 685.55,-133.24"/>
<polygon fill="black" stroke="black" points="689.05,-133.18 685.55,-123.18 682.05,-133.18 689.05,-133.18"/>
<text text-anchor="middle" x="690.55" y="-144.8" font-family="Times,serif" font-size="14.00">1</text>
</g>
<!-- internal_11&#45;&gt;leaf_0x6e75 -->
<g id="edge23" class="edge">
<title>internal_11&#45;&gt;leaf_0x6e75</title>
<path fill="none" stroke="black" d="M700.74,-176.96C714.86,-163.92 736.15,-144.24 752.74,-128.92"/>
<polygon fill="black" stroke="black" points="755.48,-131.15 760.45,-121.79 750.73,-126.01 755.48,-131.15"/>
<text text-anchor="middle" x="742.55" y="-144.8" font-family="Times,serif" font-size="14.00">0</text>
</g>
<!-- internal_12 -->
<g id="node36" class="node">
<title>internal_12</title>
<ellipse fill="none" stroke="black" cx="1043.55" cy="-192" rx="27" ry="18"/>
<text text-anchor="middle" x="1043.55" y="-188.3" font-family="Times,serif" font-size="14.00">(4)</text>
</g>
<!-- internal_12&#45;&gt;internal_2 -->
<g id="edge25" class="edge">
<title>internal_12&#45;&gt;internal_2</title>
<path fill="none" stroke="black" d="M1023.99,-179.54C999.02,-164.9 955.62,-139.46 926.99,-122.67"/>
<polygon fill="black" stroke="black" points="928.65,-119.59 918.25,-117.55 925.11,-125.63 928.65,-119.59"/>
<text text-anchor="middle" x="985.55" y="-144.8" font-family="Times,serif" font-size="14.00">0</text>
</g>
<!-- internal_12&#45;&gt;internal_10 -->
<g id="edge26" class="edge">
<title>internal_12&#45;&gt;internal_10</title>
<path fill="none" stroke="black" d="M1043.55,-173.8C1043.55,-162.16 1043.55,-146.55 1043.55,-133.24"/>
<polygon fill="black" stroke="black" points="1047.05,-133.18 1043.55,-123.18 1040.05,-133.18 1047.05,-133.18"/>
<text text-anchor="middle" x="1048.55" y="-144.8" font-family="Times,serif" font-size="14.00">1</text>
</g>
<!-- internal_13 -->
<g id="node37" class="node">
<title>internal_13</title>
<ellipse fill="none" stroke="black" cx="313.55" cy="-279" rx="27" ry="18"/>
<text text-anchor="middle" x="313.55" y="-275.3" font-family="Times,serif" font-size="14.00">(4)</text>
</g>
<!-- internal_13&#45;&gt;internal_3 -->
<g id="edge28" class="edge">
<title>internal_13&#45;&gt;internal_3</title>
<path fill="none" stroke="black" d="M293.03,-267.23C264.74,-252.39 213.6,-225.56 181.17,-208.54"/>
<polygon fill="black" stroke="black" points="182.63,-205.36 172.15,-203.81 179.38,-211.56 182.63,-205.36"/>
<text text-anchor="middle" x="247.55" y="-231.8" font-family="Times,serif" font-size="14.00">1</text>
</g>
<!-- internal_13&#45;&gt;internal_4 -->
<g id="edge27" class="edge">
<title>internal_13&#45;&gt;internal_4</title>
<path fill="none" stroke="black" d="M313.55,-260.8C313.55,-249.16 313.55,-233.55 313.55,-220.24"/>
<polygon fill="black" stroke="black" points="317.05,-220.18 313.55,-210.18 310.05,-220.18 317.05,-220.18"/>
<text text-anchor="middle" x="318.55" y="-231.8" font-family="Times,serif" font-size="14.00">0</text>
</g>
<!-- internal_14 -->
<g id="node38" class="node">
<title>internal_14</title>
<ellipse fill="none" stroke="black" cx="1822.55" cy="-192" rx="27" ry="18"/>
<text text-anchor="middle" x="1822.55" y="-188.3" font-family="Times,serif" font-size="14.00">(4)</text>
</g>
<!-- internal_14&#45;&gt;internal_5 -->
<g id="edge29" class="edge">
<title>internal_14&#45;&gt;internal_5</title>
<path fill="none" stroke="black" d="M1810.39,-175.8C1800.11,-162.95 1785.2,-144.32 1773.38,-129.54"/>
<polygon fill="black" stroke="black" points="1775.81,-126.97 1766.83,-121.35 1770.34,-131.35 1775.81,-126.97"/>
<text text-anchor="middle" x="1798.55" y="-144.8" font-family="Times,serif" font-size="14.00">0</text>
</g>
<!-- internal_14&#45;&gt;internal_7 -->
<g id="edge30" class="edge">
<title>internal_14&#45;&gt;internal_7</title>
<path fill="none" stroke="black" d="M1830.45,-174.61C1836.35,-162.38 1844.52,-145.44 1851.27,-131.46"/>
<polygon fill="black" stroke="black" points="1854.47,-132.87 1855.67,-122.34 1848.17,-129.82 1854.47,-132.87"/>
<text text-anchor="middle" x="1850.55" y="-144.8" font-family="Times,serif" font-size="14.00">1</text>
</g>
<!-- leaf_0x7465 -->
<g id="node39" class="node">
<title>leaf_0x7465</title>
<ellipse fill="none" stroke="black" cx="2164.55" cy="-105" rx="44.39" ry="18"/>
<text text-anchor="middle" x="2164.55" y="-101.3" font-family="Times,serif" font-size="14.00">&quot;te&quot; (2)</text>
</g>
<!-- internal_15 -->
<g id="node40" class="node">
<title>internal_15</title>
<ellipse fill="none" stroke="black" cx="2075.55" cy="-192" rx="27" ry="18"/>
<text text-anchor="middle" x="2075.55" y="-188.3" font-family="Times,serif" font-size="14.00">(4)</text>
</g>
<!-- internal_15&#45;&gt;internal_6 -->
<g id="edge31" class="edge">
<title>internal_15&#45;&gt;internal_6</title>
<path fill="none" stroke="black" d="M2075.55,-173.8C2075.55,-162.16 2075.55,-146.55 2075.55,-133.24"/>
<polygon fill="black" stroke="black" points="2079.05,-133.18 2075.55,-123.18 2072.05,-133.18 2079.05,-133.18"/>
<text text-anchor="middle" x="2080.55" y="-144.8" font-family="Times,serif" font-size="14.00">0</text>
</g>
<!-- internal_15&#45;&gt;leaf_0x7465 -->
<g id="edge32" class="edge">
<title>internal_15&#45;&gt;leaf_0x7465</title>
<path fill="none" stroke="black" d="M2090.64,-176.58C2104.28,-163.56 2124.59,-144.16 2140.47,-129"/>
<polygon fill="black" stroke="black" points="2143.04,-131.38 2147.86,-121.94 2138.21,-126.31 2143.04,-131.38"/>
<text text-anchor="middle" x="2130.55" y="-144.8" font-family="Times,serif" font-size="14.00">1</text>
</g>
<!-- internal_16 -->
<g id="node41" class="node">
<title>internal_16</title>
<ellipse fill="none" stroke="black" cx="1306.55" cy="-192" rx="27" ry="18"/>
<text text-anchor="middle" x="1306.55" y="-188.3" font-family="Times,serif" font-size="14.00">(4)</text>
</g>
<!-- internal_16&#45;&gt;internal_8 -->
<g id="edge34" class="edge">
<title>internal_16&#45;&gt;internal_8</title>
<path fill="none" stroke="black" d="M1306.55,-173.8C1306.55,-162.16 1306.55,-146.55 1306.55,-133.24"/>
<polygon fill="black" stroke="black" points="1310.05,-133.18 1306.55,-123.18 1303.05,-133.18 1310.05,-133.18"/>
<text text-anchor="middle" x="1311.55" y="-144.8" font-family="Times,serif" font-size="14.00">1</text>
</g>
<!-- internal_16&#45;&gt;internal_9 -->
<g id="edge33" class="edge">
<title>internal_16&#45;&gt;internal_9</title>
<path fill="none" stroke="black" d="M1325.16,-178.64C1346.77,-164.29 1382.61,-140.49 1407.35,-124.06"/>
<polygon fill="black" stroke="black" points="1409.52,-126.82 1415.91,-118.37 1405.64,-120.99 1409.52,-126.82"/>
<text text-anchor="middle" x="1383.55" y="-144.8" font-family="Times,serif" font-size="14.00">0</text>
</g>
<!-- internal_17 -->
<g id="node42" class="node">
<title>internal_17</title>
<ellipse fill="none" stroke="black" cx="622.55" cy="-279" rx="27" ry="18"/>
<text text-anchor="middle" x="622.55" y="-275.3" font-family="Times,serif" font-size="14.00">(5)</text>
</g>
<!-- internal_17&#45;&gt;internal_1 -->
<g id="edge35" class="edge">
<title>internal_17&#45;&gt;internal_1</title>
<path fill="none" stroke="black" d="M616.22,-261.21C611.71,-249.22 605.55,-232.85 600.39,-219.16"/>
<polygon fill="black" stroke="black" points="603.65,-217.88 596.86,-209.76 597.1,-220.35 603.65,-217.88"/>
<text text-anchor="middle" x="613.55" y="-231.8" font-family="Times,serif" font-size="14.00">0</text>
</g>
<!-- internal_17&#45;&gt;internal_11 -->
<g id="edge36" class="edge">
<title>internal_17&#45;&gt;internal_11</title>
<path fill="none" stroke="black" d="M634.1,-262.41C643.6,-249.59 657.22,-231.22 668.06,-216.6"/>
<polygon fill="black" stroke="black" points="670.92,-218.61 674.06,-208.49 665.3,-214.44 670.92,-218.61"/>
<text text-anchor="middle" x="663.55" y="-231.8" font-family="Times,serif" font-size="14.00">1</text>
</g>
<!-- internal_18 -->
<g id="node43" class="node">
<title>internal_18</title>
<ellipse fill="none" stroke="black" cx="1214.55" cy="-279" rx="27" ry="18"/>
<text text-anchor="middle" x="1214.55" y="-275.3" font-family="Times,serif" font-size="14.00">(8)</text>
</g>
<!-- internal_18&#45;&gt;internal_12 -->
<g id="edge37" class="edge">
<title>internal_18&#45;&gt;internal_12</title>
<path fill="none" stroke="black" d="M1193.58,-267.58C1163.58,-252.67 1108.24,-225.16 1073.81,-208.04"/>
<polygon fill="black" stroke="black" points="1075.2,-204.82 1064.69,-203.51 1072.08,-211.09 1075.2,-204.82"/>
<text text-anchor="middle" x="1144.55" y="-231.8" font-family="Times,serif" font-size="14.00">0</text>
</g>
<!-- internal_18&#45;&gt;internal_16 -->
<g id="edge38" class="edge">
<title>internal_18&#45;&gt;internal_16</title>
<path fill="none" stroke="black" d="M1229.74,-263.96C1244.39,-250.43 1266.75,-229.77 1283.58,-214.22"/>
<polygon fill="black" stroke="black" points="1286.36,-216.41 1291.33,-207.06 1281.61,-211.27 1286.36,-216.41"/>
<text text-anchor="middle" x="1271.55" y="-231.8" font-family="Times,serif" font-size="14.00">1</text>
</g>
<!-- internal_19 -->
<g id="node44" class="node">
<title>internal_19</title>
<ellipse fill="none" stroke="black" cx="1822.55" cy="-279" rx="27" ry="18"/>
<text text-anchor="middle" x="1822.55" y="-275.3" font-family="Times,serif" font-size="14.00">(8)</text>
</g>
<!-- internal_19&#45;&gt;internal_14 -->
<g id="edge39" class="edge">
<title>internal_19&#45;&gt;internal_14</title>
<path fill="none" stroke="black" d="M1822.55,-260.8C1822.55,-249.16 1822.55,-233.55 1822.55,-220.24"/>
<polygon fill="black" stroke="black" points="1826.05,-220.18 1822.55,-210.18 1819.05,-220.18 1826.05,-220.18"/>
<text text-anchor="middle" x="1827.55" y="-231.8" font-family="Times,serif" font-size="14.00">0</text>
</g>
<!-- internal_19&#45;&gt;internal_15 -->
<g id="edge40" class="edge">
<title>internal_19&#45;&gt;internal_15</title>
<path fill="none" stroke="black" d="M1846.35,-270C1891.67,-254.78 1990.45,-221.59 2042.28,-204.18"/>
<polygon fill="black" stroke="black" points="2043.63,-207.42 2051.99,-200.91 2041.4,-200.78 2043.63,-207.42"/>
<text text-anchor="middle" x="1969.55" y="-231.8" font-family="Times,serif" font-size="14.00">1</text>
</g>
<!-- internal_20 -->
<g id="node45" class="node">
<title>internal_20</title>
<ellipse fill="none" stroke="black" cx="622.55" cy="-366" rx="27" ry="18"/>
<text text-anchor="middle" x="622.55" y="-362.3" font-family="Times,serif" font-size="14.00">(9)</text>
</g>
<!-- internal_20&#45;&gt;internal_13 -->
<g id="edge41" class="edge">
<title>internal_20&#45;&gt;internal_13</title>
<path fill="none" stroke="black" d="M598.04,-358.26C543.28,-343.19 410.85,-306.77 347.9,-289.45"/>
<polygon fill="black" stroke="black" points="348.62,-286.02 338.05,-286.74 346.77,-292.77 348.62,-286.02"/>
<text text-anchor="middle" x="492.55" y="-318.8" font-family="Times,serif" font-size="14.00">0</text>
</g>
<!-- internal_20&#45;&gt;internal_17 -->
<g id="edge42" class="edge">
<title>internal_20&#45;&gt;internal_17</title>
<path fill="none" stroke="black" d="M622.55,-347.8C622.55,-336.16 622.55,-320.55 622.55,-307.24"/>
<polygon fill="black" stroke="black" points="626.05,-307.18 622.55,-297.18 619.05,-307.18 626.05,-307.18"/>
<text text-anchor="middle" x="627.55" y="-318.8" font-family="Times,serif" font-size="14.00">1</text>
</g>
<!-- internal_21 -->
<g id="node46" class="node">
<title>internal_21</title>
<ellipse fill="none" stroke="black" cx="1214.55" cy="-366" rx="29.5" ry="18"/>
<text text-anchor="middle" x="1214.55" y="-362.3" font-family="Times,serif" font-size="14.00">(16)</text>
</g>
<!-- internal_21&#45;&gt;internal_18 -->
<g id="edge43" class="edge">
<title>internal_21&#45;&gt;internal_18</title>
<path fill="none" stroke="black" d="M1214.55,-347.8C1214.55,-336.16 1214.55,-320.55 1214.55,-307.24"/>
<polygon fill="black" stroke="black" points="1218.05,-307.18 1214.55,-297.18 1211.05,-307.18 1218.05,-307.18"/>
<text text-anchor="middle" x="1219.55" y="-318.8" font-family="Times,serif" font-size="14.00">0</text>
</g>
<!-- internal_21&#45;&gt;internal_19 -->
<g id="edge44" class="edge">
<title>internal_21&#45;&gt;internal_19</title>
<path fill="none" stroke="black" d="M1243.06,-361.01C1342.67,-347.09 1675.17,-300.6 1786.14,-285.09"/>
<polygon fill="black" stroke="black" points="1786.75,-288.54 1796.17,-283.69 1785.79,-281.61 1786.75,-288.54"/>
<text text-anchor="middle" x="1560.55" y="-318.8" font-family="Times,serif" font-size="14.00">1</text>
</g>
<!-- internal_22 -->
<g id="node47" class="node">
<title>internal_22</title>
<ellipse fill="none" stroke="black" cx="780.55" cy="-453" rx="29.5" ry="18"/>
<text text-anchor="middle" x="780.55" y="-449.3" font-family="Times,serif" font-size="14.00">(25)</text>
</g>
<!-- internal_22&#45;&gt;internal_20 -->
<g id="edge45" class="edge">
<title>internal_22&#45;&gt;internal_20</title>
<path fill="none" stroke="black" d="M759.24,-440.54C731.6,-425.67 683.26,-399.66 652.1,-382.9"/>
<polygon fill="black" stroke="black" points="653.48,-379.67 643.02,-378.01 650.17,-385.83 653.48,-379.67"/>
<text text-anchor="middle" x="716.55" y="-405.8" font-family="Times,serif" font-size="14.00">0</text>
</g>
<!-- internal_22&#45;&gt;internal_21 -->
<g id="edge46" class="edge">
<title>internal_22&#45;&gt;internal_21</title>
<path fill="none" stroke="black" d="M808.02,-446.62C883.05,-431.92 1091.47,-391.1 1177.09,-374.34"/>
<polygon fill="black" stroke="black" points="1177.77,-377.77 1186.91,-372.41 1176.42,-370.9 1177.77,-377.77"/>
<text text-anchor="middle" x="1028.55" y="-405.8" font-family="Times,serif" font-size="14.00">1</text>
</g>
</g>
</svg>
