<?xml version="1.0" encoding="UTF-8" standalone="no"?>
<!DOCTYPE svg PUBLIC "-//W3C//DTD SVG 1.1//EN"
 "http://www.w3.org/Graphics/SVG/1.1/DTD/svg11.dtd">
<!-- Generated by graphviz version 2.43.0 (0)
 -->
<!-- Title: %3 Pages: 1 -->
<svg width="358pt" height="305pt"
 viewBox="0.00 0.00 357.94 305.00" xmlns="http://www.w3.org/2000/svg" xmlns:xlink="http://www.w3.org/1999/xlink">
<g id="graph0" class="graph" transform="scale(1 1) rotate(0) translate(4 301)">
<title>%3</title>
<polygon fill="white" stroke="transparent" points="-4,4 -4,-301 353.94,-301 353.94,4 -4,4"/>
<!-- leaf_0x61 -->
<g id="node1" class="node">
<title>leaf_0x61</title>
<ellipse fill="none" stroke="black" cx="175.65" cy="-18" rx="40.09" ry="18"/>
<text text-anchor="middle" x="175.65" y="-14.3" font-family="Times,serif" font-size="14.00">&quot;a&quot; (1)</text>
</g>
<!-- leaf_0x66 -->
<g id="node2" class="node">
<title>leaf_0x66</title>
<ellipse fill="none" stroke="black" cx="272.65" cy="-18" rx="38.19" ry="18"/>
<text text-anchor="middle" x="272.65" y="-14.3" font-family="Times,serif" font-size="14.00">&quot;f&quot; (1)</text>
</g>
<!-- internal_0 -->
<g id="node3" class="node">
<title>internal_0</title>
<ellipse fill="none" stroke="black" cx="224.65" cy="-105" rx="27" ry="18"/>
<text text-anchor="middle" x="224.65" y="-101.3" font-family="Times,serif" font-size="14.00">(2)</text>
</g>
<!-- internal_0&#45;&gt;leaf_0x61 -->
<g id="edge1" class="edge">
<title>internal_0&#45;&gt;leaf_0x61</title>
<path fill="none" stroke="black" d="M215.43,-88.01C208.33,-75.7 198.39,-58.46 190.22,-44.28"/>
<polygon fill="black" stroke="black" points="193.18,-42.41 185.16,-35.5 187.12,-45.91 193.18,-42.41"/>
<text text-anchor="middle" x="207.65" y="-57.8" font-family="Times,serif" font-size="14.00">0</text>
</g>
<!-- internal_0&#45;&gt;leaf_0x66 -->
<g id="edge2" class="edge">
<title>internal_0&#45;&gt;leaf_0x66</title>
<path fill="none" stroke="black" d="M233.67,-88.01C240.63,-75.7 250.37,-58.46 258.37,-44.28"/>
<polygon fill="black" stroke="black" points="261.46,-45.92 263.33,-35.5 255.37,-42.48 261.46,-45.92"/>
<text text-anchor="middle" x="255.65" y="-57.8" font-family="Times,serif" font-size="14.00">1</text>
</g>
<!-- leaf_0x72 -->
<g id="node4" class="node">
<title>leaf_0x72</title>
<ellipse fill="none" stroke="black" cx="39.65" cy="-105" rx="39.79" ry="18"/>
<text text-anchor="middle" x="39.65" y="-101.3" font-family="Times,serif" font-size="14.00">&quot;r&quot; (1)</text>
</g>
<!-- leaf_0x62 -->
<g id="node5" class="node">
<title>leaf_0x62</title>
<ellipse fill="none" stroke="black" cx="138.65" cy="-105" rx="40.89" ry="18"/>
<text text-anchor="middle" x="138.65" y="-101.3" font-family="Times,serif" font-size="14.00">&quot;b&quot; (1)</text>
</g>
<!-- internal_1 -->
<g id="node6" class="node">
<title>internal_1</title>
<ellipse fill="none" stroke="black" cx="138.65" cy="-192" rx="27" ry="18"/>
<text text-anchor="middle" x="138.65" y="-188.3" font-family="Times,serif" font-size="14.00">(2)</text>
</g>
<!-- internal_1&#45;&gt;leaf_0x72 -->
<g id="edge3" class="edge">
<title>internal_1&#45;&gt;leaf_0x72</title>
<path fill="none" stroke="black" d="M122.74,-177.34C107.29,-164.08 83.57,-143.71 65.42,-128.13"/>
<polygon fill="black" stroke="black" points="67.39,-125.21 57.52,-121.35 62.83,-130.52 67.39,-125.21"/>
<text text-anchor="middle" x="100.65" y="-144.8" font-family="Times,serif" font-size="14.00">0</text>
</g>
<!-- internal_1&#45;&gt;leaf_0x62 -->
<g id="edge4" class="edge">
<title>internal_1&#45;&gt;leaf_0x62</title>
<path fill="none" stroke="black" d="M138.65,-173.8C138.65,-162.16 138.65,-146.55 138.65,-133.24"/>
<polygon fill="black" stroke="black" points="142.15,-133.18 138.65,-123.18 135.15,-133.18 142.15,-133.18"/>
<text text-anchor="middle" x="143.65" y="-144.8" font-family="Times,serif" font-size="14.00">1</text>
</g>
<!-- leaf_0x6f -->
<g id="node7" class="node">
<title>leaf_0x6f</title>
<ellipse fill="none" stroke="black" cx="309.65" cy="-105" rx="40.09" ry="18"/>
<text text-anchor="middle" x="309.65" y="-101.3" font-family="Times,serif" font-size="14.00">&quot;o&quot; (2)</text>
</g>
<!-- internal_2 -->
<g id="node8" class="node">
<title>internal_2</title>
<ellipse fill="none" stroke="black" cx="224.65" cy="-192" rx="27" ry="18"/>
<text text-anchor="middle" x="224.65" y="-188.3" font-family="Times,serif" font-size="14.00">(4)</text>
</g>
<!-- internal_2&#45;&gt;internal_0 -->
<g id="edge5" class="edge">
<title>internal_2&#45;&gt;internal_0</title>
<path fill="none" stroke="black" d="M224.65,-173.8C224.65,-162.16 224.65,-146.55 224.65,-133.24"/>
<polygon fill="black" stroke="black" points="228.15,-133.18 224.65,-123.18 221.15,-133.18 228.15,-133.18"/>
<text text-anchor="middle" x="229.65" y="-144.8" font-family="Times,serif" font-size="14.00">0</text>
</g>
<!-- internal_2&#45;&gt;leaf_0x6f -->
<g id="edge6" class="edge">
<title>internal_2&#45;&gt;leaf_0x6f</title>
<path fill="none" stroke="black" d="M239.07,-176.58C252.05,-163.59 271.37,-144.27 286.52,-129.13"/>
<polygon fill="black" stroke="black" points="289.41,-131.19 294,-121.64 284.46,-126.24 289.41,-131.19"/>
<text text-anchor="middle" x="276.65" y="-144.8" font-family="Times,serif" font-size="14.00">1</text>
</g>
<!-- internal_3 -->
<g id="node9" class="node">
<title>internal_3</title>
<ellipse fill="none" stroke="black" cx="180.65" cy="-279" rx="27" ry="18"/>
<text text-anchor="middle" x="180.65" y="-275.3" font-family="Times,serif" font-size="14.00">(6)</text>
</g>
<!-- internal_3&#45;&gt;internal_1 -->
<g id="edge7" class="edge">
<title>internal_3&#45;&gt;internal_1</title>
<path fill="none" stroke="black" d="M172.55,-261.61C166.51,-249.38 158.14,-232.44 151.22,-218.46"/>
<polygon fill="black" stroke="black" points="154.29,-216.75 146.72,-209.34 148.01,-219.85 154.29,-216.75"/>
<text text-anchor="middle" x="166.65" y="-231.8" font-family="Times,serif" font-size="14.00">0</text>
</g>
<!-- internal_3&#45;&gt;internal_2 -->
<g id="edge8" class="edge">
<title>internal_3&#45;&gt;internal_2</title>
<path fill="none" stroke="black" d="M189.13,-261.61C195.46,-249.38 204.23,-232.44 211.47,-218.46"/>
<polygon fill="black" stroke="black" points="214.7,-219.83 216.19,-209.34 208.48,-216.61 214.7,-219.83"/>
<text text-anchor="middle" x="209.65" y="-231.8" font-family="Times,serif" font-size="14.00">1</text>
</g>
</g>
</svg>
