<?xml version="1.0" encoding="UTF-8" standalone="no"?>
<!DOCTYPE svg PUBLIC "-//W3C//DTD SVG 1.1//EN"
 "http://www.w3.org/Graphics/SVG/1.1/DTD/svg11.dtd">
<!-- Generated by graphviz version 2.43.0 (0)
 -->
<!-- Title: %3 Pages: 1 -->
<svg width="1443pt" height="740pt"
 viewBox="0.00 0.00 1442.94 740.00" xmlns="http://www.w3.org/2000/svg" xmlns:xlink="http://www.w3.org/1999/xlink">
<g id="graph0" class="graph" transform="scale(1 1) rotate(0) translate(4 736)">
<title>%3</title>
<polygon fill="white" stroke="transparent" points="-4,4 -4,-736 1438.94,-736 1438.94,4 -4,4"/>
<!-- leaf_0x3a -->
<g id="node1" class="node">
<title>leaf_0x3a</title>
<ellipse fill="none" stroke="black" cx="220.15" cy="-18" rx="38.19" ry="18"/>
<text text-anchor="middle" x="220.15" y="-14.3" font-family="Times,serif" font-size="14.00">&quot;:&quot; (1)</text>
</g>
<!-- leaf_0x49 -->
<g id="node2" class="node">
<title>leaf_0x49</title>
<ellipse fill="none" stroke="black" cx="315.15" cy="-18" rx="38.19" ry="18"/>
<text text-anchor="middle" x="315.15" y="-14.3" font-family="Times,serif" font-size="14.00">&quot;I&quot; (1)</text>
</g>
<!-- internal_0 -->
<g id="node3" class="node">
<title>internal_0</title>
<ellipse fill="none" stroke="black" cx="315.15" cy="-105" rx="27" ry="18"/>
<text text-anchor="middle" x="315.15" y="-101.3" font-family="Times,serif" font-size="14.00">(2)</text>
</g>
<!-- internal_0&#45;&gt;leaf_0x3a -->
<g id="edge1" class="edge">
<title>internal_0&#45;&gt;leaf_0x3a</title>
<path fill="none" stroke="black" d="M299.46,-89.96C284.56,-76.63 261.93,-56.39 244.66,-40.93"/>
<polygon fill="black" stroke="black" points="246.93,-38.27 237.14,-34.21 242.26,-43.48 246.93,-38.27"/>
<text text-anchor="middle" x="279.15" y="-57.8" font-family="Times,serif" font-size="14.00">0</text>
</g>
<!-- internal_0&#45;&gt;leaf_0x49 -->
<g id="edge2" class="edge">
<title>internal_0&#45;&gt;leaf_0x49</title>
<path fill="none" stroke="black" d="M315.15,-86.8C315.15,-75.16 315.15,-59.55 315.15,-46.24"/>
<polygon fill="black" stroke="black" points="318.65,-46.18 315.15,-36.18 311.65,-46.18 318.65,-46.18"/>
<text text-anchor="middle" x="320.15" y="-57.8" font-family="Times,serif" font-size="14.00">1</text>
</g>
<!-- leaf_0x54 -->
<g id="node4" class="node">
<title>leaf_0x54</title>
<ellipse fill="none" stroke="black" cx="412.15" cy="-18" rx="40.89" ry="18"/>
<text text-anchor="middle" x="412.15" y="-14.3" font-family="Times,serif" font-size="14.00">&quot;T&quot; (1)</text>
</g>
<!-- leaf_0x62 -->
<g id="node5" class="node">
<title>leaf_0x62</title>
<ellipse fill="none" stroke="black" cx="512.15" cy="-18" rx="40.89" ry="18"/>
<text text-anchor="middle" x="512.15" y="-14.3" font-family="Times,serif" font-size="14.00">&quot;b&quot; (1)</text>
</g>
<!-- internal_1 -->
<g id="node6" class="node">
<title>internal_1</title>
<ellipse fill="none" stroke="black" cx="412.15" cy="-105" rx="27" ry="18"/>
<text text-anchor="middle" x="412.15" y="-101.3" font-family="Times,serif" font-size="14.00">(2)</text>
</g>
<!-- internal_1&#45;&gt;leaf_0x54 -->
<g id="edge3" class="edge">
<title>internal_1&#45;&gt;leaf_0x54</title>
<path fill="none" stroke="black" d="M412.15,-86.8C412.15,-75.16 412.15,-59.55 412.15,-46.24"/>
<polygon fill="black" stroke="black" points="415.65,-46.18 412.15,-36.18 408.65,-46.18 415.65,-46.18"/>
<text text-anchor="middle" x="417.15" y="-57.8" font-family="Times,serif" font-size="14.00">0</text>
</g>
<!-- internal_1&#45;&gt;leaf_0x62 -->
<g id="edge4" class="edge">
<title>internal_1&#45;&gt;leaf_0x62</title>
<path fill="none" stroke="black" d="M428.21,-90.34C443.82,-77.08 467.78,-56.71 486.11,-41.13"/>
<polygon fill="black" stroke="black" points="488.74,-43.49 494.09,-34.35 484.2,-38.16 488.74,-43.49"/>
<text text-anchor="middle" x="473.15" y="-57.8" font-family="Times,serif" font-size="14.00">1</text>
</g>
<!-- leaf_0x6b -->
<g id="node7" class="node">
<title>leaf_0x6b</title>
<ellipse fill="none" stroke="black" cx="109.15" cy="-105" rx="40.09" ry="18"/>
<text text-anchor="middle" x="109.15" y="-101.3" font-family="Times,serif" font-size="14.00">&quot;k&quot; (1)</text>
</g>
<!-- leaf_0x2c -->
<g id="node8" class="node">
<title>leaf_0x2c</title>
<ellipse fill="none" stroke="black" cx="206.15" cy="-105" rx="38.19" ry="18"/>
<text text-anchor="middle" x="206.15" y="-101.3" font-family="Times,serif" font-size="14.00">&quot;,&quot; (2)</text>
</g>
<!-- internal_2 -->
<g id="node9" class="node">
<title>internal_2</title>
<ellipse fill="none" stroke="black" cx="116.15" cy="-192" rx="27" ry="18"/>
<text text-anchor="middle" x="116.15" y="-188.3" font-family="Times,serif" font-size="14.00">(3)</text>
</g>
<!-- internal_2&#45;&gt;leaf_0x6b -->
<g id="edge5" class="edge">
<title>internal_2&#45;&gt;leaf_0x6b</title>
<path fill="none" stroke="black" d="M114.73,-173.8C113.77,-162.16 112.49,-146.55 111.39,-133.24"/>
<polygon fill="black" stroke="black" points="114.87,-132.85 110.56,-123.18 107.89,-133.43 114.87,-132.85"/>
<text text-anchor="middle" x="118.15" y="-144.8" font-family="Times,serif" font-size="14.00">0</text>
</g>
<!-- internal_2&#45;&gt;leaf_0x2c -->
<g id="edge6" class="edge">
<title>internal_2&#45;&gt;leaf_0x2c</title>
<path fill="none" stroke="black" d="M131.01,-176.96C144.91,-163.83 165.91,-144 182.18,-128.63"/>
<polygon fill="black" stroke="black" points="184.87,-130.91 189.74,-121.5 180.06,-125.82 184.87,-130.91"/>
<text text-anchor="middle" x="172.15" y="-144.8" font-family="Times,serif" font-size="14.00">1</text>
</g>
<!-- internal_3 -->
<g id="node10" class="node">
<title>internal_3</title>
<ellipse fill="none" stroke="black" cx="335.15" cy="-192" rx="27" ry="18"/>
<text text-anchor="middle" x="335.15" y="-188.3" font-family="Times,serif" font-size="14.00">(4)</text>
</g>
<!-- internal_3&#45;&gt;internal_0 -->
<g id="edge7" class="edge">
<title>internal_3&#45;&gt;internal_0</title>
<path fill="none" stroke="black" d="M331.1,-173.8C328.34,-162.09 324.64,-146.34 321.49,-132.97"/>
<polygon fill="black" stroke="black" points="324.82,-131.82 319.12,-122.89 318,-133.42 324.82,-131.82"/>
<text text-anchor="middle" x="332.15" y="-144.8" font-family="Times,serif" font-size="14.00">0</text>
</g>
<!-- internal_3&#45;&gt;internal_1 -->
<g id="edge8" class="edge">
<title>internal_3&#45;&gt;internal_1</title>
<path fill="none" stroke="black" d="M348.56,-176.19C360.52,-162.99 378.2,-143.47 391.89,-128.36"/>
<polygon fill="black" stroke="black" points="394.51,-130.68 398.63,-120.92 389.32,-125.98 394.51,-130.68"/>
<text text-anchor="middle" x="384.15" y="-144.8" font-family="Times,serif" font-size="14.00">1</text>
</g>
<!-- leaf_0x70 -->
<g id="node11" class="node">
<title>leaf_0x70</title>
<ellipse fill="none" stroke="black" cx="826.15" cy="-105" rx="40.89" ry="18"/>
<text text-anchor="middle" x="826.15" y="-101.3" font-family="Times,serif" font-size="14.00">&quot;p&quot; (2)</text>
</g>
<!-- leaf_0x6d -->
<g id="node12" class="node">
<title>leaf_0x6d</title>
<ellipse fill="none" stroke="black" cx="929.15" cy="-105" rx="44.39" ry="18"/>
<text text-anchor="middle" x="929.15" y="-101.3" font-family="Times,serif" font-size="14.00">&quot;m&quot; (2)</text>
</g>
<!-- internal_4 -->
<g id="node13" class="node">
<title>internal_4</title>
<ellipse fill="none" stroke="black" cx="878.15" cy="-192" rx="27" ry="18"/>
<text text-anchor="middle" x="878.15" y="-188.3" font-family="Times,serif" font-size="14.00">(4)</text>
</g>
<!-- internal_4&#45;&gt;leaf_0x70 -->
<g id="edge9" class="edge">
<title>internal_4&#45;&gt;leaf_0x70</title>
<path fill="none" stroke="black" d="M868.37,-175.01C860.84,-162.7 850.28,-145.46 841.61,-131.28"/>
<polygon fill="black" stroke="black" points="844.44,-129.2 836.24,-122.5 838.47,-132.85 844.44,-129.2"/>
<text text-anchor="middle" x="861.15" y="-144.8" font-family="Times,serif" font-size="14.00">0</text>
</g>
<!-- internal_4&#45;&gt;leaf_0x6d -->
<g id="edge10" class="edge">
<title>internal_4&#45;&gt;leaf_0x6d</title>
<path fill="none" stroke="black" d="M887.74,-175.01C895.08,-162.78 905.34,-145.68 913.81,-131.56"/>
<polygon fill="black" stroke="black" points="916.93,-133.16 919.07,-122.79 910.93,-129.56 916.93,-133.16"/>
<text text-anchor="middle" x="912.15" y="-144.8" font-family="Times,serif" font-size="14.00">1</text>
</g>
<!-- leaf_0x2d -->
<g id="node14" class="node">
<title>leaf_0x2d</title>
<ellipse fill="none" stroke="black" cx="199.15" cy="-192" rx="38.19" ry="18"/>
<text text-anchor="middle" x="199.15" y="-188.3" font-family="Times,serif" font-size="14.00">&quot;&#45;&quot; (3)</text>
</g>
<!-- internal_5 -->
<g id="node15" class="node">
<title>internal_5</title>
<ellipse fill="none" stroke="black" cx="170.15" cy="-279" rx="27" ry="18"/>
<text text-anchor="middle" x="170.15" y="-275.3" font-family="Times,serif" font-size="14.00">(6)</text>
</g>
<!-- internal_5&#45;&gt;internal_2 -->
<g id="edge11" class="edge">
<title>internal_5&#45;&gt;internal_2</title>
<path fill="none" stroke="black" d="M159.99,-262.01C152.07,-249.55 140.93,-232.01 131.86,-217.74"/>
<polygon fill="black" stroke="black" points="134.57,-215.48 126.26,-208.92 128.67,-219.23 134.57,-215.48"/>
<text text-anchor="middle" x="152.15" y="-231.8" font-family="Times,serif" font-size="14.00">0</text>
</g>
<!-- internal_5&#45;&gt;leaf_0x2d -->
<g id="edge12" class="edge">
<title>internal_5&#45;&gt;leaf_0x2d</title>
<path fill="none" stroke="black" d="M175.88,-261.21C179.9,-249.41 185.37,-233.38 189.99,-219.82"/>
<polygon fill="black" stroke="black" points="193.41,-220.64 193.33,-210.05 186.79,-218.38 193.41,-220.64"/>
<text text-anchor="middle" x="192.15" y="-231.8" font-family="Times,serif" font-size="14.00">1</text>
</g>
<!-- leaf_0x4d -->
<g id="node16" class="node">
<title>leaf_0x4d</title>
<ellipse fill="none" stroke="black" cx="424.15" cy="-192" rx="44.39" ry="18"/>
<text text-anchor="middle" x="424.15" y="-188.3" font-family="Times,serif" font-size="14.00">&quot;M&quot; (3)</text>
</g>
<!-- internal_6 -->
<g id="node17" class="node">
<title>internal_6</title>
<ellipse fill="none" stroke="black" cx="342.15" cy="-279" rx="27" ry="18"/>
<text text-anchor="middle" x="342.15" y="-275.3" font-family="Times,serif" font-size="14.00">(7)</text>
</g>
<!-- internal_6&#45;&gt;internal_3 -->
<g id="edge14" class="edge">
<title>internal_6&#45;&gt;internal_3</title>
<path fill="none" stroke="black" d="M340.73,-260.8C339.77,-249.16 338.49,-233.55 337.39,-220.24"/>
<polygon fill="black" stroke="black" points="340.87,-219.85 336.56,-210.18 333.89,-220.43 340.87,-219.85"/>
<text text-anchor="middle" x="344.15" y="-231.8" font-family="Times,serif" font-size="14.00">1</text>
</g>
<!-- internal_6&#45;&gt;leaf_0x4d -->
<g id="edge13" class="edge">
<title>internal_6&#45;&gt;leaf_0x4d</title>
<path fill="none" stroke="black" d="M356.43,-263.19C368.85,-250.31 387.08,-231.42 401.49,-216.48"/>
<polygon fill="black" stroke="black" points="404.21,-218.71 408.63,-209.08 399.17,-213.85 404.21,-218.71"/>
<text text-anchor="middle" x="393.15" y="-231.8" font-family="Times,serif" font-size="14.00">0</text>
</g>
<!-- leaf_0x2e -->
<g id="node18" class="node">
<title>leaf_0x2e</title>
<ellipse fill="none" stroke="black" cx="961.15" cy="-192" rx="38.19" ry="18"/>
<text text-anchor="middle" x="961.15" y="-188.3" font-family="Times,serif" font-size="14.00">&quot;.&quot; (4)</text>
</g>
<!-- internal_7 -->
<g id="node19" class="node">
<title>internal_7</title>
<ellipse fill="none" stroke="black" cx="920.15" cy="-279" rx="27" ry="18"/>
<text text-anchor="middle" x="920.15" y="-275.3" font-family="Times,serif" font-size="14.00">(8)</text>
</g>
<!-- internal_7&#45;&gt;internal_4 -->
<g id="edge15" class="edge">
<title>internal_7&#45;&gt;internal_4</title>
<path fill="none" stroke="black" d="M912.05,-261.61C906.01,-249.38 897.64,-232.44 890.72,-218.46"/>
<polygon fill="black" stroke="black" points="893.79,-216.75 886.22,-209.34 887.51,-219.85 893.79,-216.75"/>
<text text-anchor="middle" x="907.15" y="-231.8" font-family="Times,serif" font-size="14.00">0</text>
</g>
<!-- internal_7&#45;&gt;leaf_0x2e -->
<g id="edge16" class="edge">
<title>internal_7&#45;&gt;leaf_0x2e</title>
<path fill="none" stroke="black" d="M928.05,-261.61C933.91,-249.46 942.02,-232.66 948.74,-218.73"/>
<polygon fill="black" stroke="black" points="951.93,-220.16 953.13,-209.63 945.63,-217.11 951.93,-220.16"/>
<text text-anchor="middle" x="948.15" y="-231.8" font-family="Times,serif" font-size="14.00">1</text>
</g>
<!-- leaf_0x76 -->
<g id="node20" class="node">
<title>leaf_0x76</title>
<ellipse fill="none" stroke="black" cx="1244.15" cy="-192" rx="40.09" ry="18"/>
<text text-anchor="middle" x="1244.15" y="-188.3" font-family="Times,serif" font-size="14.00">&quot;v&quot; (5)</text>
</g>
<!-- leaf_0x63 -->
<g id="node21" class="node">
<title>leaf_0x63</title>
<ellipse fill="none" stroke="black" cx="1343.15" cy="-192" rx="40.09" ry="18"/>
<text text-anchor="middle" x="1343.15" y="-188.3" font-family="Times,serif" font-size="14.00">&quot;c&quot; (6)</text>
</g>
<!-- internal_8 -->
<g id="node22" class="node">
<title>internal_8</title>
<ellipse fill="none" stroke="black" cx="1294.15" cy="-279" rx="29.5" ry="18"/>
<text text-anchor="middle" x="1294.15" y="-275.3" font-family="Times,serif" font-size="14.00">(11)</text>
</g>
<!-- internal_8&#45;&gt;leaf_0x76 -->
<g id="edge17" class="edge">
<title>internal_8&#45;&gt;leaf_0x76</title>
<path fill="none" stroke="black" d="M1284.51,-261.61C1277.29,-249.34 1267.28,-232.34 1259.04,-218.32"/>
<polygon fill="black" stroke="black" points="1262.01,-216.47 1253.93,-209.63 1255.98,-220.02 1262.01,-216.47"/>
<text text-anchor="middle" x="1277.15" y="-231.8" font-family="Times,serif" font-size="14.00">0</text>
</g>
<!-- internal_8&#45;&gt;leaf_0x63 -->
<g id="edge18" class="edge">
<title>internal_8&#45;&gt;leaf_0x63</title>
<path fill="none" stroke="black" d="M1303.59,-261.61C1310.67,-249.34 1320.47,-232.34 1328.55,-218.32"/>
<polygon fill="black" stroke="black" points="1331.6,-220.04 1333.56,-209.63 1325.53,-216.54 1331.6,-220.04"/>
<text text-anchor="middle" x="1327.15" y="-231.8" font-family="Times,serif" font-size="14.00">1</text>
</g>
<!-- leaf_0x66 -->
<g id="node23" class="node">
<title>leaf_0x66</title>
<ellipse fill="none" stroke="black" cx="253.15" cy="-279" rx="38.19" ry="18"/>
<text text-anchor="middle" x="253.15" y="-275.3" font-family="Times,serif" font-size="14.00">&quot;f&quot; (7)</text>
</g>
<!-- internal_9 -->
<g id="node24" class="node">
<title>internal_9</title>
<ellipse fill="none" stroke="black" cx="250.15" cy="-366" rx="29.5" ry="18"/>
<text text-anchor="middle" x="250.15" y="-362.3" font-family="Times,serif" font-size="14.00">(13)</text>
</g>
<!-- internal_9&#45;&gt;internal_5 -->
<g id="edge19" class="edge">
<title>internal_9&#45;&gt;internal_5</title>
<path fill="none" stroke="black" d="M235.84,-349.8C223.37,-336.55 205.11,-317.14 191,-302.16"/>
<polygon fill="black" stroke="black" points="193.46,-299.66 184.06,-294.78 188.36,-304.46 193.46,-299.66"/>
<text text-anchor="middle" x="220.15" y="-318.8" font-family="Times,serif" font-size="14.00">0</text>
</g>
<!-- internal_9&#45;&gt;leaf_0x66 -->
<g id="edge20" class="edge">
<title>internal_9&#45;&gt;leaf_0x66</title>
<path fill="none" stroke="black" d="M250.75,-347.8C251.16,-336.16 251.71,-320.55 252.18,-307.24"/>
<polygon fill="black" stroke="black" points="255.68,-307.29 252.54,-297.18 248.69,-307.05 255.68,-307.29"/>
<text text-anchor="middle" x="257.15" y="-318.8" font-family="Times,serif" font-size="14.00">1</text>
</g>
<!-- leaf_0x75 -->
<g id="node25" class="node">
<title>leaf_0x75</title>
<ellipse fill="none" stroke="black" cx="428.15" cy="-279" rx="40.89" ry="18"/>
<text text-anchor="middle" x="428.15" y="-275.3" font-family="Times,serif" font-size="14.00">&quot;u&quot; (7)</text>
</g>
<!-- internal_10 -->
<g id="node26" class="node">
<title>internal_10</title>
<ellipse fill="none" stroke="black" cx="432.15" cy="-366" rx="29.5" ry="18"/>
<text text-anchor="middle" x="432.15" y="-362.3" font-family="Times,serif" font-size="14.00">(14)</text>
</g>
<!-- internal_10&#45;&gt;internal_6 -->
<g id="edge21" class="edge">
<title>internal_10&#45;&gt;internal_6</title>
<path fill="none" stroke="black" d="M416.88,-350.58C402.57,-337.07 381,-316.7 364.71,-301.31"/>
<polygon fill="black" stroke="black" points="366.86,-298.53 357.19,-294.21 362.05,-303.62 366.86,-298.53"/>
<text text-anchor="middle" x="398.15" y="-318.8" font-family="Times,serif" font-size="14.00">0</text>
</g>
<!-- internal_10&#45;&gt;leaf_0x75 -->
<g id="edge22" class="edge">
<title>internal_10&#45;&gt;leaf_0x75</title>
<path fill="none" stroke="black" d="M431.34,-347.8C430.79,-336.16 430.05,-320.55 429.43,-307.24"/>
<polygon fill="black" stroke="black" points="432.92,-307 428.95,-297.18 425.93,-307.33 432.92,-307"/>
<text text-anchor="middle" x="436.15" y="-318.8" font-family="Times,serif" font-size="14.00">1</text>
</g>
<!-- leaf_0x64 -->
<g id="node27" class="node">
<title>leaf_0x64</title>
<ellipse fill="none" stroke="black" cx="528.15" cy="-279" rx="40.89" ry="18"/>
<text text-anchor="middle" x="528.15" y="-275.3" font-family="Times,serif" font-size="14.00">&quot;d&quot; (7)</text>
</g>
<!-- leaf_0x0a -->
<g id="node28" class="node">
<title>leaf_0x0a</title>
<ellipse fill="none" stroke="black" cx="631.15" cy="-279" rx="44.39" ry="18"/>
<text text-anchor="middle" x="631.15" y="-275.3" font-family="Times,serif" font-size="14.00">&quot;\n&quot; (7)</text>
</g>
<!-- internal_11 -->
<g id="node29" class="node">
<title>internal_11</title>
<ellipse fill="none" stroke="black" cx="528.15" cy="-366" rx="29.5" ry="18"/>
<text text-anchor="middle" x="528.15" y="-362.3" font-family="Times,serif" font-size="14.00">(14)</text>
</g>
<!-- internal_11&#45;&gt;leaf_0x64 -->
<g id="edge23" class="edge">
<title>internal_11&#45;&gt;leaf_0x64</title>
<path fill="none" stroke="black" d="M528.15,-347.8C528.15,-336.16 528.15,-320.55 528.15,-307.24"/>
<polygon fill="black" stroke="black" points="531.65,-307.18 528.15,-297.18 524.65,-307.18 531.65,-307.18"/>
<text text-anchor="middle" x="533.15" y="-318.8" font-family="Times,serif" font-size="14.00">0</text>
</g>
<!-- internal_11&#45;&gt;leaf_0x0a -->
<g id="edge24" class="edge">
<title>internal_11&#45;&gt;leaf_0x0a</title>
<path fill="none" stroke="black" d="M545.15,-350.96C561.28,-337.66 585.76,-317.46 604.48,-302.01"/>
<polygon fill="black" stroke="black" points="606.88,-304.56 612.37,-295.5 602.43,-299.16 606.88,-304.56"/>
<text text-anchor="middle" x="591.15" y="-318.8" font-family="Times,serif" font-size="14.00">1</text>
</g>
<!-- leaf_0x6c -->
<g id="node30" class="node">
<title>leaf_0x6c</title>
<ellipse fill="none" stroke="black" cx="1003.15" cy="-279" rx="38.19" ry="18"/>
<text text-anchor="middle" x="1003.15" y="-275.3" font-family="Times,serif" font-size="14.00">&quot;l&quot; (8)</text>
</g>
<!-- internal_12 -->
<g id="node31" class="node">
<title>internal_12</title>
<ellipse fill="none" stroke="black" cx="1003.15" cy="-366" rx="29.5" ry="18"/>
<text text-anchor="middle" x="1003.15" y="-362.3" font-family="Times,serif" font-size="14.00">(16)</text>
</g>
<!-- internal_12&#45;&gt;internal_7 -->
<g id="edge26" class="edge">
<title>internal_12&#45;&gt;internal_7</title>
<path fill="none" stroke="black" d="M988.69,-350.19C975.72,-336.91 956.5,-317.23 941.71,-302.08"/>
<polygon fill="black" stroke="black" points="943.93,-299.35 934.44,-294.64 938.92,-304.24 943.93,-299.35"/>
<text text-anchor="middle" x="972.15" y="-318.8" font-family="Times,serif" font-size="14.00">1</text>
</g>
<!-- internal_12&#45;&gt;leaf_0x6c -->
<g id="edge25" class="edge">
<title>internal_12&#45;&gt;leaf_0x6c</title>
<path fill="none" stroke="black" d="M1003.15,-347.8C1003.15,-336.16 1003.15,-320.55 1003.15,-307.24"/>
<polygon fill="black" stroke="black" points="1006.65,-307.18 1003.15,-297.18 999.65,-307.18 1006.65,-307.18"/>
<text text-anchor="middle" x="1008.15" y="-318.8" font-family="Times,serif" font-size="14.00">0</text>
</g>
<!-- leaf_0x67 -->
<g id="node32" class="node">
<title>leaf_0x67</title>
<ellipse fill="none" stroke="black" cx="734.15" cy="-279" rx="40.89" ry="18"/>
<text text-anchor="middle" x="734.15" y="-275.3" font-family="Times,serif" font-size="14.00">&quot;g&quot; (8)</text>
</g>
<!-- leaf_0x68 -->
<g id="node33" class="node">
<title>leaf_0x68</title>
<ellipse fill="none" stroke="black" cx="834.15" cy="-279" rx="40.89" ry="18"/>
<text text-anchor="middle" x="834.15" y="-275.3" font-family="Times,serif" font-size="14.00">&quot;h&quot; (8)</text>
</g>
<!-- internal_13 -->
<g id="node34" class="node">
<title>internal_13</title>
<ellipse fill="none" stroke="black" cx="817.15" cy="-366" rx="29.5" ry="18"/>
<text text-anchor="middle" x="817.15" y="-362.3" font-family="Times,serif" font-size="14.00">(16)</text>
</g>
<!-- internal_13&#45;&gt;leaf_0x67 -->
<g id="edge27" class="edge">
<title>internal_13&#45;&gt;leaf_0x67</title>
<path fill="none" stroke="black" d="M802.69,-350.19C790.03,-337.23 771.43,-318.18 756.8,-303.2"/>
<polygon fill="black" stroke="black" points="759.05,-300.5 749.56,-295.79 754.05,-305.39 759.05,-300.5"/>
<text text-anchor="middle" x="786.15" y="-318.8" font-family="Times,serif" font-size="14.00">0</text>
</g>
<!-- internal_13&#45;&gt;leaf_0x68 -->
<g id="edge28" class="edge">
<title>internal_13&#45;&gt;leaf_0x68</title>
<path fill="none" stroke="black" d="M820.59,-347.8C822.91,-336.16 826.04,-320.55 828.7,-307.24"/>
<polygon fill="black" stroke="black" points="832.18,-307.67 830.71,-297.18 825.32,-306.29 832.18,-307.67"/>
<text text-anchor="middle" x="832.15" y="-318.8" font-family="Times,serif" font-size="14.00">1</text>
</g>
<!-- leaf_0x74 -->
<g id="node35" class="node">
<title>leaf_0x74</title>
<ellipse fill="none" stroke="black" cx="1098.15" cy="-279" rx="38.99" ry="18"/>
<text text-anchor="middle" x="1098.15" y="-275.3" font-family="Times,serif" font-size="14.00">&quot;t&quot; (9)</text>
</g>
<!-- leaf_0x79 -->
<g id="node36" class="node">
<title>leaf_0x79</title>
<ellipse fill="none" stroke="black" cx="1201.15" cy="-279" rx="46.29" ry="18"/>
<text text-anchor="middle" x="1201.15" y="-275.3" font-family="Times,serif" font-size="14.00">&quot;y&quot; (10)</text>
</g>
<!-- internal_14 -->
<g id="node37" class="node">
<title>internal_14</title>
<ellipse fill="none" stroke="black" cx="1098.15" cy="-366" rx="29.5" ry="18"/>
<text text-anchor="middle" x="1098.15" y="-362.3" font-family="Times,serif" font-size="14.00">(19)</text>
</g>
<!-- internal_14&#45;&gt;leaf_0x74 -->
<g id="edge29" class="edge">
<title>internal_14&#45;&gt;leaf_0x74</title>
<path fill="none" stroke="black" d="M1098.15,-347.8C1098.15,-336.16 1098.15,-320.55 1098.15,-307.24"/>
<polygon fill="black" stroke="black" points="1101.65,-307.18 1098.15,-297.18 1094.65,-307.18 1101.65,-307.18"/>
<text text-anchor="middle" x="1103.15" y="-318.8" font-family="Times,serif" font-size="14.00">0</text>
</g>
<!-- internal_14&#45;&gt;leaf_0x79 -->
<g id="edge30" class="edge">
<title>internal_14&#45;&gt;leaf_0x79</title>
<path fill="none" stroke="black" d="M1115.15,-350.96C1131.28,-337.66 1155.76,-317.46 1174.48,-302.01"/>
<polygon fill="black" stroke="black" points="1176.88,-304.56 1182.37,-295.5 1172.43,-299.16 1176.88,-304.56"/>
<text text-anchor="middle" x="1161.15" y="-318.8" font-family="Times,serif" font-size="14.00">1</text>
</g>
<!-- leaf_0x6e -->
<g id="node38" class="node">
<title>leaf_0x6e</title>
<ellipse fill="none" stroke="black" cx="1388.15" cy="-279" rx="46.59" ry="18"/>
<text text-anchor="middle" x="1388.15" y="-275.3" font-family="Times,serif" font-size="14.00">&quot;n&quot; (11)</text>
</g>
<!-- internal_15 -->
<g id="node39" class="node">
<title>internal_15</title>
<ellipse fill="none" stroke="black" cx="1294.15" cy="-366" rx="29.5" ry="18"/>
<text text-anchor="middle" x="1294.15" y="-362.3" font-family="Times,serif" font-size="14.00">(22)</text>
</g>
<!-- internal_15&#45;&gt;internal_8 -->
<g id="edge31" class="edge">
<title>internal_15&#45;&gt;internal_8</title>
<path fill="none" stroke="black" d="M1294.15,-347.8C1294.15,-336.16 1294.15,-320.55 1294.15,-307.24"/>
<polygon fill="black" stroke="black" points="1297.65,-307.18 1294.15,-297.18 1290.65,-307.18 1297.65,-307.18"/>
<text text-anchor="middle" x="1299.15" y="-318.8" font-family="Times,serif" font-size="14.00">0</text>
</g>
<!-- internal_15&#45;&gt;leaf_0x6e -->
<g id="edge32" class="edge">
<title>internal_15&#45;&gt;leaf_0x6e</title>
<path fill="none" stroke="black" d="M1310.09,-350.58C1324.5,-337.56 1345.94,-318.16 1362.71,-303"/>
<polygon fill="black" stroke="black" points="1365.45,-305.24 1370.52,-295.94 1360.76,-300.05 1365.45,-305.24"/>
<text text-anchor="middle" x="1352.15" y="-318.8" font-family="Times,serif" font-size="14.00">1</text>
</g>
<!-- leaf_0x73 -->
<g id="node40" class="node">
<title>leaf_0x73</title>
<ellipse fill="none" stroke="black" cx="46.15" cy="-366" rx="46.29" ry="18"/>
<text text-anchor="middle" x="46.15" y="-362.3" font-family="Times,serif" font-size="14.00">&quot;s&quot; (12)</text>
</g>
<!-- leaf_0x72 -->
<g id="node41" class="node">
<title>leaf_0x72</title>
<ellipse fill="none" stroke="black" cx="156.15" cy="-366" rx="45.49" ry="18"/>
<text text-anchor="middle" x="156.15" y="-362.3" font-family="Times,serif" font-size="14.00">&quot;r&quot; (13)</text>
</g>
<!-- internal_16 -->
<g id="node42" class="node">
<title>internal_16</title>
<ellipse fill="none" stroke="black" cx="156.15" cy="-453" rx="29.5" ry="18"/>
<text text-anchor="middle" x="156.15" y="-449.3" font-family="Times,serif" font-size="14.00">(25)</text>
</g>
<!-- internal_16&#45;&gt;leaf_0x73 -->
<g id="edge33" class="edge">
<title>internal_16&#45;&gt;leaf_0x73</title>
<path fill="none" stroke="black" d="M138.47,-438.34C121.07,-424.9 94.23,-404.16 73.97,-388.5"/>
<polygon fill="black" stroke="black" points="76.06,-385.69 66.01,-382.35 71.78,-391.23 76.06,-385.69"/>
<text text-anchor="middle" x="113.15" y="-405.8" font-family="Times,serif" font-size="14.00">0</text>
</g>
<!-- internal_16&#45;&gt;leaf_0x72 -->
<g id="edge34" class="edge">
<title>internal_16&#45;&gt;leaf_0x72</title>
<path fill="none" stroke="black" d="M156.15,-434.8C156.15,-423.16 156.15,-407.55 156.15,-394.24"/>
<polygon fill="black" stroke="black" points="159.65,-394.18 156.15,-384.18 152.65,-394.18 159.65,-394.18"/>
<text text-anchor="middle" x="161.15" y="-405.8" font-family="Times,serif" font-size="14.00">1</text>
</g>
<!-- leaf_0x69 -->
<g id="node43" class="node">
<title>leaf_0x69</title>
<ellipse fill="none" stroke="black" cx="341.15" cy="-366" rx="44.39" ry="18"/>
<text text-anchor="middle" x="341.15" y="-362.3" font-family="Times,serif" font-size="14.00">&quot;i&quot; (13)</text>
</g>
<!-- internal_17 -->
<g id="node44" class="node">
<title>internal_17</title>
<ellipse fill="none" stroke="black" cx="342.15" cy="-453" rx="29.5" ry="18"/>
<text text-anchor="middle" x="342.15" y="-449.3" font-family="Times,serif" font-size="14.00">(26)</text>
</g>
<!-- internal_17&#45;&gt;internal_9 -->
<g id="edge35" class="edge">
<title>internal_17&#45;&gt;internal_9</title>
<path fill="none" stroke="black" d="M326.54,-437.58C312,-424.15 290.13,-403.94 273.51,-388.59"/>
<polygon fill="black" stroke="black" points="275.55,-385.71 265.83,-381.49 270.8,-390.85 275.55,-385.71"/>
<text text-anchor="middle" x="307.15" y="-405.8" font-family="Times,serif" font-size="14.00">0</text>
</g>
<!-- internal_17&#45;&gt;leaf_0x69 -->
<g id="edge36" class="edge">
<title>internal_17&#45;&gt;leaf_0x69</title>
<path fill="none" stroke="black" d="M341.94,-434.8C341.81,-423.16 341.62,-407.55 341.47,-394.24"/>
<polygon fill="black" stroke="black" points="344.97,-394.13 341.35,-384.18 337.97,-394.22 344.97,-394.13"/>
<text text-anchor="middle" x="347.15" y="-405.8" font-family="Times,serif" font-size="14.00">1</text>
</g>
<!-- internal_18 -->
<g id="node45" class="node">
<title>internal_18</title>
<ellipse fill="none" stroke="black" cx="432.15" cy="-453" rx="29.5" ry="18"/>
<text text-anchor="middle" x="432.15" y="-449.3" font-family="Times,serif" font-size="14.00">(28)</text>
</g>
<!-- internal_18&#45;&gt;internal_10 -->
<g id="edge37" class="edge">
<title>internal_18&#45;&gt;internal_10</title>
<path fill="none" stroke="black" d="M432.15,-434.8C432.15,-423.16 432.15,-407.55 432.15,-394.24"/>
<polygon fill="black" stroke="black" points="435.65,-394.18 432.15,-384.18 428.65,-394.18 435.65,-394.18"/>
<text text-anchor="middle" x="437.15" y="-405.8" font-family="Times,serif" font-size="14.00">0</text>
</g>
<!-- internal_18&#45;&gt;internal_11 -->
<g id="edge38" class="edge">
<title>internal_18&#45;&gt;internal_11</title>
<path fill="none" stroke="black" d="M448.43,-437.58C463.83,-423.94 487.12,-403.33 504.55,-387.89"/>
<polygon fill="black" stroke="black" points="506.93,-390.46 512.1,-381.21 502.29,-385.21 506.93,-390.46"/>
<text text-anchor="middle" x="491.15" y="-405.8" font-family="Times,serif" font-size="14.00">1</text>
</g>
<!-- leaf_0x61 -->
<g id="node46" class="node">
<title>leaf_0x61</title>
<ellipse fill="none" stroke="black" cx="910.15" cy="-366" rx="46.29" ry="18"/>
<text text-anchor="middle" x="910.15" y="-362.3" font-family="Times,serif" font-size="14.00">&quot;a&quot; (14)</text>
</g>
<!-- internal_19 -->
<g id="node47" class="node">
<title>internal_19</title>
<ellipse fill="none" stroke="black" cx="910.15" cy="-453" rx="29.5" ry="18"/>
<text text-anchor="middle" x="910.15" y="-449.3" font-family="Times,serif" font-size="14.00">(30)</text>
</g>
<!-- internal_19&#45;&gt;internal_13 -->
<g id="edge40" class="edge">
<title>internal_19&#45;&gt;internal_13</title>
<path fill="none" stroke="black" d="M894.37,-437.58C879.67,-424.15 857.57,-403.94 840.76,-388.59"/>
<polygon fill="black" stroke="black" points="842.74,-385.65 833,-381.49 838.02,-390.82 842.74,-385.65"/>
<text text-anchor="middle" x="875.15" y="-405.8" font-family="Times,serif" font-size="14.00">1</text>
</g>
<!-- internal_19&#45;&gt;leaf_0x61 -->
<g id="edge39" class="edge">
<title>internal_19&#45;&gt;leaf_0x61</title>
<path fill="none" stroke="black" d="M910.15,-434.8C910.15,-423.16 910.15,-407.55 910.15,-394.24"/>
<polygon fill="black" stroke="black" points="913.65,-394.18 910.15,-384.18 906.65,-394.18 913.65,-394.18"/>
<text text-anchor="middle" x="915.15" y="-405.8" font-family="Times,serif" font-size="14.00">0</text>
</g>
<!-- internal_20 -->
<g id="node48" class="node">
<title>internal_20</title>
<ellipse fill="none" stroke="black" cx="1003.15" cy="-453" rx="29.5" ry="18"/>
<text text-anchor="middle" x="1003.15" y="-449.3" font-family="Times,serif" font-size="14.00">(35)</text>
</g>
<!-- internal_20&#45;&gt;internal_12 -->
<g id="edge41" class="edge">
<title>internal_20&#45;&gt;internal_12</title>
<path fill="none" stroke="black" d="M1003.15,-434.8C1003.15,-423.16 1003.15,-407.55 1003.15,-394.24"/>
<polygon fill="black" stroke="black" points="1006.65,-394.18 1003.15,-384.18 999.65,-394.18 1006.65,-394.18"/>
<text text-anchor="middle" x="1008.15" y="-405.8" font-family="Times,serif" font-size="14.00">0</text>
</g>
<!-- internal_20&#45;&gt;internal_14 -->
<g id="edge42" class="edge">
<title>internal_20&#45;&gt;internal_14</title>
<path fill="none" stroke="black" d="M1019.26,-437.58C1034.5,-423.94 1057.55,-403.33 1074.8,-387.89"/>
<polygon fill="black" stroke="black" points="1077.15,-390.48 1082.27,-381.21 1072.48,-385.27 1077.15,-390.48"/>
<text text-anchor="middle" x="1062.15" y="-405.8" font-family="Times,serif" font-size="14.00">1</text>
</g>
<!-- leaf_0x6f -->
<g id="node49" class="node">
<title>leaf_0x6f</title>
<ellipse fill="none" stroke="black" cx="1387.15" cy="-366" rx="46.29" ry="18"/>
<text text-anchor="middle" x="1387.15" y="-362.3" font-family="Times,serif" font-size="14.00">&quot;o&quot; (21)</text>
</g>
<!-- internal_21 -->
<g id="node50" class="node">
<title>internal_21</title>
<ellipse fill="none" stroke="black" cx="1294.15" cy="-453" rx="29.5" ry="18"/>
<text text-anchor="middle" x="1294.15" y="-449.3" font-family="Times,serif" font-size="14.00">(43)</text>
</g>
<!-- internal_21&#45;&gt;internal_15 -->
<g id="edge44" class="edge">
<title>internal_21&#45;&gt;internal_15</title>
<path fill="none" stroke="black" d="M1294.15,-434.8C1294.15,-423.16 1294.15,-407.55 1294.15,-394.24"/>
<polygon fill="black" stroke="black" points="1297.65,-394.18 1294.15,-384.18 1290.65,-394.18 1297.65,-394.18"/>
<text text-anchor="middle" x="1299.15" y="-405.8" font-family="Times,serif" font-size="14.00">1</text>
</g>
<!-- internal_21&#45;&gt;leaf_0x6f -->
<g id="edge43" class="edge">
<title>internal_21&#45;&gt;leaf_0x6f</title>
<path fill="none" stroke="black" d="M1309.92,-437.58C1324.17,-424.56 1345.39,-405.16 1361.99,-390"/>
<polygon fill="black" stroke="black" points="1364.69,-392.27 1369.71,-382.94 1359.97,-387.1 1364.69,-392.27"/>
<text text-anchor="middle" x="1352.15" y="-405.8" font-family="Times,serif" font-size="14.00">0</text>
</g>
<!-- leaf_0x65 -->
<g id="node51" class="node">
<title>leaf_0x65</title>
<ellipse fill="none" stroke="black" cx="249.15" cy="-453" rx="46.29" ry="18"/>
<text text-anchor="middle" x="249.15" y="-449.3" font-family="Times,serif" font-size="14.00">&quot;e&quot; (22)</text>
</g>
<!-- internal_22 -->
<g id="node52" class="node">
<title>internal_22</title>
<ellipse fill="none" stroke="black" cx="249.15" cy="-540" rx="29.5" ry="18"/>
<text text-anchor="middle" x="249.15" y="-536.3" font-family="Times,serif" font-size="14.00">(47)</text>
</g>
<!-- internal_22&#45;&gt;internal_16 -->
<g id="edge46" class="edge">
<title>internal_22&#45;&gt;internal_16</title>
<path fill="none" stroke="black" d="M233.37,-524.58C218.67,-511.15 196.57,-490.94 179.76,-475.59"/>
<polygon fill="black" stroke="black" points="181.74,-472.65 172,-468.49 177.02,-477.82 181.74,-472.65"/>
<text text-anchor="middle" x="214.15" y="-492.8" font-family="Times,serif" font-size="14.00">1</text>
</g>
<!-- internal_22&#45;&gt;leaf_0x65 -->
<g id="edge45" class="edge">
<title>internal_22&#45;&gt;leaf_0x65</title>
<path fill="none" stroke="black" d="M249.15,-521.8C249.15,-510.16 249.15,-494.55 249.15,-481.24"/>
<polygon fill="black" stroke="black" points="252.65,-481.18 249.15,-471.18 245.65,-481.18 252.65,-481.18"/>
<text text-anchor="middle" x="254.15" y="-492.8" font-family="Times,serif" font-size="14.00">0</text>
</g>
<!-- internal_23 -->
<g id="node53" class="node">
<title>internal_23</title>
<ellipse fill="none" stroke="black" cx="365.15" cy="-540" rx="29.5" ry="18"/>
<text text-anchor="middle" x="365.15" y="-536.3" font-family="Times,serif" font-size="14.00">(54)</text>
</g>
<!-- internal_23&#45;&gt;internal_17 -->
<g id="edge47" class="edge">
<title>internal_23&#45;&gt;internal_17</title>
<path fill="none" stroke="black" d="M360.6,-522.21C357.41,-510.41 353.07,-494.38 349.4,-480.82"/>
<polygon fill="black" stroke="black" points="352.75,-479.79 346.76,-471.05 345.99,-481.62 352.75,-479.79"/>
<text text-anchor="middle" x="360.15" y="-492.8" font-family="Times,serif" font-size="14.00">0</text>
</g>
<!-- internal_23&#45;&gt;internal_18 -->
<g id="edge48" class="edge">
<title>internal_23&#45;&gt;internal_18</title>
<path fill="none" stroke="black" d="M377.43,-523.41C387.54,-510.59 402.02,-492.22 413.55,-477.6"/>
<polygon fill="black" stroke="black" points="416.49,-479.51 419.93,-469.49 411,-475.18 416.49,-479.51"/>
<text text-anchor="middle" x="408.15" y="-492.8" font-family="Times,serif" font-size="14.00">1</text>
</g>
<!-- internal_24 -->
<g id="node54" class="node">
<title>internal_24</title>
<ellipse fill="none" stroke="black" cx="956.15" cy="-540" rx="29.5" ry="18"/>
<text text-anchor="middle" x="956.15" y="-536.3" font-family="Times,serif" font-size="14.00">(65)</text>
</g>
<!-- internal_24&#45;&gt;internal_19 -->
<g id="edge49" class="edge">
<title>internal_24&#45;&gt;internal_19</title>
<path fill="none" stroke="black" d="M947.28,-522.61C940.66,-510.38 931.49,-493.44 923.92,-479.46"/>
<polygon fill="black" stroke="black" points="926.83,-477.47 918.99,-470.34 920.67,-480.8 926.83,-477.47"/>
<text text-anchor="middle" x="941.15" y="-492.8" font-family="Times,serif" font-size="14.00">0</text>
</g>
<!-- internal_24&#45;&gt;internal_20 -->
<g id="edge50" class="edge">
<title>internal_24&#45;&gt;internal_20</title>
<path fill="none" stroke="black" d="M965.21,-522.61C971.97,-510.38 981.34,-493.44 989.07,-479.46"/>
<polygon fill="black" stroke="black" points="992.34,-480.78 994.11,-470.34 986.21,-477.4 992.34,-480.78"/>
<text text-anchor="middle" x="988.15" y="-492.8" font-family="Times,serif" font-size="14.00">1</text>
</g>
<!-- leaf_0x20 -->
<g id="node55" class="node">
<title>leaf_0x20</title>
<ellipse fill="none" stroke="black" cx="1385.15" cy="-453" rx="44.39" ry="18"/>
<text text-anchor="middle" x="1385.15" y="-449.3" font-family="Times,serif" font-size="14.00">&quot; &quot; (42)</text>
</g>
<!-- internal_25 -->
<g id="node56" class="node">
<title>internal_25</title>
<ellipse fill="none" stroke="black" cx="1294.15" cy="-540" rx="29.5" ry="18"/>
<text text-anchor="middle" x="1294.15" y="-536.3" font-family="Times,serif" font-size="14.00">(85)</text>
</g>
<!-- internal_25&#45;&gt;internal_21 -->
<g id="edge52" class="edge">
<title>internal_25&#45;&gt;internal_21</title>
<path fill="none" stroke="black" d="M1294.15,-521.8C1294.15,-510.16 1294.15,-494.55 1294.15,-481.24"/>
<polygon fill="black" stroke="black" points="1297.65,-481.18 1294.15,-471.18 1290.65,-481.18 1297.65,-481.18"/>
<text text-anchor="middle" x="1299.15" y="-492.8" font-family="Times,serif" font-size="14.00">1</text>
</g>
<!-- internal_25&#45;&gt;leaf_0x20 -->
<g id="edge51" class="edge">
<title>internal_25&#45;&gt;leaf_0x20</title>
<path fill="none" stroke="black" d="M1309.58,-524.58C1323.53,-511.56 1344.29,-492.16 1360.53,-477"/>
<polygon fill="black" stroke="black" points="1363.16,-479.32 1368.08,-469.94 1358.39,-474.21 1363.16,-479.32"/>
<text text-anchor="middle" x="1350.15" y="-492.8" font-family="Times,serif" font-size="14.00">0</text>
</g>
<!-- internal_26 -->
<g id="node57" class="node">
<title>internal_26</title>
<ellipse fill="none" stroke="black" cx="365.15" cy="-627" rx="35.19" ry="18"/>
<text text-anchor="middle" x="365.15" y="-623.3" font-family="Times,serif" font-size="14.00">(101)</text>
</g>
<!-- internal_26&#45;&gt;internal_22 -->
<g id="edge53" class="edge">
<title>internal_26&#45;&gt;internal_22</title>
<path fill="none" stroke="black" d="M345.73,-611.77C326.57,-597.73 297.13,-576.16 275.79,-560.52"/>
<polygon fill="black" stroke="black" points="277.61,-557.52 267.48,-554.43 273.47,-563.16 277.61,-557.52"/>
<text text-anchor="middle" x="319.15" y="-579.8" font-family="Times,serif" font-size="14.00">0</text>
</g>
<!-- internal_26&#45;&gt;internal_23 -->
<g id="edge54" class="edge">
<title>internal_26&#45;&gt;internal_23</title>
<path fill="none" stroke="black" d="M365.15,-608.8C365.15,-597.16 365.15,-581.55 365.15,-568.24"/>
<polygon fill="black" stroke="black" points="368.65,-568.18 365.15,-558.18 361.65,-568.18 368.65,-568.18"/>
<text text-anchor="middle" x="370.15" y="-579.8" font-family="Times,serif" font-size="14.00">1</text>
</g>
<!-- internal_27 -->
<g id="node58" class="node">
<title>internal_27</title>
<ellipse fill="none" stroke="black" cx="956.15" cy="-627" rx="35.19" ry="18"/>
<text text-anchor="middle" x="956.15" y="-623.3" font-family="Times,serif" font-size="14.00">(150)</text>
</g>
<!-- internal_27&#45;&gt;internal_24 -->
<g id="edge55" class="edge">
<title>internal_27&#45;&gt;internal_24</title>
<path fill="none" stroke="black" d="M956.15,-608.8C956.15,-597.16 956.15,-581.55 956.15,-568.24"/>
<polygon fill="black" stroke="black" points="959.65,-568.18 956.15,-558.18 952.65,-568.18 959.65,-568.18"/>
<text text-anchor="middle" x="961.15" y="-579.8" font-family="Times,serif" font-size="14.00">0</text>
</g>
<!-- internal_27&#45;&gt;internal_25 -->
<g id="edge56" class="edge">
<title>internal_27&#45;&gt;internal_25</title>
<path fill="none" stroke="black" d="M987.04,-618.23C1049.51,-602.52 1190.58,-567.05 1257.54,-550.21"/>
<polygon fill="black" stroke="black" points="1258.4,-553.6 1267.25,-547.76 1256.69,-546.81 1258.4,-553.6"/>
<text text-anchor="middle" x="1151.15" y="-579.8" font-family="Times,serif" font-size="14.00">1</text>
</g>
<!-- internal_28 -->
<g id="node59" class="node">
<title>internal_28</title>
<ellipse fill="none" stroke="black" cx="599.15" cy="-714" rx="35.19" ry="18"/>
<text text-anchor="middle" x="599.15" y="-710.3" font-family="Times,serif" font-size="14.00">(251)</text>
</g>
<!-- internal_28&#45;&gt;internal_26 -->
<g id="edge57" class="edge">
<title>internal_28&#45;&gt;internal_26</title>
<path fill="none" stroke="black" d="M571.38,-702.92C529.34,-687.64 449.44,-658.62 402.39,-641.53"/>
<polygon fill="black" stroke="black" points="403.47,-638.2 392.87,-638.07 401.08,-644.78 403.47,-638.2"/>
<text text-anchor="middle" x="502.15" y="-666.8" font-family="Times,serif" font-size="14.00">0</text>
</g>
<!-- internal_28&#45;&gt;internal_27 -->
<g id="edge58" class="edge">
<title>internal_28&#45;&gt;internal_27</title>
<path fill="none" stroke="black" d="M630.2,-705.61C694.55,-690.28 842.47,-655.06 914.8,-637.84"/>
<polygon fill="black" stroke="black" points="915.99,-641.16 924.91,-635.44 914.37,-634.35 915.99,-641.16"/>
<text text-anchor="middle" x="804.15" y="-666.8" font-family="Times,serif" font-size="14.00">1</text>
</g>
</g>
</svg>
