<?xml version="1.0" encoding="UTF-8" standalone="no"?>
<!DOCTYPE svg PUBLIC "-//W3C//DTD SVG 1.1//EN"
 "http://www.w3.org/Graphics/SVG/1.1/DTD/svg11.dtd">
<!-- Generated by graphviz version 2.43.0 (0)
 -->
<!-- Title: %3 Pages: 1 -->
<svg width="1703pt" height="740pt"
 viewBox="0.00 0.00 1703.09 740.00" xmlns="http://www.w3.org/2000/svg" xmlns:xlink="http://www.w3.org/1999/xlink">
<g id="graph0" class="graph" transform="scale(1 1) rotate(0) translate(4 736)">
<title>%3</title>
<polygon fill="white" stroke="transparent" points="-4,4 -4,-736 1699.09,-736 1699.09,4 -4,4"/>
<!-- leaf_0x6b -->
<g id="node1" class="node">
<title>leaf_0x6b</title>
<ellipse fill="none" stroke="black" cx="844.95" cy="-18" rx="40.09" ry="18"/>
<text text-anchor="middle" x="844.95" y="-14.3" font-family="Times,serif" font-size="14.00">&quot;k&quot; (1)</text>
</g>
<!-- leaf_0x62 -->
<g id="node2" class="node">
<title>leaf_0x62</title>
<ellipse fill="none" stroke="black" cx="943.95" cy="-18" rx="40.89" ry="18"/>
<text text-anchor="middle" x="943.95" y="-14.3" font-family="Times,serif" font-size="14.00">&quot;b&quot; (1)</text>
</g>
<!-- internal_0 -->
<g id="node3" class="node">
<title>internal_0</title>
<ellipse fill="none" stroke="black" cx="943.95" cy="-105" rx="27" ry="18"/>
<text text-anchor="middle" x="943.95" y="-101.3" font-family="Times,serif" font-size="14.00">(2)</text>
</g>
<!-- internal_0&#45;&gt;leaf_0x6b -->
<g id="edge1" class="edge">
<title>internal_0&#45;&gt;leaf_0x6b</title>
<path fill="none" stroke="black" d="M928.04,-90.34C912.59,-77.08 888.87,-56.71 870.72,-41.13"/>
<polygon fill="black" stroke="black" points="872.69,-38.21 862.82,-34.35 868.13,-43.52 872.69,-38.21"/>
<text text-anchor="middle" x="905.95" y="-57.8" font-family="Times,serif" font-size="14.00">0</text>
</g>
<!-- internal_0&#45;&gt;leaf_0x62 -->
<g id="edge2" class="edge">
<title>internal_0&#45;&gt;leaf_0x62</title>
<path fill="none" stroke="black" d="M943.95,-86.8C943.95,-75.16 943.95,-59.55 943.95,-46.24"/>
<polygon fill="black" stroke="black" points="947.45,-46.18 943.95,-36.18 940.45,-46.18 947.45,-46.18"/>
<text text-anchor="middle" x="948.95" y="-57.8" font-family="Times,serif" font-size="14.00">1</text>
</g>
<!-- leaf_0x3a -->
<g id="node4" class="node">
<title>leaf_0x3a</title>
<ellipse fill="none" stroke="black" cx="1040.95" cy="-18" rx="38.19" ry="18"/>
<text text-anchor="middle" x="1040.95" y="-14.3" font-family="Times,serif" font-size="14.00">&quot;:&quot; (1)</text>
</g>
<!-- leaf_0x49 -->
<g id="node5" class="node">
<title>leaf_0x49</title>
<ellipse fill="none" stroke="black" cx="1135.95" cy="-18" rx="38.19" ry="18"/>
<text text-anchor="middle" x="1135.95" y="-14.3" font-family="Times,serif" font-size="14.00">&quot;I&quot; (1)</text>
</g>
<!-- internal_1 -->
<g id="node6" class="node">
<title>internal_1</title>
<ellipse fill="none" stroke="black" cx="1040.95" cy="-105" rx="27" ry="18"/>
<text text-anchor="middle" x="1040.95" y="-101.3" font-family="Times,serif" font-size="14.00">(2)</text>
</g>
<!-- internal_1&#45;&gt;leaf_0x3a -->
<g id="edge3" class="edge">
<title>internal_1&#45;&gt;leaf_0x3a</title>
<path fill="none" stroke="black" d="M1040.95,-86.8C1040.95,-75.16 1040.95,-59.55 1040.95,-46.24"/>
<polygon fill="black" stroke="black" points="1044.45,-46.18 1040.95,-36.18 1037.45,-46.18 1044.45,-46.18"/>
<text text-anchor="middle" x="1045.95" y="-57.8" font-family="Times,serif" font-size="14.00">0</text>
</g>
<!-- internal_1&#45;&gt;leaf_0x49 -->
<g id="edge4" class="edge">
<title>internal_1&#45;&gt;leaf_0x49</title>
<path fill="none" stroke="black" d="M1056.63,-89.96C1071.53,-76.63 1094.16,-56.39 1111.44,-40.93"/>
<polygon fill="black" stroke="black" points="1113.83,-43.48 1118.95,-34.21 1109.17,-38.27 1113.83,-43.48"/>
<text text-anchor="middle" x="1098.95" y="-57.8" font-family="Times,serif" font-size="14.00">1</text>
</g>
<!-- leaf_0x54 -->
<g id="node7" class="node">
<title>leaf_0x54</title>
<ellipse fill="none" stroke="black" cx="40.95" cy="-105" rx="40.89" ry="18"/>
<text text-anchor="middle" x="40.95" y="-101.3" font-family="Times,serif" font-size="14.00">&quot;T&quot; (1)</text>
</g>
<!-- leaf_0x2c -->
<g id="node8" class="node">
<title>leaf_0x2c</title>
<ellipse fill="none" stroke="black" cx="137.95" cy="-105" rx="38.19" ry="18"/>
<text text-anchor="middle" x="137.95" y="-101.3" font-family="Times,serif" font-size="14.00">&quot;,&quot; (2)</text>
</g>
<!-- internal_2 -->
<g id="node9" class="node">
<title>internal_2</title>
<ellipse fill="none" stroke="black" cx="88.95" cy="-192" rx="27" ry="18"/>
<text text-anchor="middle" x="88.95" y="-188.3" font-family="Times,serif" font-size="14.00">(3)</text>
</g>
<!-- internal_2&#45;&gt;leaf_0x54 -->
<g id="edge5" class="edge">
<title>internal_2&#45;&gt;leaf_0x54</title>
<path fill="none" stroke="black" d="M79.92,-175.01C73.01,-162.78 63.35,-145.68 55.38,-131.56"/>
<polygon fill="black" stroke="black" points="58.39,-129.78 50.43,-122.79 52.3,-133.22 58.39,-129.78"/>
<text text-anchor="middle" x="72.95" y="-144.8" font-family="Times,serif" font-size="14.00">0</text>
</g>
<!-- internal_2&#45;&gt;leaf_0x2c -->
<g id="edge6" class="edge">
<title>internal_2&#45;&gt;leaf_0x2c</title>
<path fill="none" stroke="black" d="M98.16,-175.01C105.26,-162.7 115.2,-145.46 123.37,-131.28"/>
<polygon fill="black" stroke="black" points="126.47,-132.91 128.44,-122.5 120.41,-129.41 126.47,-132.91"/>
<text text-anchor="middle" x="121.95" y="-144.8" font-family="Times,serif" font-size="14.00">1</text>
</g>
<!-- internal_3 -->
<g id="node10" class="node">
<title>internal_3</title>
<ellipse fill="none" stroke="black" cx="1040.95" cy="-192" rx="27" ry="18"/>
<text text-anchor="middle" x="1040.95" y="-188.3" font-family="Times,serif" font-size="14.00">(4)</text>
</g>
<!-- internal_3&#45;&gt;internal_0 -->
<g id="edge7" class="edge">
<title>internal_3&#45;&gt;internal_0</title>
<path fill="none" stroke="black" d="M1024.93,-176.96C1009.25,-163.22 985.19,-142.14 967.36,-126.52"/>
<polygon fill="black" stroke="black" points="969.49,-123.73 959.67,-119.77 964.88,-129 969.49,-123.73"/>
<text text-anchor="middle" x="1002.95" y="-144.8" font-family="Times,serif" font-size="14.00">0</text>
</g>
<!-- internal_3&#45;&gt;internal_1 -->
<g id="edge8" class="edge">
<title>internal_3&#45;&gt;internal_1</title>
<path fill="none" stroke="black" d="M1040.95,-173.8C1040.95,-162.16 1040.95,-146.55 1040.95,-133.24"/>
<polygon fill="black" stroke="black" points="1044.45,-133.18 1040.95,-123.18 1037.45,-133.18 1044.45,-133.18"/>
<text text-anchor="middle" x="1045.95" y="-144.8" font-family="Times,serif" font-size="14.00">1</text>
</g>
<!-- leaf_0x6d -->
<g id="node11" class="node">
<title>leaf_0x6d</title>
<ellipse fill="none" stroke="black" cx="1129.95" cy="-105" rx="44.39" ry="18"/>
<text text-anchor="middle" x="1129.95" y="-101.3" font-family="Times,serif" font-size="14.00">&quot;m&quot; (2)</text>
</g>
<!-- leaf_0x70 -->
<g id="node12" class="node">
<title>leaf_0x70</title>
<ellipse fill="none" stroke="black" cx="1232.95" cy="-105" rx="40.89" ry="18"/>
<text text-anchor="middle" x="1232.95" y="-101.3" font-family="Times,serif" font-size="14.00">&quot;p&quot; (2)</text>
</g>
<!-- internal_4 -->
<g id="node13" class="node">
<title>internal_4</title>
<ellipse fill="none" stroke="black" cx="1129.95" cy="-192" rx="27" ry="18"/>
<text text-anchor="middle" x="1129.95" y="-188.3" font-family="Times,serif" font-size="14.00">(4)</text>
</g>
<!-- internal_4&#45;&gt;leaf_0x6d -->
<g id="edge9" class="edge">
<title>internal_4&#45;&gt;leaf_0x6d</title>
<path fill="none" stroke="black" d="M1129.95,-173.8C1129.95,-162.16 1129.95,-146.55 1129.95,-133.24"/>
<polygon fill="black" stroke="black" points="1133.45,-133.18 1129.95,-123.18 1126.45,-133.18 1133.45,-133.18"/>
<text text-anchor="middle" x="1134.95" y="-144.8" font-family="Times,serif" font-size="14.00">0</text>
</g>
<!-- internal_4&#45;&gt;leaf_0x70 -->
<g id="edge10" class="edge">
<title>internal_4&#45;&gt;leaf_0x70</title>
<path fill="none" stroke="black" d="M1146.5,-177.34C1162.64,-164.02 1187.47,-143.53 1206.39,-127.92"/>
<polygon fill="black" stroke="black" points="1208.86,-130.41 1214.35,-121.35 1204.41,-125.01 1208.86,-130.41"/>
<text text-anchor="middle" x="1191.95" y="-144.8" font-family="Times,serif" font-size="14.00">1</text>
</g>
<!-- leaf_0x4d -->
<g id="node14" class="node">
<title>leaf_0x4d</title>
<ellipse fill="none" stroke="black" cx="177.95" cy="-192" rx="44.39" ry="18"/>
<text text-anchor="middle" x="177.95" y="-188.3" font-family="Times,serif" font-size="14.00">&quot;M&quot; (3)</text>
</g>
<!-- internal_5 -->
<g id="node15" class="node">
<title>internal_5</title>
<ellipse fill="none" stroke="black" cx="146.95" cy="-279" rx="27" ry="18"/>
<text text-anchor="middle" x="146.95" y="-275.3" font-family="Times,serif" font-size="14.00">(6)</text>
</g>
<!-- internal_5&#45;&gt;internal_2 -->
<g id="edge12" class="edge">
<title>internal_5&#45;&gt;internal_2</title>
<path fill="none" stroke="black" d="M136.31,-262.41C127.7,-249.79 115.41,-231.79 105.51,-217.28"/>
<polygon fill="black" stroke="black" points="108.24,-215.07 99.71,-208.78 102.46,-219.01 108.24,-215.07"/>
<text text-anchor="middle" x="126.95" y="-231.8" font-family="Times,serif" font-size="14.00">1</text>
</g>
<!-- internal_5&#45;&gt;leaf_0x4d -->
<g id="edge11" class="edge">
<title>internal_5&#45;&gt;leaf_0x4d</title>
<path fill="none" stroke="black" d="M153.07,-261.21C157.37,-249.41 163.22,-233.38 168.16,-219.82"/>
<polygon fill="black" stroke="black" points="171.59,-220.64 171.73,-210.05 165.01,-218.24 171.59,-220.64"/>
<text text-anchor="middle" x="169.95" y="-231.8" font-family="Times,serif" font-size="14.00">0</text>
</g>
<!-- leaf_0x2d -->
<g id="node16" class="node">
<title>leaf_0x2d</title>
<ellipse fill="none" stroke="black" cx="653.95" cy="-192" rx="38.19" ry="18"/>
<text text-anchor="middle" x="653.95" y="-188.3" font-family="Times,serif" font-size="14.00">&quot;&#45;&quot; (3)</text>
</g>
<!-- leaf_0x2e -->
<g id="node17" class="node">
<title>leaf_0x2e</title>
<ellipse fill="none" stroke="black" cx="748.95" cy="-192" rx="38.19" ry="18"/>
<text text-anchor="middle" x="748.95" y="-188.3" font-family="Times,serif" font-size="14.00">&quot;.&quot; (4)</text>
</g>
<!-- internal_6 -->
<g id="node18" class="node">
<title>internal_6</title>
<ellipse fill="none" stroke="black" cx="700.95" cy="-279" rx="27" ry="18"/>
<text text-anchor="middle" x="700.95" y="-275.3" font-family="Times,serif" font-size="14.00">(7)</text>
</g>
<!-- internal_6&#45;&gt;leaf_0x2d -->
<g id="edge13" class="edge">
<title>internal_6&#45;&gt;leaf_0x2d</title>
<path fill="none" stroke="black" d="M691.88,-261.61C685.17,-249.46 675.88,-232.66 668.17,-218.73"/>
<polygon fill="black" stroke="black" points="671.04,-216.69 663.14,-209.63 664.92,-220.07 671.04,-216.69"/>
<text text-anchor="middle" x="685.95" y="-231.8" font-family="Times,serif" font-size="14.00">0</text>
</g>
<!-- internal_6&#45;&gt;leaf_0x2e -->
<g id="edge14" class="edge">
<title>internal_6&#45;&gt;leaf_0x2e</title>
<path fill="none" stroke="black" d="M709.97,-262.01C716.93,-249.7 726.67,-232.46 734.67,-218.28"/>
<polygon fill="black" stroke="black" points="737.76,-219.92 739.63,-209.5 731.67,-216.48 737.76,-219.92"/>
<text text-anchor="middle" x="732.95" y="-231.8" font-family="Times,serif" font-size="14.00">1</text>
</g>
<!-- internal_7 -->
<g id="node19" class="node">
<title>internal_7</title>
<ellipse fill="none" stroke="black" cx="1078.95" cy="-279" rx="27" ry="18"/>
<text text-anchor="middle" x="1078.95" y="-275.3" font-family="Times,serif" font-size="14.00">(8)</text>
</g>
<!-- internal_7&#45;&gt;internal_3 -->
<g id="edge16" class="edge">
<title>internal_7&#45;&gt;internal_3</title>
<path fill="none" stroke="black" d="M1071.62,-261.61C1066.2,-249.5 1058.73,-232.77 1052.51,-218.86"/>
<polygon fill="black" stroke="black" points="1055.53,-217.04 1048.25,-209.34 1049.14,-219.9 1055.53,-217.04"/>
<text text-anchor="middle" x="1066.95" y="-231.8" font-family="Times,serif" font-size="14.00">1</text>
</g>
<!-- internal_7&#45;&gt;internal_4 -->
<g id="edge15" class="edge">
<title>internal_7&#45;&gt;internal_4</title>
<path fill="none" stroke="black" d="M1088.54,-262.01C1096.02,-249.55 1106.54,-232.01 1115.1,-217.74"/>
<polygon fill="black" stroke="black" points="1118.25,-219.29 1120.4,-208.92 1112.25,-215.69 1118.25,-219.29"/>
<text text-anchor="middle" x="1111.95" y="-231.8" font-family="Times,serif" font-size="14.00">0</text>
</g>
<!-- leaf_0x76 -->
<g id="node20" class="node">
<title>leaf_0x76</title>
<ellipse fill="none" stroke="black" cx="231.95" cy="-279" rx="40.09" ry="18"/>
<text text-anchor="middle" x="231.95" y="-275.3" font-family="Times,serif" font-size="14.00">&quot;v&quot; (5)</text>
</g>
<!-- internal_8 -->
<g id="node21" class="node">
<title>internal_8</title>
<ellipse fill="none" stroke="black" cx="201.95" cy="-366" rx="29.5" ry="18"/>
<text text-anchor="middle" x="201.95" y="-362.3" font-family="Times,serif" font-size="14.00">(11)</text>
</g>
<!-- internal_8&#45;&gt;internal_5 -->
<g id="edge18" class="edge">
<title>internal_8&#45;&gt;internal_5</title>
<path fill="none" stroke="black" d="M191.6,-349.01C183.46,-336.43 171.97,-318.68 162.69,-304.33"/>
<polygon fill="black" stroke="black" points="165.62,-302.41 157.25,-295.92 159.74,-306.21 165.62,-302.41"/>
<text text-anchor="middle" x="182.95" y="-318.8" font-family="Times,serif" font-size="14.00">1</text>
</g>
<!-- internal_8&#45;&gt;leaf_0x76 -->
<g id="edge17" class="edge">
<title>internal_8&#45;&gt;leaf_0x76</title>
<path fill="none" stroke="black" d="M207.87,-348.21C212.04,-336.41 217.7,-320.38 222.48,-306.82"/>
<polygon fill="black" stroke="black" points="225.9,-307.64 225.93,-297.05 219.3,-305.31 225.9,-307.64"/>
<text text-anchor="middle" x="223.95" y="-318.8" font-family="Times,serif" font-size="14.00">0</text>
</g>
<!-- leaf_0x63 -->
<g id="node22" class="node">
<title>leaf_0x63</title>
<ellipse fill="none" stroke="black" cx="512.95" cy="-279" rx="40.09" ry="18"/>
<text text-anchor="middle" x="512.95" y="-275.3" font-family="Times,serif" font-size="14.00">&quot;c&quot; (6)</text>
</g>
<!-- leaf_0x66 -->
<g id="node23" class="node">
<title>leaf_0x66</title>
<ellipse fill="none" stroke="black" cx="609.95" cy="-279" rx="38.19" ry="18"/>
<text text-anchor="middle" x="609.95" y="-275.3" font-family="Times,serif" font-size="14.00">&quot;f&quot; (7)</text>
</g>
<!-- internal_9 -->
<g id="node24" class="node">
<title>internal_9</title>
<ellipse fill="none" stroke="black" cx="605.95" cy="-366" rx="29.5" ry="18"/>
<text text-anchor="middle" x="605.95" y="-362.3" font-family="Times,serif" font-size="14.00">(13)</text>
</g>
<!-- internal_9&#45;&gt;leaf_0x63 -->
<g id="edge19" class="edge">
<title>internal_9&#45;&gt;leaf_0x63</title>
<path fill="none" stroke="black" d="M590.17,-350.58C575.83,-337.47 554.43,-317.92 537.8,-302.71"/>
<polygon fill="black" stroke="black" points="539.81,-299.81 530.06,-295.64 535.08,-304.97 539.81,-299.81"/>
<text text-anchor="middle" x="570.95" y="-318.8" font-family="Times,serif" font-size="14.00">0</text>
</g>
<!-- internal_9&#45;&gt;leaf_0x66 -->
<g id="edge20" class="edge">
<title>internal_9&#45;&gt;leaf_0x66</title>
<path fill="none" stroke="black" d="M606.76,-347.8C607.3,-336.16 608.04,-320.55 608.66,-307.24"/>
<polygon fill="black" stroke="black" points="612.16,-307.33 609.14,-297.18 605.17,-307 612.16,-307.33"/>
<text text-anchor="middle" x="613.95" y="-318.8" font-family="Times,serif" font-size="14.00">1</text>
</g>
<!-- leaf_0x75 -->
<g id="node25" class="node">
<title>leaf_0x75</title>
<ellipse fill="none" stroke="black" cx="786.95" cy="-279" rx="40.89" ry="18"/>
<text text-anchor="middle" x="786.95" y="-275.3" font-family="Times,serif" font-size="14.00">&quot;u&quot; (7)</text>
</g>
<!-- internal_10 -->
<g id="node26" class="node">
<title>internal_10</title>
<ellipse fill="none" stroke="black" cx="791.95" cy="-366" rx="29.5" ry="18"/>
<text text-anchor="middle" x="791.95" y="-362.3" font-family="Times,serif" font-size="14.00">(14)</text>
</g>
<!-- internal_10&#45;&gt;internal_6 -->
<g id="edge22" class="edge">
<title>internal_10&#45;&gt;internal_6</title>
<path fill="none" stroke="black" d="M776.51,-350.58C762.04,-337.07 740.23,-316.7 723.76,-301.31"/>
<polygon fill="black" stroke="black" points="725.85,-298.47 716.16,-294.21 721.07,-303.59 725.85,-298.47"/>
<text text-anchor="middle" x="756.95" y="-318.8" font-family="Times,serif" font-size="14.00">1</text>
</g>
<!-- internal_10&#45;&gt;leaf_0x75 -->
<g id="edge21" class="edge">
<title>internal_10&#45;&gt;leaf_0x75</title>
<path fill="none" stroke="black" d="M790.93,-347.8C790.25,-336.16 789.33,-320.55 788.55,-307.24"/>
<polygon fill="black" stroke="black" points="792.04,-306.95 787.96,-297.18 785.05,-307.36 792.04,-306.95"/>
<text text-anchor="middle" x="794.95" y="-318.8" font-family="Times,serif" font-size="14.00">0</text>
</g>
<!-- leaf_0x0a -->
<g id="node27" class="node">
<title>leaf_0x0a</title>
<ellipse fill="none" stroke="black" cx="889.95" cy="-279" rx="44.39" ry="18"/>
<text text-anchor="middle" x="889.95" y="-275.3" font-family="Times,serif" font-size="14.00">&quot;\n&quot; (7)</text>
</g>
<!-- leaf_0x64 -->
<g id="node28" class="node">
<title>leaf_0x64</title>
<ellipse fill="none" stroke="black" cx="992.95" cy="-279" rx="40.89" ry="18"/>
<text text-anchor="middle" x="992.95" y="-275.3" font-family="Times,serif" font-size="14.00">&quot;d&quot; (7)</text>
</g>
<!-- internal_11 -->
<g id="node29" class="node">
<title>internal_11</title>
<ellipse fill="none" stroke="black" cx="889.95" cy="-366" rx="29.5" ry="18"/>
<text text-anchor="middle" x="889.95" y="-362.3" font-family="Times,serif" font-size="14.00">(14)</text>
</g>
<!-- internal_11&#45;&gt;leaf_0x0a -->
<g id="edge23" class="edge">
<title>internal_11&#45;&gt;leaf_0x0a</title>
<path fill="none" stroke="black" d="M889.95,-347.8C889.95,-336.16 889.95,-320.55 889.95,-307.24"/>
<polygon fill="black" stroke="black" points="893.45,-307.18 889.95,-297.18 886.45,-307.18 893.45,-307.18"/>
<text text-anchor="middle" x="894.95" y="-318.8" font-family="Times,serif" font-size="14.00">0</text>
</g>
<!-- internal_11&#45;&gt;leaf_0x64 -->
<g id="edge24" class="edge">
<title>internal_11&#45;&gt;leaf_0x64</title>
<path fill="none" stroke="black" d="M906.95,-350.96C923.18,-337.57 947.86,-317.21 966.63,-301.72"/>
<polygon fill="black" stroke="black" points="969.04,-304.27 974.52,-295.21 964.58,-298.87 969.04,-304.27"/>
<text text-anchor="middle" x="952.95" y="-318.8" font-family="Times,serif" font-size="14.00">1</text>
</g>
<!-- leaf_0x67 -->
<g id="node30" class="node">
<title>leaf_0x67</title>
<ellipse fill="none" stroke="black" cx="1164.95" cy="-279" rx="40.89" ry="18"/>
<text text-anchor="middle" x="1164.95" y="-275.3" font-family="Times,serif" font-size="14.00">&quot;g&quot; (8)</text>
</g>
<!-- internal_12 -->
<g id="node31" class="node">
<title>internal_12</title>
<ellipse fill="none" stroke="black" cx="1164.95" cy="-366" rx="29.5" ry="18"/>
<text text-anchor="middle" x="1164.95" y="-362.3" font-family="Times,serif" font-size="14.00">(16)</text>
</g>
<!-- internal_12&#45;&gt;internal_7 -->
<g id="edge25" class="edge">
<title>internal_12&#45;&gt;internal_7</title>
<path fill="none" stroke="black" d="M1149.97,-350.19C1136.32,-336.71 1116,-316.62 1100.59,-301.39"/>
<polygon fill="black" stroke="black" points="1103.04,-298.89 1093.47,-294.35 1098.12,-303.87 1103.04,-298.89"/>
<text text-anchor="middle" x="1131.95" y="-318.8" font-family="Times,serif" font-size="14.00">0</text>
</g>
<!-- internal_12&#45;&gt;leaf_0x67 -->
<g id="edge26" class="edge">
<title>internal_12&#45;&gt;leaf_0x67</title>
<path fill="none" stroke="black" d="M1164.95,-347.8C1164.95,-336.16 1164.95,-320.55 1164.95,-307.24"/>
<polygon fill="black" stroke="black" points="1168.45,-307.18 1164.95,-297.18 1161.45,-307.18 1168.45,-307.18"/>
<text text-anchor="middle" x="1169.95" y="-318.8" font-family="Times,serif" font-size="14.00">1</text>
</g>
<!-- leaf_0x68 -->
<g id="node32" class="node">
<title>leaf_0x68</title>
<ellipse fill="none" stroke="black" cx="1264.95" cy="-279" rx="40.89" ry="18"/>
<text text-anchor="middle" x="1264.95" y="-275.3" font-family="Times,serif" font-size="14.00">&quot;h&quot; (8)</text>
</g>
<!-- leaf_0x6c -->
<g id="node33" class="node">
<title>leaf_0x6c</title>
<ellipse fill="none" stroke="black" cx="1361.95" cy="-279" rx="38.19" ry="18"/>
<text text-anchor="middle" x="1361.95" y="-275.3" font-family="Times,serif" font-size="14.00">&quot;l&quot; (8)</text>
</g>
<!-- internal_13 -->
<g id="node34" class="node">
<title>internal_13</title>
<ellipse fill="none" stroke="black" cx="1358.95" cy="-366" rx="29.5" ry="18"/>
<text text-anchor="middle" x="1358.95" y="-362.3" font-family="Times,serif" font-size="14.00">(16)</text>
</g>
<!-- internal_13&#45;&gt;leaf_0x68 -->
<g id="edge27" class="edge">
<title>internal_13&#45;&gt;leaf_0x68</title>
<path fill="none" stroke="black" d="M1343,-350.58C1328.51,-337.47 1306.88,-317.92 1290.06,-302.71"/>
<polygon fill="black" stroke="black" points="1292.01,-299.76 1282.25,-295.64 1287.32,-304.95 1292.01,-299.76"/>
<text text-anchor="middle" x="1321.95" y="-318.8" font-family="Times,serif" font-size="14.00">0</text>
</g>
<!-- internal_13&#45;&gt;leaf_0x6c -->
<g id="edge28" class="edge">
<title>internal_13&#45;&gt;leaf_0x6c</title>
<path fill="none" stroke="black" d="M1359.55,-347.8C1359.96,-336.16 1360.52,-320.55 1360.99,-307.24"/>
<polygon fill="black" stroke="black" points="1364.49,-307.29 1361.34,-297.18 1357.49,-307.05 1364.49,-307.29"/>
<text text-anchor="middle" x="1364.95" y="-318.8" font-family="Times,serif" font-size="14.00">1</text>
</g>
<!-- leaf_0x74 -->
<g id="node35" class="node">
<title>leaf_0x74</title>
<ellipse fill="none" stroke="black" cx="1456.95" cy="-279" rx="38.99" ry="18"/>
<text text-anchor="middle" x="1456.95" y="-275.3" font-family="Times,serif" font-size="14.00">&quot;t&quot; (9)</text>
</g>
<!-- leaf_0x79 -->
<g id="node36" class="node">
<title>leaf_0x79</title>
<ellipse fill="none" stroke="black" cx="1559.95" cy="-279" rx="46.29" ry="18"/>
<text text-anchor="middle" x="1559.95" y="-275.3" font-family="Times,serif" font-size="14.00">&quot;y&quot; (10)</text>
</g>
<!-- internal_14 -->
<g id="node37" class="node">
<title>internal_14</title>
<ellipse fill="none" stroke="black" cx="1445.95" cy="-366" rx="29.5" ry="18"/>
<text text-anchor="middle" x="1445.95" y="-362.3" font-family="Times,serif" font-size="14.00">(19)</text>
</g>
<!-- internal_14&#45;&gt;leaf_0x74 -->
<g id="edge29" class="edge">
<title>internal_14&#45;&gt;leaf_0x74</title>
<path fill="none" stroke="black" d="M1448.17,-347.8C1449.68,-336.16 1451.7,-320.55 1453.42,-307.24"/>
<polygon fill="black" stroke="black" points="1456.91,-307.54 1454.72,-297.18 1449.97,-306.64 1456.91,-307.54"/>
<text text-anchor="middle" x="1456.95" y="-318.8" font-family="Times,serif" font-size="14.00">0</text>
</g>
<!-- internal_14&#45;&gt;leaf_0x79 -->
<g id="edge30" class="edge">
<title>internal_14&#45;&gt;leaf_0x79</title>
<path fill="none" stroke="black" d="M1463.76,-351.72C1481.89,-338.2 1510.28,-317.03 1531.52,-301.19"/>
<polygon fill="black" stroke="black" points="1533.64,-303.98 1539.57,-295.2 1529.46,-298.37 1533.64,-303.98"/>
<text text-anchor="middle" x="1513.95" y="-318.8" font-family="Times,serif" font-size="14.00">1</text>
</g>
<!-- leaf_0x6e -->
<g id="node38" class="node">
<title>leaf_0x6e</title>
<ellipse fill="none" stroke="black" cx="295.95" cy="-366" rx="46.59" ry="18"/>
<text text-anchor="middle" x="295.95" y="-362.3" font-family="Times,serif" font-size="14.00">&quot;n&quot; (11)</text>
</g>
<!-- internal_15 -->
<g id="node39" class="node">
<title>internal_15</title>
<ellipse fill="none" stroke="black" cx="295.95" cy="-453" rx="29.5" ry="18"/>
<text text-anchor="middle" x="295.95" y="-449.3" font-family="Times,serif" font-size="14.00">(22)</text>
</g>
<!-- internal_15&#45;&gt;internal_8 -->
<g id="edge32" class="edge">
<title>internal_15&#45;&gt;internal_8</title>
<path fill="none" stroke="black" d="M280,-437.58C265.06,-424.07 242.53,-403.7 225.51,-388.31"/>
<polygon fill="black" stroke="black" points="227.42,-385.32 217.66,-381.21 222.73,-390.51 227.42,-385.32"/>
<text text-anchor="middle" x="259.95" y="-405.8" font-family="Times,serif" font-size="14.00">1</text>
</g>
<!-- internal_15&#45;&gt;leaf_0x6e -->
<g id="edge31" class="edge">
<title>internal_15&#45;&gt;leaf_0x6e</title>
<path fill="none" stroke="black" d="M295.95,-434.8C295.95,-423.16 295.95,-407.55 295.95,-394.24"/>
<polygon fill="black" stroke="black" points="299.45,-394.18 295.95,-384.18 292.45,-394.18 299.45,-394.18"/>
<text text-anchor="middle" x="300.95" y="-405.8" font-family="Times,serif" font-size="14.00">0</text>
</g>
<!-- leaf_0x73 -->
<g id="node40" class="node">
<title>leaf_0x73</title>
<ellipse fill="none" stroke="black" cx="406.95" cy="-366" rx="46.29" ry="18"/>
<text text-anchor="middle" x="406.95" y="-362.3" font-family="Times,serif" font-size="14.00">&quot;s&quot; (12)</text>
</g>
<!-- leaf_0x69 -->
<g id="node41" class="node">
<title>leaf_0x69</title>
<ellipse fill="none" stroke="black" cx="514.95" cy="-366" rx="44.39" ry="18"/>
<text text-anchor="middle" x="514.95" y="-362.3" font-family="Times,serif" font-size="14.00">&quot;i&quot; (13)</text>
</g>
<!-- internal_16 -->
<g id="node42" class="node">
<title>internal_16</title>
<ellipse fill="none" stroke="black" cx="468.95" cy="-453" rx="29.5" ry="18"/>
<text text-anchor="middle" x="468.95" y="-449.3" font-family="Times,serif" font-size="14.00">(25)</text>
</g>
<!-- internal_16&#45;&gt;leaf_0x73 -->
<g id="edge33" class="edge">
<title>internal_16&#45;&gt;leaf_0x73</title>
<path fill="none" stroke="black" d="M457.57,-436.41C448.54,-424.03 435.73,-406.47 425.26,-392.11"/>
<polygon fill="black" stroke="black" points="427.81,-389.67 419.09,-383.65 422.16,-393.8 427.81,-389.67"/>
<text text-anchor="middle" x="446.95" y="-405.8" font-family="Times,serif" font-size="14.00">0</text>
</g>
<!-- internal_16&#45;&gt;leaf_0x69 -->
<g id="edge34" class="edge">
<title>internal_16&#45;&gt;leaf_0x69</title>
<path fill="none" stroke="black" d="M477.82,-435.61C484.39,-423.46 493.48,-406.66 501.02,-392.73"/>
<polygon fill="black" stroke="black" points="504.27,-394.09 505.95,-383.63 498.11,-390.76 504.27,-394.09"/>
<text text-anchor="middle" x="499.95" y="-405.8" font-family="Times,serif" font-size="14.00">1</text>
</g>
<!-- leaf_0x72 -->
<g id="node43" class="node">
<title>leaf_0x72</title>
<ellipse fill="none" stroke="black" cx="698.95" cy="-366" rx="45.49" ry="18"/>
<text text-anchor="middle" x="698.95" y="-362.3" font-family="Times,serif" font-size="14.00">&quot;r&quot; (13)</text>
</g>
<!-- internal_17 -->
<g id="node44" class="node">
<title>internal_17</title>
<ellipse fill="none" stroke="black" cx="698.95" cy="-453" rx="29.5" ry="18"/>
<text text-anchor="middle" x="698.95" y="-449.3" font-family="Times,serif" font-size="14.00">(26)</text>
</g>
<!-- internal_17&#45;&gt;internal_9 -->
<g id="edge35" class="edge">
<title>internal_17&#45;&gt;internal_9</title>
<path fill="none" stroke="black" d="M683.17,-437.58C668.47,-424.15 646.37,-403.94 629.57,-388.59"/>
<polygon fill="black" stroke="black" points="631.54,-385.65 621.8,-381.49 626.82,-390.82 631.54,-385.65"/>
<text text-anchor="middle" x="663.95" y="-405.8" font-family="Times,serif" font-size="14.00">0</text>
</g>
<!-- internal_17&#45;&gt;leaf_0x72 -->
<g id="edge36" class="edge">
<title>internal_17&#45;&gt;leaf_0x72</title>
<path fill="none" stroke="black" d="M698.95,-434.8C698.95,-423.16 698.95,-407.55 698.95,-394.24"/>
<polygon fill="black" stroke="black" points="702.45,-394.18 698.95,-384.18 695.45,-394.18 702.45,-394.18"/>
<text text-anchor="middle" x="703.95" y="-405.8" font-family="Times,serif" font-size="14.00">1</text>
</g>
<!-- internal_18 -->
<g id="node45" class="node">
<title>internal_18</title>
<ellipse fill="none" stroke="black" cx="791.95" cy="-453" rx="29.5" ry="18"/>
<text text-anchor="middle" x="791.95" y="-449.3" font-family="Times,serif" font-size="14.00">(28)</text>
</g>
<!-- internal_18&#45;&gt;internal_10 -->
<g id="edge38" class="edge">
<title>internal_18&#45;&gt;internal_10</title>
<path fill="none" stroke="black" d="M791.95,-434.8C791.95,-423.16 791.95,-407.55 791.95,-394.24"/>
<polygon fill="black" stroke="black" points="795.45,-394.18 791.95,-384.18 788.45,-394.18 795.45,-394.18"/>
<text text-anchor="middle" x="796.95" y="-405.8" font-family="Times,serif" font-size="14.00">1</text>
</g>
<!-- internal_18&#45;&gt;internal_11 -->
<g id="edge37" class="edge">
<title>internal_18&#45;&gt;internal_11</title>
<path fill="none" stroke="black" d="M808.13,-437.96C823.88,-424.31 847.99,-403.39 865.96,-387.8"/>
<polygon fill="black" stroke="black" points="868.48,-390.25 873.74,-381.06 863.89,-384.97 868.48,-390.25"/>
<text text-anchor="middle" x="851.95" y="-405.8" font-family="Times,serif" font-size="14.00">0</text>
</g>
<!-- leaf_0x61 -->
<g id="node46" class="node">
<title>leaf_0x61</title>
<ellipse fill="none" stroke="black" cx="1262.95" cy="-366" rx="46.29" ry="18"/>
<text text-anchor="middle" x="1262.95" y="-362.3" font-family="Times,serif" font-size="14.00">&quot;a&quot; (14)</text>
</g>
<!-- internal_19 -->
<g id="node47" class="node">
<title>internal_19</title>
<ellipse fill="none" stroke="black" cx="1262.95" cy="-453" rx="29.5" ry="18"/>
<text text-anchor="middle" x="1262.95" y="-449.3" font-family="Times,serif" font-size="14.00">(30)</text>
</g>
<!-- internal_19&#45;&gt;internal_12 -->
<g id="edge40" class="edge">
<title>internal_19&#45;&gt;internal_12</title>
<path fill="none" stroke="black" d="M1246.76,-437.96C1231.02,-424.31 1206.9,-403.39 1188.93,-387.8"/>
<polygon fill="black" stroke="black" points="1191,-384.97 1181.15,-381.06 1186.41,-390.25 1191,-384.97"/>
<text text-anchor="middle" x="1223.95" y="-405.8" font-family="Times,serif" font-size="14.00">1</text>
</g>
<!-- internal_19&#45;&gt;leaf_0x61 -->
<g id="edge39" class="edge">
<title>internal_19&#45;&gt;leaf_0x61</title>
<path fill="none" stroke="black" d="M1262.95,-434.8C1262.95,-423.16 1262.95,-407.55 1262.95,-394.24"/>
<polygon fill="black" stroke="black" points="1266.45,-394.18 1262.95,-384.18 1259.45,-394.18 1266.45,-394.18"/>
<text text-anchor="middle" x="1267.95" y="-405.8" font-family="Times,serif" font-size="14.00">0</text>
</g>
<!-- internal_20 -->
<g id="node48" class="node">
<title>internal_20</title>
<ellipse fill="none" stroke="black" cx="1358.95" cy="-453" rx="29.5" ry="18"/>
<text text-anchor="middle" x="1358.95" y="-449.3" font-family="Times,serif" font-size="14.00">(35)</text>
</g>
<!-- internal_20&#45;&gt;internal_13 -->
<g id="edge41" class="edge">
<title>internal_20&#45;&gt;internal_13</title>
<path fill="none" stroke="black" d="M1358.95,-434.8C1358.95,-423.16 1358.95,-407.55 1358.95,-394.24"/>
<polygon fill="black" stroke="black" points="1362.45,-394.18 1358.95,-384.18 1355.45,-394.18 1362.45,-394.18"/>
<text text-anchor="middle" x="1363.95" y="-405.8" font-family="Times,serif" font-size="14.00">0</text>
</g>
<!-- internal_20&#45;&gt;internal_14 -->
<g id="edge42" class="edge">
<title>internal_20&#45;&gt;internal_14</title>
<path fill="none" stroke="black" d="M1374.1,-437.19C1387.82,-423.79 1408.21,-403.87 1423.77,-388.67"/>
<polygon fill="black" stroke="black" points="1426.26,-391.13 1430.97,-381.64 1421.37,-386.12 1426.26,-391.13"/>
<text text-anchor="middle" x="1411.95" y="-405.8" font-family="Times,serif" font-size="14.00">1</text>
</g>
<!-- leaf_0x6f -->
<g id="node49" class="node">
<title>leaf_0x6f</title>
<ellipse fill="none" stroke="black" cx="1538.95" cy="-366" rx="46.29" ry="18"/>
<text text-anchor="middle" x="1538.95" y="-362.3" font-family="Times,serif" font-size="14.00">&quot;o&quot; (21)</text>
</g>
<!-- leaf_0x65 -->
<g id="node50" class="node">
<title>leaf_0x65</title>
<ellipse fill="none" stroke="black" cx="1648.95" cy="-366" rx="46.29" ry="18"/>
<text text-anchor="middle" x="1648.95" y="-362.3" font-family="Times,serif" font-size="14.00">&quot;e&quot; (22)</text>
</g>
<!-- internal_21 -->
<g id="node51" class="node">
<title>internal_21</title>
<ellipse fill="none" stroke="black" cx="1538.95" cy="-453" rx="29.5" ry="18"/>
<text text-anchor="middle" x="1538.95" y="-449.3" font-family="Times,serif" font-size="14.00">(43)</text>
</g>
<!-- internal_21&#45;&gt;leaf_0x6f -->
<g id="edge43" class="edge">
<title>internal_21&#45;&gt;leaf_0x6f</title>
<path fill="none" stroke="black" d="M1538.95,-434.8C1538.95,-423.16 1538.95,-407.55 1538.95,-394.24"/>
<polygon fill="black" stroke="black" points="1542.45,-394.18 1538.95,-384.18 1535.45,-394.18 1542.45,-394.18"/>
<text text-anchor="middle" x="1543.95" y="-405.8" font-family="Times,serif" font-size="14.00">0</text>
</g>
<!-- internal_21&#45;&gt;leaf_0x65 -->
<g id="edge44" class="edge">
<title>internal_21&#45;&gt;leaf_0x65</title>
<path fill="none" stroke="black" d="M1556.62,-438.34C1574.02,-424.9 1600.86,-404.16 1621.12,-388.5"/>
<polygon fill="black" stroke="black" points="1623.31,-391.23 1629.08,-382.35 1619.03,-385.69 1623.31,-391.23"/>
<text text-anchor="middle" x="1604.95" y="-405.8" font-family="Times,serif" font-size="14.00">1</text>
</g>
<!-- internal_22 -->
<g id="node52" class="node">
<title>internal_22</title>
<ellipse fill="none" stroke="black" cx="468.95" cy="-540" rx="29.5" ry="18"/>
<text text-anchor="middle" x="468.95" y="-536.3" font-family="Times,serif" font-size="14.00">(47)</text>
</g>
<!-- internal_22&#45;&gt;internal_15 -->
<g id="edge45" class="edge">
<title>internal_22&#45;&gt;internal_15</title>
<path fill="none" stroke="black" d="M446.68,-528.06C416.32,-513.14 361.76,-486.34 327.28,-469.4"/>
<polygon fill="black" stroke="black" points="328.64,-466.16 318.12,-464.9 325.56,-472.45 328.64,-466.16"/>
<text text-anchor="middle" x="397.95" y="-492.8" font-family="Times,serif" font-size="14.00">0</text>
</g>
<!-- internal_22&#45;&gt;internal_16 -->
<g id="edge46" class="edge">
<title>internal_22&#45;&gt;internal_16</title>
<path fill="none" stroke="black" d="M468.95,-521.8C468.95,-510.16 468.95,-494.55 468.95,-481.24"/>
<polygon fill="black" stroke="black" points="472.45,-481.18 468.95,-471.18 465.45,-481.18 472.45,-481.18"/>
<text text-anchor="middle" x="473.95" y="-492.8" font-family="Times,serif" font-size="14.00">1</text>
</g>
<!-- internal_23 -->
<g id="node53" class="node">
<title>internal_23</title>
<ellipse fill="none" stroke="black" cx="729.95" cy="-540" rx="29.5" ry="18"/>
<text text-anchor="middle" x="729.95" y="-536.3" font-family="Times,serif" font-size="14.00">(54)</text>
</g>
<!-- internal_23&#45;&gt;internal_17 -->
<g id="edge47" class="edge">
<title>internal_23&#45;&gt;internal_17</title>
<path fill="none" stroke="black" d="M723.82,-522.21C719.45,-510.22 713.48,-493.85 708.49,-480.16"/>
<polygon fill="black" stroke="black" points="711.77,-478.95 705.06,-470.76 705.2,-481.35 711.77,-478.95"/>
<text text-anchor="middle" x="721.95" y="-492.8" font-family="Times,serif" font-size="14.00">0</text>
</g>
<!-- internal_23&#45;&gt;internal_18 -->
<g id="edge48" class="edge">
<title>internal_23&#45;&gt;internal_18</title>
<path fill="none" stroke="black" d="M741.32,-523.41C750.61,-510.67 763.9,-492.45 774.53,-477.87"/>
<polygon fill="black" stroke="black" points="777.37,-479.92 780.44,-469.78 771.72,-475.8 777.37,-479.92"/>
<text text-anchor="middle" x="769.95" y="-492.8" font-family="Times,serif" font-size="14.00">1</text>
</g>
<!-- internal_24 -->
<g id="node54" class="node">
<title>internal_24</title>
<ellipse fill="none" stroke="black" cx="1309.95" cy="-540" rx="29.5" ry="18"/>
<text text-anchor="middle" x="1309.95" y="-536.3" font-family="Times,serif" font-size="14.00">(65)</text>
</g>
<!-- internal_24&#45;&gt;internal_19 -->
<g id="edge49" class="edge">
<title>internal_24&#45;&gt;internal_19</title>
<path fill="none" stroke="black" d="M1300.88,-522.61C1294.12,-510.38 1284.76,-493.44 1277.02,-479.46"/>
<polygon fill="black" stroke="black" points="1279.88,-477.4 1271.98,-470.34 1273.76,-480.78 1279.88,-477.4"/>
<text text-anchor="middle" x="1293.95" y="-492.8" font-family="Times,serif" font-size="14.00">0</text>
</g>
<!-- internal_24&#45;&gt;internal_20 -->
<g id="edge50" class="edge">
<title>internal_24&#45;&gt;internal_20</title>
<path fill="none" stroke="black" d="M1319.39,-522.61C1326.51,-510.26 1336.4,-493.12 1344.5,-479.05"/>
<polygon fill="black" stroke="black" points="1347.57,-480.75 1349.53,-470.34 1341.5,-477.25 1347.57,-480.75"/>
<text text-anchor="middle" x="1341.95" y="-492.8" font-family="Times,serif" font-size="14.00">1</text>
</g>
<!-- leaf_0x20 -->
<g id="node55" class="node">
<title>leaf_0x20</title>
<ellipse fill="none" stroke="black" cx="1629.95" cy="-453" rx="44.39" ry="18"/>
<text text-anchor="middle" x="1629.95" y="-449.3" font-family="Times,serif" font-size="14.00">&quot; &quot; (42)</text>
</g>
<!-- internal_25 -->
<g id="node56" class="node">
<title>internal_25</title>
<ellipse fill="none" stroke="black" cx="1538.95" cy="-540" rx="29.5" ry="18"/>
<text text-anchor="middle" x="1538.95" y="-536.3" font-family="Times,serif" font-size="14.00">(85)</text>
</g>
<!-- internal_25&#45;&gt;internal_21 -->
<g id="edge52" class="edge">
<title>internal_25&#45;&gt;internal_21</title>
<path fill="none" stroke="black" d="M1538.95,-521.8C1538.95,-510.16 1538.95,-494.55 1538.95,-481.24"/>
<polygon fill="black" stroke="black" points="1542.45,-481.18 1538.95,-471.18 1535.45,-481.18 1542.45,-481.18"/>
<text text-anchor="middle" x="1543.95" y="-492.8" font-family="Times,serif" font-size="14.00">1</text>
</g>
<!-- internal_25&#45;&gt;leaf_0x20 -->
<g id="edge51" class="edge">
<title>internal_25&#45;&gt;leaf_0x20</title>
<path fill="none" stroke="black" d="M1554.38,-524.58C1568.33,-511.56 1589.09,-492.16 1605.33,-477"/>
<polygon fill="black" stroke="black" points="1607.96,-479.32 1612.88,-469.94 1603.19,-474.21 1607.96,-479.32"/>
<text text-anchor="middle" x="1593.95" y="-492.8" font-family="Times,serif" font-size="14.00">0</text>
</g>
<!-- internal_26 -->
<g id="node57" class="node">
<title>internal_26</title>
<ellipse fill="none" stroke="black" cx="729.95" cy="-627" rx="35.19" ry="18"/>
<text text-anchor="middle" x="729.95" y="-623.3" font-family="Times,serif" font-size="14.00">(101)</text>
</g>
<!-- internal_26&#45;&gt;internal_22 -->
<g id="edge53" class="edge">
<title>internal_26&#45;&gt;internal_22</title>
<path fill="none" stroke="black" d="M701.02,-616.58C652.74,-600.86 555.92,-569.33 503.91,-552.39"/>
<polygon fill="black" stroke="black" points="504.72,-548.97 494.13,-549.2 502.55,-555.63 504.72,-548.97"/>
<text text-anchor="middle" x="620.95" y="-579.8" font-family="Times,serif" font-size="14.00">0</text>
</g>
<!-- internal_26&#45;&gt;internal_23 -->
<g id="edge54" class="edge">
<title>internal_26&#45;&gt;internal_23</title>
<path fill="none" stroke="black" d="M729.95,-608.8C729.95,-597.16 729.95,-581.55 729.95,-568.24"/>
<polygon fill="black" stroke="black" points="733.45,-568.18 729.95,-558.18 726.45,-568.18 733.45,-568.18"/>
<text text-anchor="middle" x="734.95" y="-579.8" font-family="Times,serif" font-size="14.00">1</text>
</g>
<!-- internal_27 -->
<g id="node58" class="node">
<title>internal_27</title>
<ellipse fill="none" stroke="black" cx="1309.95" cy="-627" rx="35.19" ry="18"/>
<text text-anchor="middle" x="1309.95" y="-623.3" font-family="Times,serif" font-size="14.00">(150)</text>
</g>
<!-- internal_27&#45;&gt;internal_24 -->
<g id="edge55" class="edge">
<title>internal_27&#45;&gt;internal_24</title>
<path fill="none" stroke="black" d="M1309.95,-608.8C1309.95,-597.16 1309.95,-581.55 1309.95,-568.24"/>
<polygon fill="black" stroke="black" points="1313.45,-568.18 1309.95,-558.18 1306.45,-568.18 1313.45,-568.18"/>
<text text-anchor="middle" x="1314.95" y="-579.8" font-family="Times,serif" font-size="14.00">0</text>
</g>
<!-- internal_27&#45;&gt;internal_25 -->
<g id="edge56" class="edge">
<title>internal_27&#45;&gt;internal_25</title>
<path fill="none" stroke="black" d="M1337.57,-615.75C1379.57,-600.16 1459.42,-570.52 1504.93,-553.63"/>
<polygon fill="black" stroke="black" points="1506.21,-556.88 1514.37,-550.12 1503.77,-550.32 1506.21,-556.88"/>
<text text-anchor="middle" x="1442.95" y="-579.8" font-family="Times,serif" font-size="14.00">1</text>
</g>
<!-- internal_28 -->
<g id="node59" class="node">
<title>internal_28</title>
<ellipse fill="none" stroke="black" cx="972.95" cy="-714" rx="35.19" ry="18"/>
<text text-anchor="middle" x="972.95" y="-710.3" font-family="Times,serif" font-size="14.00">(251)</text>
</g>
<!-- internal_28&#45;&gt;internal_26 -->
<g id="edge57" class="edge">
<title>internal_28&#45;&gt;internal_26</title>
<path fill="none" stroke="black" d="M944.6,-703.08C900.79,-687.76 816.61,-658.31 767.7,-641.21"/>
<polygon fill="black" stroke="black" points="768.71,-637.85 758.12,-637.85 766.4,-644.46 768.71,-637.85"/>
<text text-anchor="middle" x="871.95" y="-666.8" font-family="Times,serif" font-size="14.00">0</text>
</g>
<!-- internal_28&#45;&gt;internal_27 -->
<g id="edge58" class="edge">
<title>internal_28&#45;&gt;internal_27</title>
<path fill="none" stroke="black" d="M1003.75,-705.23C1064.64,-689.87 1200.44,-655.62 1268.87,-638.36"/>
<polygon fill="black" stroke="black" points="1270.01,-641.68 1278.85,-635.84 1268.3,-634.89 1270.01,-641.68"/>
<text text-anchor="middle" x="1165.95" y="-666.8" font-family="Times,serif" font-size="14.00">1</text>
</g>
</g>
</svg>
