<?xml version="1.0" encoding="UTF-8" standalone="no"?>
<!DOCTYPE svg PUBLIC "-//W3C//DTD SVG 1.1//EN"
 "http://www.w3.org/Graphics/SVG/1.1/DTD/svg11.dtd">
<!-- Generated by graphviz version 2.43.0 (0)
 -->
<!-- Title: %3 Pages: 1 -->
<svg width="1277pt" height="653pt"
 viewBox="0.00 0.00 1277.14 653.00" xmlns="http://www.w3.org/2000/svg" xmlns:xlink="http://www.w3.org/1999/xlink">
<g id="graph0" class="graph" transform="scale(1 1) rotate(0) translate(4 649)">
<title>%3</title>
<polygon fill="white" stroke="transparent" points="-4,4 -4,-649 1273.14,-649 1273.14,4 -4,4"/>
<!-- leaf_0a -->
<g id="node1" class="node">
<title>leaf_0a</title>
<ellipse fill="none" stroke="black" cx="741.2" cy="-18" rx="44.39" ry="18"/>
<text text-anchor="middle" x="741.2" y="-14.3" font-family="Times,serif" font-size="14.00">&quot;\n&quot; (1)</text>
</g>
<!-- leaf_2c -->
<g id="node2" class="node">
<title>leaf_2c</title>
<ellipse fill="none" stroke="black" cx="842.2" cy="-18" rx="38.19" ry="18"/>
<text text-anchor="middle" x="842.2" y="-14.3" font-family="Times,serif" font-size="14.00">&quot;,&quot; (1)</text>
</g>
<!-- internal_0 -->
<g id="node3" class="node">
<title>internal_0</title>
<ellipse fill="none" stroke="black" cx="842.2" cy="-105" rx="27" ry="18"/>
<text text-anchor="middle" x="842.2" y="-101.3" font-family="Times,serif" font-size="14.00">(2)</text>
</g>
<!-- internal_0&#45;&gt;leaf_0a -->
<g id="edge1" class="edge">
<title>internal_0&#45;&gt;leaf_0a</title>
<path fill="none" stroke="black" d="M825.97,-90.34C810.23,-77.1 786.08,-56.78 767.58,-41.21"/>
<polygon fill="black" stroke="black" points="769.69,-38.4 759.78,-34.64 765.18,-43.76 769.69,-38.4"/>
<text text-anchor="middle" x="802.2" y="-57.8" font-family="Times,serif" font-size="14.00">0</text>
</g>
<!-- internal_0&#45;&gt;leaf_2c -->
<g id="edge2" class="edge">
<title>internal_0&#45;&gt;leaf_2c</title>
<path fill="none" stroke="black" d="M842.2,-86.8C842.2,-75.16 842.2,-59.55 842.2,-46.24"/>
<polygon fill="black" stroke="black" points="845.7,-46.18 842.2,-36.18 838.7,-46.18 845.7,-46.18"/>
<text text-anchor="middle" x="847.2" y="-57.8" font-family="Times,serif" font-size="14.00">1</text>
</g>
<!-- leaf_67 -->
<g id="node4" class="node">
<title>leaf_67</title>
<ellipse fill="none" stroke="black" cx="939.2" cy="-18" rx="40.89" ry="18"/>
<text text-anchor="middle" x="939.2" y="-14.3" font-family="Times,serif" font-size="14.00">&quot;g&quot; (1)</text>
</g>
<!-- leaf_2e -->
<g id="node5" class="node">
<title>leaf_2e</title>
<ellipse fill="none" stroke="black" cx="1036.2" cy="-18" rx="38.19" ry="18"/>
<text text-anchor="middle" x="1036.2" y="-14.3" font-family="Times,serif" font-size="14.00">&quot;.&quot; (1)</text>
</g>
<!-- internal_1 -->
<g id="node6" class="node">
<title>internal_1</title>
<ellipse fill="none" stroke="black" cx="1028.2" cy="-105" rx="27" ry="18"/>
<text text-anchor="middle" x="1028.2" y="-101.3" font-family="Times,serif" font-size="14.00">(2)</text>
</g>
<!-- internal_1&#45;&gt;leaf_67 -->
<g id="edge3" class="edge">
<title>internal_1&#45;&gt;leaf_67</title>
<path fill="none" stroke="black" d="M1013.1,-89.58C999.37,-76.47 978.9,-56.92 962.98,-41.71"/>
<polygon fill="black" stroke="black" points="965.23,-39.02 955.58,-34.64 960.39,-44.08 965.23,-39.02"/>
<text text-anchor="middle" x="993.2" y="-57.8" font-family="Times,serif" font-size="14.00">0</text>
</g>
<!-- internal_1&#45;&gt;leaf_2e -->
<g id="edge4" class="edge">
<title>internal_1&#45;&gt;leaf_2e</title>
<path fill="none" stroke="black" d="M1029.81,-86.8C1030.91,-75.16 1032.38,-59.55 1033.63,-46.24"/>
<polygon fill="black" stroke="black" points="1037.13,-46.46 1034.58,-36.18 1030.16,-45.8 1037.13,-46.46"/>
<text text-anchor="middle" x="1037.2" y="-57.8" font-family="Times,serif" font-size="14.00">1</text>
</g>
<!-- leaf_66 -->
<g id="node7" class="node">
<title>leaf_66</title>
<ellipse fill="none" stroke="black" cx="1131.2" cy="-18" rx="38.19" ry="18"/>
<text text-anchor="middle" x="1131.2" y="-14.3" font-family="Times,serif" font-size="14.00">&quot;f&quot; (1)</text>
</g>
<!-- leaf_75 -->
<g id="node8" class="node">
<title>leaf_75</title>
<ellipse fill="none" stroke="black" cx="1228.2" cy="-18" rx="40.89" ry="18"/>
<text text-anchor="middle" x="1228.2" y="-14.3" font-family="Times,serif" font-size="14.00">&quot;u&quot; (1)</text>
</g>
<!-- internal_2 -->
<g id="node9" class="node">
<title>internal_2</title>
<ellipse fill="none" stroke="black" cx="1131.2" cy="-105" rx="27" ry="18"/>
<text text-anchor="middle" x="1131.2" y="-101.3" font-family="Times,serif" font-size="14.00">(2)</text>
</g>
<!-- internal_2&#45;&gt;leaf_66 -->
<g id="edge5" class="edge">
<title>internal_2&#45;&gt;leaf_66</title>
<path fill="none" stroke="black" d="M1131.2,-86.8C1131.2,-75.16 1131.2,-59.55 1131.2,-46.24"/>
<polygon fill="black" stroke="black" points="1134.7,-46.18 1131.2,-36.18 1127.7,-46.18 1134.7,-46.18"/>
<text text-anchor="middle" x="1136.2" y="-57.8" font-family="Times,serif" font-size="14.00">0</text>
</g>
<!-- internal_2&#45;&gt;leaf_75 -->
<g id="edge6" class="edge">
<title>internal_2&#45;&gt;leaf_75</title>
<path fill="none" stroke="black" d="M1147.21,-89.96C1162.33,-76.72 1185.25,-56.64 1202.85,-41.21"/>
<polygon fill="black" stroke="black" points="1205.3,-43.72 1210.51,-34.5 1200.68,-38.46 1205.3,-43.72"/>
<text text-anchor="middle" x="1190.2" y="-57.8" font-family="Times,serif" font-size="14.00">1</text>
</g>
<!-- leaf_76 -->
<g id="node10" class="node">
<title>leaf_76</title>
<ellipse fill="none" stroke="black" cx="427.2" cy="-18" rx="40.09" ry="18"/>
<text text-anchor="middle" x="427.2" y="-14.3" font-family="Times,serif" font-size="14.00">&quot;v&quot; (1)</text>
</g>
<!-- leaf_63 -->
<g id="node11" class="node">
<title>leaf_63</title>
<ellipse fill="none" stroke="black" cx="526.2" cy="-18" rx="40.09" ry="18"/>
<text text-anchor="middle" x="526.2" y="-14.3" font-family="Times,serif" font-size="14.00">&quot;c&quot; (1)</text>
</g>
<!-- internal_3 -->
<g id="node12" class="node">
<title>internal_3</title>
<ellipse fill="none" stroke="black" cx="476.2" cy="-105" rx="27" ry="18"/>
<text text-anchor="middle" x="476.2" y="-101.3" font-family="Times,serif" font-size="14.00">(2)</text>
</g>
<!-- internal_3&#45;&gt;leaf_76 -->
<g id="edge7" class="edge">
<title>internal_3&#45;&gt;leaf_76</title>
<path fill="none" stroke="black" d="M466.98,-88.01C459.88,-75.7 449.94,-58.46 441.77,-44.28"/>
<polygon fill="black" stroke="black" points="444.73,-42.41 436.71,-35.5 438.67,-45.91 444.73,-42.41"/>
<text text-anchor="middle" x="459.2" y="-57.8" font-family="Times,serif" font-size="14.00">0</text>
</g>
<!-- internal_3&#45;&gt;leaf_63 -->
<g id="edge8" class="edge">
<title>internal_3&#45;&gt;leaf_63</title>
<path fill="none" stroke="black" d="M485.6,-88.01C492.84,-75.7 502.99,-58.46 511.32,-44.28"/>
<polygon fill="black" stroke="black" points="514.44,-45.89 516.49,-35.5 508.41,-42.34 514.44,-45.89"/>
<text text-anchor="middle" x="508.2" y="-57.8" font-family="Times,serif" font-size="14.00">1</text>
</g>
<!-- leaf_62 -->
<g id="node13" class="node">
<title>leaf_62</title>
<ellipse fill="none" stroke="black" cx="662.2" cy="-105" rx="40.89" ry="18"/>
<text text-anchor="middle" x="662.2" y="-101.3" font-family="Times,serif" font-size="14.00">&quot;b&quot; (2)</text>
</g>
<!-- leaf_69 -->
<g id="node14" class="node">
<title>leaf_69</title>
<ellipse fill="none" stroke="black" cx="759.2" cy="-105" rx="38.19" ry="18"/>
<text text-anchor="middle" x="759.2" y="-101.3" font-family="Times,serif" font-size="14.00">&quot;i&quot; (2)</text>
</g>
<!-- internal_4 -->
<g id="node15" class="node">
<title>internal_4</title>
<ellipse fill="none" stroke="black" cx="759.2" cy="-192" rx="27" ry="18"/>
<text text-anchor="middle" x="759.2" y="-188.3" font-family="Times,serif" font-size="14.00">(4)</text>
</g>
<!-- internal_4&#45;&gt;leaf_62 -->
<g id="edge9" class="edge">
<title>internal_4&#45;&gt;leaf_62</title>
<path fill="none" stroke="black" d="M743.18,-176.96C728.06,-163.72 705.15,-143.64 687.55,-128.21"/>
<polygon fill="black" stroke="black" points="689.71,-125.46 679.88,-121.5 685.1,-130.72 689.71,-125.46"/>
<text text-anchor="middle" x="721.2" y="-144.8" font-family="Times,serif" font-size="14.00">0</text>
</g>
<!-- internal_4&#45;&gt;leaf_69 -->
<g id="edge10" class="edge">
<title>internal_4&#45;&gt;leaf_69</title>
<path fill="none" stroke="black" d="M759.2,-173.8C759.2,-162.16 759.2,-146.55 759.2,-133.24"/>
<polygon fill="black" stroke="black" points="762.7,-133.18 759.2,-123.18 755.7,-133.18 762.7,-133.18"/>
<text text-anchor="middle" x="764.2" y="-144.8" font-family="Times,serif" font-size="14.00">1</text>
</g>
<!-- leaf_4d -->
<g id="node16" class="node">
<title>leaf_4d</title>
<ellipse fill="none" stroke="black" cx="931.2" cy="-105" rx="44.39" ry="18"/>
<text text-anchor="middle" x="931.2" y="-101.3" font-family="Times,serif" font-size="14.00">&quot;M&quot; (2)</text>
</g>
<!-- internal_5 -->
<g id="node17" class="node">
<title>internal_5</title>
<ellipse fill="none" stroke="black" cx="842.2" cy="-192" rx="27" ry="18"/>
<text text-anchor="middle" x="842.2" y="-188.3" font-family="Times,serif" font-size="14.00">(4)</text>
</g>
<!-- internal_5&#45;&gt;internal_0 -->
<g id="edge11" class="edge">
<title>internal_5&#45;&gt;internal_0</title>
<path fill="none" stroke="black" d="M842.2,-173.8C842.2,-162.16 842.2,-146.55 842.2,-133.24"/>
<polygon fill="black" stroke="black" points="845.7,-133.18 842.2,-123.18 838.7,-133.18 845.7,-133.18"/>
<text text-anchor="middle" x="847.2" y="-144.8" font-family="Times,serif" font-size="14.00">0</text>
</g>
<!-- internal_5&#45;&gt;leaf_4d -->
<g id="edge12" class="edge">
<title>internal_5&#45;&gt;leaf_4d</title>
<path fill="none" stroke="black" d="M857.29,-176.58C870.93,-163.56 891.24,-144.16 907.12,-129"/>
<polygon fill="black" stroke="black" points="909.69,-131.38 914.51,-121.94 904.86,-126.31 909.69,-131.38"/>
<text text-anchor="middle" x="896.2" y="-144.8" font-family="Times,serif" font-size="14.00">1</text>
</g>
<!-- internal_6 -->
<g id="node18" class="node">
<title>internal_6</title>
<ellipse fill="none" stroke="black" cx="1028.2" cy="-192" rx="27" ry="18"/>
<text text-anchor="middle" x="1028.2" y="-188.3" font-family="Times,serif" font-size="14.00">(4)</text>
</g>
<!-- internal_6&#45;&gt;internal_1 -->
<g id="edge13" class="edge">
<title>internal_6&#45;&gt;internal_1</title>
<path fill="none" stroke="black" d="M1028.2,-173.8C1028.2,-162.16 1028.2,-146.55 1028.2,-133.24"/>
<polygon fill="black" stroke="black" points="1031.7,-133.18 1028.2,-123.18 1024.7,-133.18 1031.7,-133.18"/>
<text text-anchor="middle" x="1033.2" y="-144.8" font-family="Times,serif" font-size="14.00">0</text>
</g>
<!-- internal_6&#45;&gt;internal_2 -->
<g id="edge14" class="edge">
<title>internal_6&#45;&gt;internal_2</title>
<path fill="none" stroke="black" d="M1044.74,-177.34C1061.56,-163.46 1087.8,-141.81 1106.96,-126"/>
<polygon fill="black" stroke="black" points="1109.2,-128.69 1114.69,-119.62 1104.75,-123.29 1109.2,-128.69"/>
<text text-anchor="middle" x="1090.2" y="-144.8" font-family="Times,serif" font-size="14.00">1</text>
</g>
<!-- leaf_64 -->
<g id="node19" class="node">
<title>leaf_64</title>
<ellipse fill="none" stroke="black" cx="562.2" cy="-105" rx="40.89" ry="18"/>
<text text-anchor="middle" x="562.2" y="-101.3" font-family="Times,serif" font-size="14.00">&quot;d&quot; (2)</text>
</g>
<!-- internal_7 -->
<g id="node20" class="node">
<title>internal_7</title>
<ellipse fill="none" stroke="black" cx="562.2" cy="-192" rx="27" ry="18"/>
<text text-anchor="middle" x="562.2" y="-188.3" font-family="Times,serif" font-size="14.00">(4)</text>
</g>
<!-- internal_7&#45;&gt;internal_3 -->
<g id="edge15" class="edge">
<title>internal_7&#45;&gt;internal_3</title>
<path fill="none" stroke="black" d="M547.61,-176.58C534.02,-163.15 513.57,-142.94 498.04,-127.59"/>
<polygon fill="black" stroke="black" points="500.43,-125.03 490.86,-120.49 495.51,-130.01 500.43,-125.03"/>
<text text-anchor="middle" x="529.2" y="-144.8" font-family="Times,serif" font-size="14.00">0</text>
</g>
<!-- internal_7&#45;&gt;leaf_64 -->
<g id="edge16" class="edge">
<title>internal_7&#45;&gt;leaf_64</title>
<path fill="none" stroke="black" d="M562.2,-173.8C562.2,-162.16 562.2,-146.55 562.2,-133.24"/>
<polygon fill="black" stroke="black" points="565.7,-133.18 562.2,-123.18 558.7,-133.18 565.7,-133.18"/>
<text text-anchor="middle" x="567.2" y="-144.8" font-family="Times,serif" font-size="14.00">1</text>
</g>
<!-- leaf_6d -->
<g id="node21" class="node">
<title>leaf_6d</title>
<ellipse fill="none" stroke="black" cx="44.2" cy="-192" rx="44.39" ry="18"/>
<text text-anchor="middle" x="44.2" y="-188.3" font-family="Times,serif" font-size="14.00">&quot;m&quot; (2)</text>
</g>
<!-- leaf_79 -->
<g id="node22" class="node">
<title>leaf_79</title>
<ellipse fill="none" stroke="black" cx="146.2" cy="-192" rx="40.09" ry="18"/>
<text text-anchor="middle" x="146.2" y="-188.3" font-family="Times,serif" font-size="14.00">&quot;y&quot; (3)</text>
</g>
<!-- internal_8 -->
<g id="node23" class="node">
<title>internal_8</title>
<ellipse fill="none" stroke="black" cx="95.2" cy="-279" rx="27" ry="18"/>
<text text-anchor="middle" x="95.2" y="-275.3" font-family="Times,serif" font-size="14.00">(5)</text>
</g>
<!-- internal_8&#45;&gt;leaf_6d -->
<g id="edge17" class="edge">
<title>internal_8&#45;&gt;leaf_6d</title>
<path fill="none" stroke="black" d="M85.6,-262.01C78.27,-249.78 68,-232.68 59.53,-218.56"/>
<polygon fill="black" stroke="black" points="62.42,-216.56 54.27,-209.79 56.41,-220.16 62.42,-216.56"/>
<text text-anchor="middle" x="78.2" y="-231.8" font-family="Times,serif" font-size="14.00">0</text>
</g>
<!-- internal_8&#45;&gt;leaf_79 -->
<g id="edge18" class="edge">
<title>internal_8&#45;&gt;leaf_79</title>
<path fill="none" stroke="black" d="M104.79,-262.01C112.17,-249.7 122.52,-232.46 131.03,-218.28"/>
<polygon fill="black" stroke="black" points="134.15,-219.87 136.3,-209.5 128.15,-216.27 134.15,-219.87"/>
<text text-anchor="middle" x="129.2" y="-231.8" font-family="Times,serif" font-size="14.00">1</text>
</g>
<!-- leaf_6e -->
<g id="node24" class="node">
<title>leaf_6e</title>
<ellipse fill="none" stroke="black" cx="661.2" cy="-192" rx="40.89" ry="18"/>
<text text-anchor="middle" x="661.2" y="-188.3" font-family="Times,serif" font-size="14.00">&quot;n&quot; (3)</text>
</g>
<!-- internal_9 -->
<g id="node25" class="node">
<title>internal_9</title>
<ellipse fill="none" stroke="black" cx="661.2" cy="-279" rx="27" ry="18"/>
<text text-anchor="middle" x="661.2" y="-275.3" font-family="Times,serif" font-size="14.00">(7)</text>
</g>
<!-- internal_9&#45;&gt;internal_7 -->
<g id="edge20" class="edge">
<title>internal_9&#45;&gt;internal_7</title>
<path fill="none" stroke="black" d="M645.29,-264.34C629.27,-250.59 604.36,-229.2 585.99,-213.43"/>
<polygon fill="black" stroke="black" points="587.93,-210.48 578.06,-206.62 583.37,-215.79 587.93,-210.48"/>
<text text-anchor="middle" x="622.2" y="-231.8" font-family="Times,serif" font-size="14.00">1</text>
</g>
<!-- internal_9&#45;&gt;leaf_6e -->
<g id="edge19" class="edge">
<title>internal_9&#45;&gt;leaf_6e</title>
<path fill="none" stroke="black" d="M661.2,-260.8C661.2,-249.16 661.2,-233.55 661.2,-220.24"/>
<polygon fill="black" stroke="black" points="664.7,-220.18 661.2,-210.18 657.7,-220.18 664.7,-220.18"/>
<text text-anchor="middle" x="666.2" y="-231.8" font-family="Times,serif" font-size="14.00">0</text>
</g>
<!-- internal_10 -->
<g id="node26" class="node">
<title>internal_10</title>
<ellipse fill="none" stroke="black" cx="829.2" cy="-279" rx="27" ry="18"/>
<text text-anchor="middle" x="829.2" y="-275.3" font-family="Times,serif" font-size="14.00">(8)</text>
</g>
<!-- internal_10&#45;&gt;internal_4 -->
<g id="edge21" class="edge">
<title>internal_10&#45;&gt;internal_4</title>
<path fill="none" stroke="black" d="M816.68,-262.8C805.93,-249.75 790.27,-230.74 778.01,-215.85"/>
<polygon fill="black" stroke="black" points="780.66,-213.56 771.6,-208.06 775.26,-218.01 780.66,-213.56"/>
<text text-anchor="middle" x="803.2" y="-231.8" font-family="Times,serif" font-size="14.00">0</text>
</g>
<!-- internal_10&#45;&gt;internal_5 -->
<g id="edge22" class="edge">
<title>internal_10&#45;&gt;internal_5</title>
<path fill="none" stroke="black" d="M831.83,-260.8C833.61,-249.16 835.99,-233.55 838.03,-220.24"/>
<polygon fill="black" stroke="black" points="841.52,-220.59 839.57,-210.18 834.6,-219.53 841.52,-220.59"/>
<text text-anchor="middle" x="841.2" y="-231.8" font-family="Times,serif" font-size="14.00">1</text>
</g>
<!-- leaf_6f -->
<g id="node27" class="node">
<title>leaf_6f</title>
<ellipse fill="none" stroke="black" cx="1113.2" cy="-192" rx="40.09" ry="18"/>
<text text-anchor="middle" x="1113.2" y="-188.3" font-family="Times,serif" font-size="14.00">&quot;o&quot; (4)</text>
</g>
<!-- internal_11 -->
<g id="node28" class="node">
<title>internal_11</title>
<ellipse fill="none" stroke="black" cx="1028.2" cy="-279" rx="27" ry="18"/>
<text text-anchor="middle" x="1028.2" y="-275.3" font-family="Times,serif" font-size="14.00">(8)</text>
</g>
<!-- internal_11&#45;&gt;internal_6 -->
<g id="edge24" class="edge">
<title>internal_11&#45;&gt;internal_6</title>
<path fill="none" stroke="black" d="M1028.2,-260.8C1028.2,-249.16 1028.2,-233.55 1028.2,-220.24"/>
<polygon fill="black" stroke="black" points="1031.7,-220.18 1028.2,-210.18 1024.7,-220.18 1031.7,-220.18"/>
<text text-anchor="middle" x="1033.2" y="-231.8" font-family="Times,serif" font-size="14.00">1</text>
</g>
<!-- internal_11&#45;&gt;leaf_6f -->
<g id="edge23" class="edge">
<title>internal_11&#45;&gt;leaf_6f</title>
<path fill="none" stroke="black" d="M1042.62,-263.58C1055.6,-250.59 1074.92,-231.27 1090.07,-216.13"/>
<polygon fill="black" stroke="black" points="1092.96,-218.19 1097.55,-208.64 1088.01,-213.24 1092.96,-218.19"/>
<text text-anchor="middle" x="1080.2" y="-231.8" font-family="Times,serif" font-size="14.00">0</text>
</g>
<!-- leaf_6c -->
<g id="node29" class="node">
<title>leaf_6c</title>
<ellipse fill="none" stroke="black" cx="178.2" cy="-279" rx="38.19" ry="18"/>
<text text-anchor="middle" x="178.2" y="-275.3" font-family="Times,serif" font-size="14.00">&quot;l&quot; (5)</text>
</g>
<!-- internal_12 -->
<g id="node30" class="node">
<title>internal_12</title>
<ellipse fill="none" stroke="black" cx="178.2" cy="-366" rx="29.5" ry="18"/>
<text text-anchor="middle" x="178.2" y="-362.3" font-family="Times,serif" font-size="14.00">(10)</text>
</g>
<!-- internal_12&#45;&gt;internal_8 -->
<g id="edge26" class="edge">
<title>internal_12&#45;&gt;internal_8</title>
<path fill="none" stroke="black" d="M163.74,-350.19C150.77,-336.91 131.55,-317.23 116.76,-302.08"/>
<polygon fill="black" stroke="black" points="118.98,-299.35 109.49,-294.64 113.97,-304.24 118.98,-299.35"/>
<text text-anchor="middle" x="147.2" y="-318.8" font-family="Times,serif" font-size="14.00">1</text>
</g>
<!-- internal_12&#45;&gt;leaf_6c -->
<g id="edge25" class="edge">
<title>internal_12&#45;&gt;leaf_6c</title>
<path fill="none" stroke="black" d="M178.2,-347.8C178.2,-336.16 178.2,-320.55 178.2,-307.24"/>
<polygon fill="black" stroke="black" points="181.7,-307.18 178.2,-297.18 174.7,-307.18 181.7,-307.18"/>
<text text-anchor="middle" x="183.2" y="-318.8" font-family="Times,serif" font-size="14.00">0</text>
</g>
<!-- leaf_72 -->
<g id="node31" class="node">
<title>leaf_72</title>
<ellipse fill="none" stroke="black" cx="274.2" cy="-279" rx="39.79" ry="18"/>
<text text-anchor="middle" x="274.2" y="-275.3" font-family="Times,serif" font-size="14.00">&quot;r&quot; (5)</text>
</g>
<!-- leaf_68 -->
<g id="node32" class="node">
<title>leaf_68</title>
<ellipse fill="none" stroke="black" cx="373.2" cy="-279" rx="40.89" ry="18"/>
<text text-anchor="middle" x="373.2" y="-275.3" font-family="Times,serif" font-size="14.00">&quot;h&quot; (6)</text>
</g>
<!-- internal_13 -->
<g id="node33" class="node">
<title>internal_13</title>
<ellipse fill="none" stroke="black" cx="275.2" cy="-366" rx="29.5" ry="18"/>
<text text-anchor="middle" x="275.2" y="-362.3" font-family="Times,serif" font-size="14.00">(11)</text>
</g>
<!-- internal_13&#45;&gt;leaf_72 -->
<g id="edge27" class="edge">
<title>internal_13&#45;&gt;leaf_72</title>
<path fill="none" stroke="black" d="M274.99,-347.8C274.86,-336.16 274.67,-320.55 274.52,-307.24"/>
<polygon fill="black" stroke="black" points="278.02,-307.13 274.4,-297.18 271.02,-307.22 278.02,-307.13"/>
<text text-anchor="middle" x="280.2" y="-318.8" font-family="Times,serif" font-size="14.00">0</text>
</g>
<!-- internal_13&#45;&gt;leaf_68 -->
<g id="edge28" class="edge">
<title>internal_13&#45;&gt;leaf_68</title>
<path fill="none" stroke="black" d="M291.38,-350.96C306.65,-337.72 329.8,-317.64 347.58,-302.21"/>
<polygon fill="black" stroke="black" points="350.07,-304.69 355.33,-295.5 345.48,-299.41 350.07,-304.69"/>
<text text-anchor="middle" x="335.2" y="-318.8" font-family="Times,serif" font-size="14.00">1</text>
</g>
<!-- leaf_73 -->
<g id="node34" class="node">
<title>leaf_73</title>
<ellipse fill="none" stroke="black" cx="472.2" cy="-279" rx="40.09" ry="18"/>
<text text-anchor="middle" x="472.2" y="-275.3" font-family="Times,serif" font-size="14.00">&quot;s&quot; (6)</text>
</g>
<!-- leaf_77 -->
<g id="node35" class="node">
<title>leaf_77</title>
<ellipse fill="none" stroke="black" cx="573.2" cy="-279" rx="42.79" ry="18"/>
<text text-anchor="middle" x="573.2" y="-275.3" font-family="Times,serif" font-size="14.00">&quot;w&quot; (7)</text>
</g>
<!-- internal_14 -->
<g id="node36" class="node">
<title>internal_14</title>
<ellipse fill="none" stroke="black" cx="573.2" cy="-366" rx="29.5" ry="18"/>
<text text-anchor="middle" x="573.2" y="-362.3" font-family="Times,serif" font-size="14.00">(13)</text>
</g>
<!-- internal_14&#45;&gt;leaf_73 -->
<g id="edge29" class="edge">
<title>internal_14&#45;&gt;leaf_73</title>
<path fill="none" stroke="black" d="M556.52,-350.96C540.68,-337.63 516.62,-317.39 498.25,-301.93"/>
<polygon fill="black" stroke="black" points="500.17,-298.97 490.26,-295.21 495.66,-304.32 500.17,-298.97"/>
<text text-anchor="middle" x="533.2" y="-318.8" font-family="Times,serif" font-size="14.00">0</text>
</g>
<!-- internal_14&#45;&gt;leaf_77 -->
<g id="edge30" class="edge">
<title>internal_14&#45;&gt;leaf_77</title>
<path fill="none" stroke="black" d="M573.2,-347.8C573.2,-336.16 573.2,-320.55 573.2,-307.24"/>
<polygon fill="black" stroke="black" points="576.7,-307.18 573.2,-297.18 569.7,-307.18 576.7,-307.18"/>
<text text-anchor="middle" x="578.2" y="-318.8" font-family="Times,serif" font-size="14.00">1</text>
</g>
<!-- leaf_74 -->
<g id="node37" class="node">
<title>leaf_74</title>
<ellipse fill="none" stroke="black" cx="745.2" cy="-279" rx="38.99" ry="18"/>
<text text-anchor="middle" x="745.2" y="-275.3" font-family="Times,serif" font-size="14.00">&quot;t&quot; (8)</text>
</g>
<!-- internal_15 -->
<g id="node38" class="node">
<title>internal_15</title>
<ellipse fill="none" stroke="black" cx="661.2" cy="-366" rx="29.5" ry="18"/>
<text text-anchor="middle" x="661.2" y="-362.3" font-family="Times,serif" font-size="14.00">(15)</text>
</g>
<!-- internal_15&#45;&gt;internal_9 -->
<g id="edge31" class="edge">
<title>internal_15&#45;&gt;internal_9</title>
<path fill="none" stroke="black" d="M661.2,-347.8C661.2,-336.16 661.2,-320.55 661.2,-307.24"/>
<polygon fill="black" stroke="black" points="664.7,-307.18 661.2,-297.18 657.7,-307.18 664.7,-307.18"/>
<text text-anchor="middle" x="666.2" y="-318.8" font-family="Times,serif" font-size="14.00">0</text>
</g>
<!-- internal_15&#45;&gt;leaf_74 -->
<g id="edge32" class="edge">
<title>internal_15&#45;&gt;leaf_74</title>
<path fill="none" stroke="black" d="M675.83,-350.19C688.64,-337.23 707.46,-318.18 722.27,-303.2"/>
<polygon fill="black" stroke="black" points="725.05,-305.36 729.59,-295.79 720.07,-300.44 725.05,-305.36"/>
<text text-anchor="middle" x="713.2" y="-318.8" font-family="Times,serif" font-size="14.00">1</text>
</g>
<!-- internal_16 -->
<g id="node39" class="node">
<title>internal_16</title>
<ellipse fill="none" stroke="black" cx="829.2" cy="-366" rx="29.5" ry="18"/>
<text text-anchor="middle" x="829.2" y="-362.3" font-family="Times,serif" font-size="14.00">(16)</text>
</g>
<!-- internal_16&#45;&gt;internal_10 -->
<g id="edge33" class="edge">
<title>internal_16&#45;&gt;internal_10</title>
<path fill="none" stroke="black" d="M829.2,-347.8C829.2,-336.16 829.2,-320.55 829.2,-307.24"/>
<polygon fill="black" stroke="black" points="832.7,-307.18 829.2,-297.18 825.7,-307.18 832.7,-307.18"/>
<text text-anchor="middle" x="834.2" y="-318.8" font-family="Times,serif" font-size="14.00">0</text>
</g>
<!-- internal_16&#45;&gt;internal_11 -->
<g id="edge34" class="edge">
<title>internal_16&#45;&gt;internal_11</title>
<path fill="none" stroke="black" d="M852.07,-354.67C857.05,-352.45 862.29,-350.13 867.2,-348 911.83,-328.59 963.74,-306.81 996.28,-293.25"/>
<polygon fill="black" stroke="black" points="997.85,-296.39 1005.73,-289.31 995.16,-289.92 997.85,-296.39"/>
<text text-anchor="middle" x="946.2" y="-318.8" font-family="Times,serif" font-size="14.00">1</text>
</g>
<!-- internal_17 -->
<g id="node40" class="node">
<title>internal_17</title>
<ellipse fill="none" stroke="black" cx="275.2" cy="-453" rx="29.5" ry="18"/>
<text text-anchor="middle" x="275.2" y="-449.3" font-family="Times,serif" font-size="14.00">(21)</text>
</g>
<!-- internal_17&#45;&gt;internal_12 -->
<g id="edge35" class="edge">
<title>internal_17&#45;&gt;internal_12</title>
<path fill="none" stroke="black" d="M258.74,-437.58C243.18,-423.94 219.65,-403.33 202.04,-387.89"/>
<polygon fill="black" stroke="black" points="204.24,-385.16 194.41,-381.21 199.62,-390.43 204.24,-385.16"/>
<text text-anchor="middle" x="238.2" y="-405.8" font-family="Times,serif" font-size="14.00">0</text>
</g>
<!-- internal_17&#45;&gt;internal_13 -->
<g id="edge36" class="edge">
<title>internal_17&#45;&gt;internal_13</title>
<path fill="none" stroke="black" d="M275.2,-434.8C275.2,-423.16 275.2,-407.55 275.2,-394.24"/>
<polygon fill="black" stroke="black" points="278.7,-394.18 275.2,-384.18 271.7,-394.18 278.7,-394.18"/>
<text text-anchor="middle" x="280.2" y="-405.8" font-family="Times,serif" font-size="14.00">1</text>
</g>
<!-- leaf_61 -->
<g id="node41" class="node">
<title>leaf_61</title>
<ellipse fill="none" stroke="black" cx="369.2" cy="-366" rx="46.29" ry="18"/>
<text text-anchor="middle" x="369.2" y="-362.3" font-family="Times,serif" font-size="14.00">&quot;a&quot; (11)</text>
</g>
<!-- leaf_65 -->
<g id="node42" class="node">
<title>leaf_65</title>
<ellipse fill="none" stroke="black" cx="479.2" cy="-366" rx="46.29" ry="18"/>
<text text-anchor="middle" x="479.2" y="-362.3" font-family="Times,serif" font-size="14.00">&quot;e&quot; (13)</text>
</g>
<!-- internal_18 -->
<g id="node43" class="node">
<title>internal_18</title>
<ellipse fill="none" stroke="black" cx="390.2" cy="-453" rx="29.5" ry="18"/>
<text text-anchor="middle" x="390.2" y="-449.3" font-family="Times,serif" font-size="14.00">(24)</text>
</g>
<!-- internal_18&#45;&gt;leaf_61 -->
<g id="edge37" class="edge">
<title>internal_18&#45;&gt;leaf_61</title>
<path fill="none" stroke="black" d="M385.95,-434.8C383.07,-423.16 379.21,-407.55 375.93,-394.24"/>
<polygon fill="black" stroke="black" points="379.24,-393.04 373.44,-384.18 372.44,-394.72 379.24,-393.04"/>
<text text-anchor="middle" x="386.2" y="-405.8" font-family="Times,serif" font-size="14.00">0</text>
</g>
<!-- internal_18&#45;&gt;leaf_65 -->
<g id="edge38" class="edge">
<title>internal_18&#45;&gt;leaf_65</title>
<path fill="none" stroke="black" d="M405.29,-437.58C418.93,-424.56 439.24,-405.16 455.12,-390"/>
<polygon fill="black" stroke="black" points="457.69,-392.38 462.51,-382.94 452.86,-387.31 457.69,-392.38"/>
<text text-anchor="middle" x="445.2" y="-405.8" font-family="Times,serif" font-size="14.00">1</text>
</g>
<!-- internal_19 -->
<g id="node44" class="node">
<title>internal_19</title>
<ellipse fill="none" stroke="black" cx="617.2" cy="-453" rx="29.5" ry="18"/>
<text text-anchor="middle" x="617.2" y="-449.3" font-family="Times,serif" font-size="14.00">(28)</text>
</g>
<!-- internal_19&#45;&gt;internal_14 -->
<g id="edge39" class="edge">
<title>internal_19&#45;&gt;internal_14</title>
<path fill="none" stroke="black" d="M608.71,-435.61C602.38,-423.38 593.61,-406.44 586.37,-392.46"/>
<polygon fill="black" stroke="black" points="589.36,-390.61 581.65,-383.34 583.14,-393.83 589.36,-390.61"/>
<text text-anchor="middle" x="602.2" y="-405.8" font-family="Times,serif" font-size="14.00">0</text>
</g>
<!-- internal_19&#45;&gt;internal_15 -->
<g id="edge40" class="edge">
<title>internal_19&#45;&gt;internal_15</title>
<path fill="none" stroke="black" d="M625.68,-435.61C632.01,-423.38 640.78,-406.44 648.02,-392.46"/>
<polygon fill="black" stroke="black" points="651.25,-393.83 652.74,-383.34 645.03,-390.61 651.25,-393.83"/>
<text text-anchor="middle" x="646.2" y="-405.8" font-family="Times,serif" font-size="14.00">1</text>
</g>
<!-- leaf_20 -->
<g id="node45" class="node">
<title>leaf_20</title>
<ellipse fill="none" stroke="black" cx="920.2" cy="-366" rx="44.39" ry="18"/>
<text text-anchor="middle" x="920.2" y="-362.3" font-family="Times,serif" font-size="14.00">&quot; &quot; (21)</text>
</g>
<!-- internal_20 -->
<g id="node46" class="node">
<title>internal_20</title>
<ellipse fill="none" stroke="black" cx="829.2" cy="-453" rx="29.5" ry="18"/>
<text text-anchor="middle" x="829.2" y="-449.3" font-family="Times,serif" font-size="14.00">(37)</text>
</g>
<!-- internal_20&#45;&gt;internal_16 -->
<g id="edge41" class="edge">
<title>internal_20&#45;&gt;internal_16</title>
<path fill="none" stroke="black" d="M829.2,-434.8C829.2,-423.16 829.2,-407.55 829.2,-394.24"/>
<polygon fill="black" stroke="black" points="832.7,-394.18 829.2,-384.18 825.7,-394.18 832.7,-394.18"/>
<text text-anchor="middle" x="834.2" y="-405.8" font-family="Times,serif" font-size="14.00">0</text>
</g>
<!-- internal_20&#45;&gt;leaf_20 -->
<g id="edge42" class="edge">
<title>internal_20&#45;&gt;leaf_20</title>
<path fill="none" stroke="black" d="M844.63,-437.58C858.58,-424.56 879.34,-405.16 895.58,-390"/>
<polygon fill="black" stroke="black" points="898.21,-392.32 903.13,-382.94 893.44,-387.21 898.21,-392.32"/>
<text text-anchor="middle" x="884.2" y="-405.8" font-family="Times,serif" font-size="14.00">1</text>
</g>
<!-- internal_21 -->
<g id="node47" class="node">
<title>internal_21</title>
<ellipse fill="none" stroke="black" cx="390.2" cy="-540" rx="29.5" ry="18"/>
<text text-anchor="middle" x="390.2" y="-536.3" font-family="Times,serif" font-size="14.00">(45)</text>
</g>
<!-- internal_21&#45;&gt;internal_17 -->
<g id="edge43" class="edge">
<title>internal_21&#45;&gt;internal_17</title>
<path fill="none" stroke="black" d="M372.23,-525.72C353.27,-511.7 323.19,-489.47 301.55,-473.48"/>
<polygon fill="black" stroke="black" points="303.54,-470.6 293.42,-467.47 299.38,-476.23 303.54,-470.6"/>
<text text-anchor="middle" x="345.2" y="-492.8" font-family="Times,serif" font-size="14.00">0</text>
</g>
<!-- internal_21&#45;&gt;internal_18 -->
<g id="edge44" class="edge">
<title>internal_21&#45;&gt;internal_18</title>
<path fill="none" stroke="black" d="M390.2,-521.8C390.2,-510.16 390.2,-494.55 390.2,-481.24"/>
<polygon fill="black" stroke="black" points="393.7,-481.18 390.2,-471.18 386.7,-481.18 393.7,-481.18"/>
<text text-anchor="middle" x="395.2" y="-492.8" font-family="Times,serif" font-size="14.00">1</text>
</g>
<!-- internal_22 -->
<g id="node48" class="node">
<title>internal_22</title>
<ellipse fill="none" stroke="black" cx="617.2" cy="-540" rx="29.5" ry="18"/>
<text text-anchor="middle" x="617.2" y="-536.3" font-family="Times,serif" font-size="14.00">(65)</text>
</g>
<!-- internal_22&#45;&gt;internal_19 -->
<g id="edge45" class="edge">
<title>internal_22&#45;&gt;internal_19</title>
<path fill="none" stroke="black" d="M617.2,-521.8C617.2,-510.16 617.2,-494.55 617.2,-481.24"/>
<polygon fill="black" stroke="black" points="620.7,-481.18 617.2,-471.18 613.7,-481.18 620.7,-481.18"/>
<text text-anchor="middle" x="622.2" y="-492.8" font-family="Times,serif" font-size="14.00">0</text>
</g>
<!-- internal_22&#45;&gt;internal_20 -->
<g id="edge46" class="edge">
<title>internal_22&#45;&gt;internal_20</title>
<path fill="none" stroke="black" d="M641.1,-529.41C678.98,-514.23 752.88,-484.6 795.91,-467.34"/>
<polygon fill="black" stroke="black" points="797.4,-470.52 805.38,-463.55 794.79,-464.02 797.4,-470.52"/>
<text text-anchor="middle" x="740.2" y="-492.8" font-family="Times,serif" font-size="14.00">1</text>
</g>
<!-- internal_23 -->
<g id="node49" class="node">
<title>internal_23</title>
<ellipse fill="none" stroke="black" cx="491.2" cy="-627" rx="35.19" ry="18"/>
<text text-anchor="middle" x="491.2" y="-623.3" font-family="Times,serif" font-size="14.00">(110)</text>
</g>
<!-- internal_23&#45;&gt;internal_21 -->
<g id="edge47" class="edge">
<title>internal_23&#45;&gt;internal_21</title>
<path fill="none" stroke="black" d="M473.6,-611.19C457.33,-597.5 432.99,-577.01 414.79,-561.7"/>
<polygon fill="black" stroke="black" points="416.82,-558.83 406.92,-555.07 412.31,-564.19 416.82,-558.83"/>
<text text-anchor="middle" x="451.2" y="-579.8" font-family="Times,serif" font-size="14.00">0</text>
</g>
<!-- internal_23&#45;&gt;internal_22 -->
<g id="edge48" class="edge">
<title>internal_23&#45;&gt;internal_22</title>
<path fill="none" stroke="black" d="M511.72,-612.15C532.87,-597.89 565.97,-575.56 589.44,-559.72"/>
<polygon fill="black" stroke="black" points="591.59,-562.5 597.92,-554 587.67,-556.69 591.59,-562.5"/>
<text text-anchor="middle" x="566.2" y="-579.8" font-family="Times,serif" font-size="14.00">1</text>
</g>
</g>
</svg>
