<?xml version="1.0" encoding="UTF-8" standalone="no"?>
<!DOCTYPE svg PUBLIC "-//W3C//DTD SVG 1.1//EN"
 "http://www.w3.org/Graphics/SVG/1.1/DTD/svg11.dtd">
<!-- Generated by graphviz version 2.43.0 (0)
 -->
<!-- Title: %3 Pages: 1 -->
<svg width="1052pt" height="653pt"
 viewBox="0.00 0.00 1051.89 653.00" xmlns="http://www.w3.org/2000/svg" xmlns:xlink="http://www.w3.org/1999/xlink">
<g id="graph0" class="graph" transform="scale(1 1) rotate(0) translate(4 649)">
<title>%3</title>
<polygon fill="white" stroke="transparent" points="-4,4 -4,-649 1047.89,-649 1047.89,4 -4,4"/>
<!-- leaf_0x67 -->
<g id="node1" class="node">
<title>leaf_0x67</title>
<ellipse fill="none" stroke="black" cx="704.95" cy="-18" rx="40.89" ry="18"/>
<text text-anchor="middle" x="704.95" y="-14.3" font-family="Times,serif" font-size="14.00">&quot;g&quot; (1)</text>
</g>
<!-- leaf_0x76 -->
<g id="node2" class="node">
<title>leaf_0x76</title>
<ellipse fill="none" stroke="black" cx="803.95" cy="-18" rx="40.09" ry="18"/>
<text text-anchor="middle" x="803.95" y="-14.3" font-family="Times,serif" font-size="14.00">&quot;v&quot; (1)</text>
</g>
<!-- internal_0 -->
<g id="node3" class="node">
<title>internal_0</title>
<ellipse fill="none" stroke="black" cx="704.95" cy="-105" rx="27" ry="18"/>
<text text-anchor="middle" x="704.95" y="-101.3" font-family="Times,serif" font-size="14.00">(2)</text>
</g>
<!-- internal_0&#45;&gt;leaf_0x67 -->
<g id="edge1" class="edge">
<title>internal_0&#45;&gt;leaf_0x67</title>
<path fill="none" stroke="black" d="M704.95,-86.8C704.95,-75.16 704.95,-59.55 704.95,-46.24"/>
<polygon fill="black" stroke="black" points="708.45,-46.18 704.95,-36.18 701.45,-46.18 708.45,-46.18"/>
<text text-anchor="middle" x="709.95" y="-57.8" font-family="Times,serif" font-size="14.00">0</text>
</g>
<!-- internal_0&#45;&gt;leaf_0x76 -->
<g id="edge2" class="edge">
<title>internal_0&#45;&gt;leaf_0x76</title>
<path fill="none" stroke="black" d="M720.85,-90.34C736.3,-77.08 760.03,-56.71 778.17,-41.13"/>
<polygon fill="black" stroke="black" points="780.76,-43.52 786.07,-34.35 776.2,-38.21 780.76,-43.52"/>
<text text-anchor="middle" x="764.95" y="-57.8" font-family="Times,serif" font-size="14.00">1</text>
</g>
<!-- leaf_0x66 -->
<g id="node4" class="node">
<title>leaf_0x66</title>
<ellipse fill="none" stroke="black" cx="111.95" cy="-18" rx="38.19" ry="18"/>
<text text-anchor="middle" x="111.95" y="-14.3" font-family="Times,serif" font-size="14.00">&quot;f&quot; (1)</text>
</g>
<!-- leaf_0x2c -->
<g id="node5" class="node">
<title>leaf_0x2c</title>
<ellipse fill="none" stroke="black" cx="206.95" cy="-18" rx="38.19" ry="18"/>
<text text-anchor="middle" x="206.95" y="-14.3" font-family="Times,serif" font-size="14.00">&quot;,&quot; (1)</text>
</g>
<!-- internal_1 -->
<g id="node6" class="node">
<title>internal_1</title>
<ellipse fill="none" stroke="black" cx="220.95" cy="-105" rx="27" ry="18"/>
<text text-anchor="middle" x="220.95" y="-101.3" font-family="Times,serif" font-size="14.00">(2)</text>
</g>
<!-- internal_1&#45;&gt;leaf_0x66 -->
<g id="edge3" class="edge">
<title>internal_1&#45;&gt;leaf_0x66</title>
<path fill="none" stroke="black" d="M203.92,-90.72C186.55,-77.18 159.34,-55.96 139.02,-40.11"/>
<polygon fill="black" stroke="black" points="141.1,-37.29 131.06,-33.9 136.79,-42.81 141.1,-37.29"/>
<text text-anchor="middle" x="178.95" y="-57.8" font-family="Times,serif" font-size="14.00">0</text>
</g>
<!-- internal_1&#45;&gt;leaf_0x2c -->
<g id="edge4" class="edge">
<title>internal_1&#45;&gt;leaf_0x2c</title>
<path fill="none" stroke="black" d="M218.11,-86.8C216.2,-75.16 213.62,-59.55 211.43,-46.24"/>
<polygon fill="black" stroke="black" points="214.85,-45.47 209.78,-36.18 207.95,-46.61 214.85,-45.47"/>
<text text-anchor="middle" x="219.95" y="-57.8" font-family="Times,serif" font-size="14.00">1</text>
</g>
<!-- leaf_0x0a -->
<g id="node7" class="node">
<title>leaf_0x0a</title>
<ellipse fill="none" stroke="black" cx="501.95" cy="-18" rx="44.39" ry="18"/>
<text text-anchor="middle" x="501.95" y="-14.3" font-family="Times,serif" font-size="14.00">&quot;\n&quot; (1)</text>
</g>
<!-- leaf_0x75 -->
<g id="node8" class="node">
<title>leaf_0x75</title>
<ellipse fill="none" stroke="black" cx="604.95" cy="-18" rx="40.89" ry="18"/>
<text text-anchor="middle" x="604.95" y="-14.3" font-family="Times,serif" font-size="14.00">&quot;u&quot; (1)</text>
</g>
<!-- internal_2 -->
<g id="node9" class="node">
<title>internal_2</title>
<ellipse fill="none" stroke="black" cx="501.95" cy="-105" rx="27" ry="18"/>
<text text-anchor="middle" x="501.95" y="-101.3" font-family="Times,serif" font-size="14.00">(2)</text>
</g>
<!-- internal_2&#45;&gt;leaf_0x0a -->
<g id="edge5" class="edge">
<title>internal_2&#45;&gt;leaf_0x0a</title>
<path fill="none" stroke="black" d="M501.95,-86.8C501.95,-75.16 501.95,-59.55 501.95,-46.24"/>
<polygon fill="black" stroke="black" points="505.45,-46.18 501.95,-36.18 498.45,-46.18 505.45,-46.18"/>
<text text-anchor="middle" x="506.95" y="-57.8" font-family="Times,serif" font-size="14.00">0</text>
</g>
<!-- internal_2&#45;&gt;leaf_0x75 -->
<g id="edge6" class="edge">
<title>internal_2&#45;&gt;leaf_0x75</title>
<path fill="none" stroke="black" d="M518.5,-90.34C534.64,-77.02 559.47,-56.53 578.39,-40.92"/>
<polygon fill="black" stroke="black" points="580.86,-43.41 586.35,-34.35 576.41,-38.01 580.86,-43.41"/>
<text text-anchor="middle" x="563.95" y="-57.8" font-family="Times,serif" font-size="14.00">1</text>
</g>
<!-- leaf_0x63 -->
<g id="node10" class="node">
<title>leaf_0x63</title>
<ellipse fill="none" stroke="black" cx="303.95" cy="-18" rx="40.09" ry="18"/>
<text text-anchor="middle" x="303.95" y="-14.3" font-family="Times,serif" font-size="14.00">&quot;c&quot; (1)</text>
</g>
<!-- leaf_0x2e -->
<g id="node11" class="node">
<title>leaf_0x2e</title>
<ellipse fill="none" stroke="black" cx="400.95" cy="-18" rx="38.19" ry="18"/>
<text text-anchor="middle" x="400.95" y="-14.3" font-family="Times,serif" font-size="14.00">&quot;.&quot; (1)</text>
</g>
<!-- internal_3 -->
<g id="node12" class="node">
<title>internal_3</title>
<ellipse fill="none" stroke="black" cx="387.95" cy="-105" rx="27" ry="18"/>
<text text-anchor="middle" x="387.95" y="-101.3" font-family="Times,serif" font-size="14.00">(2)</text>
</g>
<!-- internal_3&#45;&gt;leaf_0x63 -->
<g id="edge7" class="edge">
<title>internal_3&#45;&gt;leaf_0x63</title>
<path fill="none" stroke="black" d="M373.7,-89.58C360.86,-76.59 341.77,-57.27 326.8,-42.13"/>
<polygon fill="black" stroke="black" points="328.93,-39.3 319.41,-34.64 323.95,-44.22 328.93,-39.3"/>
<text text-anchor="middle" x="356.95" y="-57.8" font-family="Times,serif" font-size="14.00">0</text>
</g>
<!-- internal_3&#45;&gt;leaf_0x2e -->
<g id="edge8" class="edge">
<title>internal_3&#45;&gt;leaf_0x2e</title>
<path fill="none" stroke="black" d="M390.58,-86.8C392.36,-75.16 394.74,-59.55 396.78,-46.24"/>
<polygon fill="black" stroke="black" points="400.27,-46.59 398.32,-36.18 393.35,-45.53 400.27,-46.59"/>
<text text-anchor="middle" x="400.95" y="-57.8" font-family="Times,serif" font-size="14.00">1</text>
</g>
<!-- leaf_0x62 -->
<g id="node13" class="node">
<title>leaf_0x62</title>
<ellipse fill="none" stroke="black" cx="40.95" cy="-105" rx="40.89" ry="18"/>
<text text-anchor="middle" x="40.95" y="-101.3" font-family="Times,serif" font-size="14.00">&quot;b&quot; (2)</text>
</g>
<!-- leaf_0x69 -->
<g id="node14" class="node">
<title>leaf_0x69</title>
<ellipse fill="none" stroke="black" cx="137.95" cy="-105" rx="38.19" ry="18"/>
<text text-anchor="middle" x="137.95" y="-101.3" font-family="Times,serif" font-size="14.00">&quot;i&quot; (2)</text>
</g>
<!-- internal_4 -->
<g id="node15" class="node">
<title>internal_4</title>
<ellipse fill="none" stroke="black" cx="137.95" cy="-192" rx="27" ry="18"/>
<text text-anchor="middle" x="137.95" y="-188.3" font-family="Times,serif" font-size="14.00">(4)</text>
</g>
<!-- internal_4&#45;&gt;leaf_0x62 -->
<g id="edge9" class="edge">
<title>internal_4&#45;&gt;leaf_0x62</title>
<path fill="none" stroke="black" d="M121.93,-176.96C106.81,-163.72 83.9,-143.64 66.3,-128.21"/>
<polygon fill="black" stroke="black" points="68.46,-125.46 58.63,-121.5 63.85,-130.72 68.46,-125.46"/>
<text text-anchor="middle" x="100.95" y="-144.8" font-family="Times,serif" font-size="14.00">0</text>
</g>
<!-- internal_4&#45;&gt;leaf_0x69 -->
<g id="edge10" class="edge">
<title>internal_4&#45;&gt;leaf_0x69</title>
<path fill="none" stroke="black" d="M137.95,-173.8C137.95,-162.16 137.95,-146.55 137.95,-133.24"/>
<polygon fill="black" stroke="black" points="141.45,-133.18 137.95,-123.18 134.45,-133.18 141.45,-133.18"/>
<text text-anchor="middle" x="142.95" y="-144.8" font-family="Times,serif" font-size="14.00">1</text>
</g>
<!-- leaf_0x6d -->
<g id="node16" class="node">
<title>leaf_0x6d</title>
<ellipse fill="none" stroke="black" cx="793.95" cy="-105" rx="44.39" ry="18"/>
<text text-anchor="middle" x="793.95" y="-101.3" font-family="Times,serif" font-size="14.00">&quot;m&quot; (2)</text>
</g>
<!-- internal_5 -->
<g id="node17" class="node">
<title>internal_5</title>
<ellipse fill="none" stroke="black" cx="712.95" cy="-192" rx="27" ry="18"/>
<text text-anchor="middle" x="712.95" y="-188.3" font-family="Times,serif" font-size="14.00">(4)</text>
</g>
<!-- internal_5&#45;&gt;internal_0 -->
<g id="edge12" class="edge">
<title>internal_5&#45;&gt;internal_0</title>
<path fill="none" stroke="black" d="M711.33,-173.8C710.23,-162.16 708.76,-146.55 707.51,-133.24"/>
<polygon fill="black" stroke="black" points="710.98,-132.8 706.56,-123.18 704.02,-133.46 710.98,-132.8"/>
<text text-anchor="middle" x="713.95" y="-144.8" font-family="Times,serif" font-size="14.00">1</text>
</g>
<!-- internal_5&#45;&gt;leaf_0x6d -->
<g id="edge11" class="edge">
<title>internal_5&#45;&gt;leaf_0x6d</title>
<path fill="none" stroke="black" d="M727.06,-176.19C739.33,-163.31 757.33,-144.42 771.57,-129.48"/>
<polygon fill="black" stroke="black" points="774.26,-131.74 778.62,-122.08 769.19,-126.91 774.26,-131.74"/>
<text text-anchor="middle" x="762.95" y="-144.8" font-family="Times,serif" font-size="14.00">0</text>
</g>
<!-- internal_6 -->
<g id="node18" class="node">
<title>internal_6</title>
<ellipse fill="none" stroke="black" cx="387.95" cy="-192" rx="27" ry="18"/>
<text text-anchor="middle" x="387.95" y="-188.3" font-family="Times,serif" font-size="14.00">(4)</text>
</g>
<!-- internal_6&#45;&gt;internal_1 -->
<g id="edge14" class="edge">
<title>internal_6&#45;&gt;internal_1</title>
<path fill="none" stroke="black" d="M367.13,-180.41C337.93,-165.54 284.61,-138.4 251.07,-121.33"/>
<polygon fill="black" stroke="black" points="252.26,-118.01 241.76,-116.59 249.08,-124.25 252.26,-118.01"/>
<text text-anchor="middle" x="319.95" y="-144.8" font-family="Times,serif" font-size="14.00">1</text>
</g>
<!-- internal_6&#45;&gt;internal_3 -->
<g id="edge13" class="edge">
<title>internal_6&#45;&gt;internal_3</title>
<path fill="none" stroke="black" d="M387.95,-173.8C387.95,-162.16 387.95,-146.55 387.95,-133.24"/>
<polygon fill="black" stroke="black" points="391.45,-133.18 387.95,-123.18 384.45,-133.18 391.45,-133.18"/>
<text text-anchor="middle" x="392.95" y="-144.8" font-family="Times,serif" font-size="14.00">0</text>
</g>
<!-- leaf_0x64 -->
<g id="node19" class="node">
<title>leaf_0x64</title>
<ellipse fill="none" stroke="black" cx="587.95" cy="-105" rx="40.89" ry="18"/>
<text text-anchor="middle" x="587.95" y="-101.3" font-family="Times,serif" font-size="14.00">&quot;d&quot; (2)</text>
</g>
<!-- internal_7 -->
<g id="node20" class="node">
<title>internal_7</title>
<ellipse fill="none" stroke="black" cx="501.95" cy="-192" rx="27" ry="18"/>
<text text-anchor="middle" x="501.95" y="-188.3" font-family="Times,serif" font-size="14.00">(4)</text>
</g>
<!-- internal_7&#45;&gt;internal_2 -->
<g id="edge16" class="edge">
<title>internal_7&#45;&gt;internal_2</title>
<path fill="none" stroke="black" d="M501.95,-173.8C501.95,-162.16 501.95,-146.55 501.95,-133.24"/>
<polygon fill="black" stroke="black" points="505.45,-133.18 501.95,-123.18 498.45,-133.18 505.45,-133.18"/>
<text text-anchor="middle" x="506.95" y="-144.8" font-family="Times,serif" font-size="14.00">1</text>
</g>
<!-- internal_7&#45;&gt;leaf_0x64 -->
<g id="edge15" class="edge">
<title>internal_7&#45;&gt;leaf_0x64</title>
<path fill="none" stroke="black" d="M516.54,-176.58C529.8,-163.47 549.58,-143.92 564.97,-128.71"/>
<polygon fill="black" stroke="black" points="567.47,-131.16 572.12,-121.64 562.55,-126.18 567.47,-131.16"/>
<text text-anchor="middle" x="554.95" y="-144.8" font-family="Times,serif" font-size="14.00">0</text>
</g>
<!-- leaf_0x4d -->
<g id="node21" class="node">
<title>leaf_0x4d</title>
<ellipse fill="none" stroke="black" cx="899.95" cy="-105" rx="44.39" ry="18"/>
<text text-anchor="middle" x="899.95" y="-101.3" font-family="Times,serif" font-size="14.00">&quot;M&quot; (2)</text>
</g>
<!-- leaf_0x6e -->
<g id="node22" class="node">
<title>leaf_0x6e</title>
<ellipse fill="none" stroke="black" cx="1002.95" cy="-105" rx="40.89" ry="18"/>
<text text-anchor="middle" x="1002.95" y="-101.3" font-family="Times,serif" font-size="14.00">&quot;n&quot; (3)</text>
</g>
<!-- internal_8 -->
<g id="node23" class="node">
<title>internal_8</title>
<ellipse fill="none" stroke="black" cx="899.95" cy="-192" rx="27" ry="18"/>
<text text-anchor="middle" x="899.95" y="-188.3" font-family="Times,serif" font-size="14.00">(5)</text>
</g>
<!-- internal_8&#45;&gt;leaf_0x4d -->
<g id="edge17" class="edge">
<title>internal_8&#45;&gt;leaf_0x4d</title>
<path fill="none" stroke="black" d="M899.95,-173.8C899.95,-162.16 899.95,-146.55 899.95,-133.24"/>
<polygon fill="black" stroke="black" points="903.45,-133.18 899.95,-123.18 896.45,-133.18 903.45,-133.18"/>
<text text-anchor="middle" x="904.95" y="-144.8" font-family="Times,serif" font-size="14.00">0</text>
</g>
<!-- internal_8&#45;&gt;leaf_0x6e -->
<g id="edge18" class="edge">
<title>internal_8&#45;&gt;leaf_0x6e</title>
<path fill="none" stroke="black" d="M916.5,-177.34C932.64,-164.02 957.47,-143.53 976.39,-127.92"/>
<polygon fill="black" stroke="black" points="978.86,-130.41 984.35,-121.35 974.41,-125.01 978.86,-130.41"/>
<text text-anchor="middle" x="961.95" y="-144.8" font-family="Times,serif" font-size="14.00">1</text>
</g>
<!-- leaf_0x79 -->
<g id="node24" class="node">
<title>leaf_0x79</title>
<ellipse fill="none" stroke="black" cx="275.95" cy="-192" rx="40.09" ry="18"/>
<text text-anchor="middle" x="275.95" y="-188.3" font-family="Times,serif" font-size="14.00">&quot;y&quot; (3)</text>
</g>
<!-- internal_9 -->
<g id="node25" class="node">
<title>internal_9</title>
<ellipse fill="none" stroke="black" cx="275.95" cy="-279" rx="27" ry="18"/>
<text text-anchor="middle" x="275.95" y="-275.3" font-family="Times,serif" font-size="14.00">(7)</text>
</g>
<!-- internal_9&#45;&gt;internal_4 -->
<g id="edge20" class="edge">
<title>internal_9&#45;&gt;internal_4</title>
<path fill="none" stroke="black" d="M256.76,-266.18C233.2,-251.67 193.07,-226.95 166.04,-210.3"/>
<polygon fill="black" stroke="black" points="167.77,-207.26 157.42,-204.99 164.1,-213.22 167.77,-207.26"/>
<text text-anchor="middle" x="220.95" y="-231.8" font-family="Times,serif" font-size="14.00">1</text>
</g>
<!-- internal_9&#45;&gt;leaf_0x79 -->
<g id="edge19" class="edge">
<title>internal_9&#45;&gt;leaf_0x79</title>
<path fill="none" stroke="black" d="M275.95,-260.8C275.95,-249.16 275.95,-233.55 275.95,-220.24"/>
<polygon fill="black" stroke="black" points="279.45,-220.18 275.95,-210.18 272.45,-220.18 279.45,-220.18"/>
<text text-anchor="middle" x="280.95" y="-231.8" font-family="Times,serif" font-size="14.00">0</text>
</g>
<!-- leaf_0x6f -->
<g id="node26" class="node">
<title>leaf_0x6f</title>
<ellipse fill="none" stroke="black" cx="797.95" cy="-192" rx="40.09" ry="18"/>
<text text-anchor="middle" x="797.95" y="-188.3" font-family="Times,serif" font-size="14.00">&quot;o&quot; (4)</text>
</g>
<!-- internal_10 -->
<g id="node27" class="node">
<title>internal_10</title>
<ellipse fill="none" stroke="black" cx="726.95" cy="-279" rx="27" ry="18"/>
<text text-anchor="middle" x="726.95" y="-275.3" font-family="Times,serif" font-size="14.00">(8)</text>
</g>
<!-- internal_10&#45;&gt;internal_5 -->
<g id="edge21" class="edge">
<title>internal_10&#45;&gt;internal_5</title>
<path fill="none" stroke="black" d="M724.11,-260.8C722.2,-249.16 719.62,-233.55 717.43,-220.24"/>
<polygon fill="black" stroke="black" points="720.85,-219.47 715.78,-210.18 713.95,-220.61 720.85,-219.47"/>
<text text-anchor="middle" x="724.95" y="-231.8" font-family="Times,serif" font-size="14.00">0</text>
</g>
<!-- internal_10&#45;&gt;leaf_0x6f -->
<g id="edge22" class="edge">
<title>internal_10&#45;&gt;leaf_0x6f</title>
<path fill="none" stroke="black" d="M739.64,-262.8C750.27,-250.07 765.64,-231.67 777.93,-216.96"/>
<polygon fill="black" stroke="black" points="780.67,-219.14 784.4,-209.22 775.3,-214.65 780.67,-219.14"/>
<text text-anchor="middle" x="770.95" y="-231.8" font-family="Times,serif" font-size="14.00">1</text>
</g>
<!-- internal_11 -->
<g id="node28" class="node">
<title>internal_11</title>
<ellipse fill="none" stroke="black" cx="473.95" cy="-279" rx="27" ry="18"/>
<text text-anchor="middle" x="473.95" y="-275.3" font-family="Times,serif" font-size="14.00">(8)</text>
</g>
<!-- internal_11&#45;&gt;internal_6 -->
<g id="edge23" class="edge">
<title>internal_11&#45;&gt;internal_6</title>
<path fill="none" stroke="black" d="M459.36,-263.58C445.77,-250.15 425.32,-229.94 409.79,-214.59"/>
<polygon fill="black" stroke="black" points="412.18,-212.03 402.61,-207.49 407.26,-217.01 412.18,-212.03"/>
<text text-anchor="middle" x="441.95" y="-231.8" font-family="Times,serif" font-size="14.00">0</text>
</g>
<!-- internal_11&#45;&gt;internal_7 -->
<g id="edge24" class="edge">
<title>internal_11&#45;&gt;internal_7</title>
<path fill="none" stroke="black" d="M479.48,-261.21C483.39,-249.33 488.71,-233.17 493.2,-219.56"/>
<polygon fill="black" stroke="black" points="496.62,-220.35 496.43,-209.76 489.97,-218.16 496.62,-220.35"/>
<text text-anchor="middle" x="494.95" y="-231.8" font-family="Times,serif" font-size="14.00">1</text>
</g>
<!-- leaf_0x6c -->
<g id="node29" class="node">
<title>leaf_0x6c</title>
<ellipse fill="none" stroke="black" cx="982.95" cy="-192" rx="38.19" ry="18"/>
<text text-anchor="middle" x="982.95" y="-188.3" font-family="Times,serif" font-size="14.00">&quot;l&quot; (5)</text>
</g>
<!-- internal_12 -->
<g id="node30" class="node">
<title>internal_12</title>
<ellipse fill="none" stroke="black" cx="899.95" cy="-279" rx="29.5" ry="18"/>
<text text-anchor="middle" x="899.95" y="-275.3" font-family="Times,serif" font-size="14.00">(10)</text>
</g>
<!-- internal_12&#45;&gt;internal_8 -->
<g id="edge26" class="edge">
<title>internal_12&#45;&gt;internal_8</title>
<path fill="none" stroke="black" d="M899.95,-260.8C899.95,-249.16 899.95,-233.55 899.95,-220.24"/>
<polygon fill="black" stroke="black" points="903.45,-220.18 899.95,-210.18 896.45,-220.18 903.45,-220.18"/>
<text text-anchor="middle" x="904.95" y="-231.8" font-family="Times,serif" font-size="14.00">1</text>
</g>
<!-- internal_12&#45;&gt;leaf_0x6c -->
<g id="edge25" class="edge">
<title>internal_12&#45;&gt;leaf_0x6c</title>
<path fill="none" stroke="black" d="M914.4,-263.19C927.06,-250.23 945.66,-231.18 960.29,-216.2"/>
<polygon fill="black" stroke="black" points="963.05,-218.39 967.53,-208.79 958.04,-213.5 963.05,-218.39"/>
<text text-anchor="middle" x="950.95" y="-231.8" font-family="Times,serif" font-size="14.00">0</text>
</g>
<!-- leaf_0x72 -->
<g id="node31" class="node">
<title>leaf_0x72</title>
<ellipse fill="none" stroke="black" cx="90.95" cy="-279" rx="39.79" ry="18"/>
<text text-anchor="middle" x="90.95" y="-275.3" font-family="Times,serif" font-size="14.00">&quot;r&quot; (5)</text>
</g>
<!-- leaf_0x68 -->
<g id="node32" class="node">
<title>leaf_0x68</title>
<ellipse fill="none" stroke="black" cx="189.95" cy="-279" rx="40.89" ry="18"/>
<text text-anchor="middle" x="189.95" y="-275.3" font-family="Times,serif" font-size="14.00">&quot;h&quot; (6)</text>
</g>
<!-- internal_13 -->
<g id="node33" class="node">
<title>internal_13</title>
<ellipse fill="none" stroke="black" cx="189.95" cy="-366" rx="29.5" ry="18"/>
<text text-anchor="middle" x="189.95" y="-362.3" font-family="Times,serif" font-size="14.00">(11)</text>
</g>
<!-- internal_13&#45;&gt;leaf_0x72 -->
<g id="edge27" class="edge">
<title>internal_13&#45;&gt;leaf_0x72</title>
<path fill="none" stroke="black" d="M173.6,-350.96C158.07,-337.63 134.49,-317.39 116.49,-301.93"/>
<polygon fill="black" stroke="black" points="118.52,-299.06 108.66,-295.21 113.96,-304.38 118.52,-299.06"/>
<text text-anchor="middle" x="151.95" y="-318.8" font-family="Times,serif" font-size="14.00">0</text>
</g>
<!-- internal_13&#45;&gt;leaf_0x68 -->
<g id="edge28" class="edge">
<title>internal_13&#45;&gt;leaf_0x68</title>
<path fill="none" stroke="black" d="M189.95,-347.8C189.95,-336.16 189.95,-320.55 189.95,-307.24"/>
<polygon fill="black" stroke="black" points="193.45,-307.18 189.95,-297.18 186.45,-307.18 193.45,-307.18"/>
<text text-anchor="middle" x="194.95" y="-318.8" font-family="Times,serif" font-size="14.00">1</text>
</g>
<!-- leaf_0x73 -->
<g id="node34" class="node">
<title>leaf_0x73</title>
<ellipse fill="none" stroke="black" cx="360.95" cy="-279" rx="40.09" ry="18"/>
<text text-anchor="middle" x="360.95" y="-275.3" font-family="Times,serif" font-size="14.00">&quot;s&quot; (6)</text>
</g>
<!-- internal_14 -->
<g id="node35" class="node">
<title>internal_14</title>
<ellipse fill="none" stroke="black" cx="307.95" cy="-366" rx="29.5" ry="18"/>
<text text-anchor="middle" x="307.95" y="-362.3" font-family="Times,serif" font-size="14.00">(13)</text>
</g>
<!-- internal_14&#45;&gt;internal_9 -->
<g id="edge30" class="edge">
<title>internal_14&#45;&gt;internal_9</title>
<path fill="none" stroke="black" d="M301.62,-348.21C297.11,-336.22 290.95,-319.85 285.79,-306.16"/>
<polygon fill="black" stroke="black" points="289.05,-304.88 282.26,-296.76 282.5,-307.35 289.05,-304.88"/>
<text text-anchor="middle" x="298.95" y="-318.8" font-family="Times,serif" font-size="14.00">1</text>
</g>
<!-- internal_14&#45;&gt;leaf_0x73 -->
<g id="edge29" class="edge">
<title>internal_14&#45;&gt;leaf_0x73</title>
<path fill="none" stroke="black" d="M317.92,-349.01C325.59,-336.7 336.34,-319.46 345.18,-305.28"/>
<polygon fill="black" stroke="black" points="348.34,-306.83 350.66,-296.5 342.4,-303.13 348.34,-306.83"/>
<text text-anchor="middle" x="342.95" y="-318.8" font-family="Times,serif" font-size="14.00">0</text>
</g>
<!-- leaf_0x77 -->
<g id="node36" class="node">
<title>leaf_0x77</title>
<ellipse fill="none" stroke="black" cx="561.95" cy="-279" rx="42.79" ry="18"/>
<text text-anchor="middle" x="561.95" y="-275.3" font-family="Times,serif" font-size="14.00">&quot;w&quot; (7)</text>
</g>
<!-- internal_15 -->
<g id="node37" class="node">
<title>internal_15</title>
<ellipse fill="none" stroke="black" cx="543.95" cy="-366" rx="29.5" ry="18"/>
<text text-anchor="middle" x="543.95" y="-362.3" font-family="Times,serif" font-size="14.00">(15)</text>
</g>
<!-- internal_15&#45;&gt;internal_11 -->
<g id="edge32" class="edge">
<title>internal_15&#45;&gt;internal_11</title>
<path fill="none" stroke="black" d="M531.11,-349.41C520.48,-336.51 505.23,-317.99 493.15,-303.32"/>
<polygon fill="black" stroke="black" points="495.53,-300.7 486.47,-295.21 490.12,-305.15 495.53,-300.7"/>
<text text-anchor="middle" x="518.95" y="-318.8" font-family="Times,serif" font-size="14.00">1</text>
</g>
<!-- internal_15&#45;&gt;leaf_0x77 -->
<g id="edge31" class="edge">
<title>internal_15&#45;&gt;leaf_0x77</title>
<path fill="none" stroke="black" d="M547.59,-347.8C550.05,-336.16 553.36,-320.55 556.18,-307.24"/>
<polygon fill="black" stroke="black" points="559.66,-307.68 558.31,-297.18 552.81,-306.23 559.66,-307.68"/>
<text text-anchor="middle" x="558.95" y="-318.8" font-family="Times,serif" font-size="14.00">0</text>
</g>
<!-- leaf_0x74 -->
<g id="node38" class="node">
<title>leaf_0x74</title>
<ellipse fill="none" stroke="black" cx="810.95" cy="-279" rx="38.99" ry="18"/>
<text text-anchor="middle" x="810.95" y="-275.3" font-family="Times,serif" font-size="14.00">&quot;t&quot; (8)</text>
</g>
<!-- internal_16 -->
<g id="node39" class="node">
<title>internal_16</title>
<ellipse fill="none" stroke="black" cx="741.95" cy="-366" rx="29.5" ry="18"/>
<text text-anchor="middle" x="741.95" y="-362.3" font-family="Times,serif" font-size="14.00">(16)</text>
</g>
<!-- internal_16&#45;&gt;internal_10 -->
<g id="edge34" class="edge">
<title>internal_16&#45;&gt;internal_10</title>
<path fill="none" stroke="black" d="M738.91,-347.8C736.86,-336.16 734.1,-320.55 731.75,-307.24"/>
<polygon fill="black" stroke="black" points="735.16,-306.41 729.98,-297.18 728.27,-307.63 735.16,-306.41"/>
<text text-anchor="middle" x="739.95" y="-318.8" font-family="Times,serif" font-size="14.00">1</text>
</g>
<!-- internal_16&#45;&gt;leaf_0x74 -->
<g id="edge33" class="edge">
<title>internal_16&#45;&gt;leaf_0x74</title>
<path fill="none" stroke="black" d="M754.6,-349.41C764.88,-336.75 779.55,-318.68 791.34,-304.15"/>
<polygon fill="black" stroke="black" points="794.32,-306.04 797.9,-296.07 788.88,-301.63 794.32,-306.04"/>
<text text-anchor="middle" x="784.95" y="-318.8" font-family="Times,serif" font-size="14.00">0</text>
</g>
<!-- leaf_0x61 -->
<g id="node40" class="node">
<title>leaf_0x61</title>
<ellipse fill="none" stroke="black" cx="992.95" cy="-279" rx="46.29" ry="18"/>
<text text-anchor="middle" x="992.95" y="-275.3" font-family="Times,serif" font-size="14.00">&quot;a&quot; (11)</text>
</g>
<!-- internal_17 -->
<g id="node41" class="node">
<title>internal_17</title>
<ellipse fill="none" stroke="black" cx="899.95" cy="-366" rx="29.5" ry="18"/>
<text text-anchor="middle" x="899.95" y="-362.3" font-family="Times,serif" font-size="14.00">(21)</text>
</g>
<!-- internal_17&#45;&gt;internal_12 -->
<g id="edge35" class="edge">
<title>internal_17&#45;&gt;internal_12</title>
<path fill="none" stroke="black" d="M899.95,-347.8C899.95,-336.16 899.95,-320.55 899.95,-307.24"/>
<polygon fill="black" stroke="black" points="903.45,-307.18 899.95,-297.18 896.45,-307.18 903.45,-307.18"/>
<text text-anchor="middle" x="904.95" y="-318.8" font-family="Times,serif" font-size="14.00">0</text>
</g>
<!-- internal_17&#45;&gt;leaf_0x61 -->
<g id="edge36" class="edge">
<title>internal_17&#45;&gt;leaf_0x61</title>
<path fill="none" stroke="black" d="M915.72,-350.58C929.97,-337.56 951.19,-318.16 967.79,-303"/>
<polygon fill="black" stroke="black" points="970.49,-305.27 975.51,-295.94 965.77,-300.1 970.49,-305.27"/>
<text text-anchor="middle" x="956.95" y="-318.8" font-family="Times,serif" font-size="14.00">1</text>
</g>
<!-- internal_18 -->
<g id="node42" class="node">
<title>internal_18</title>
<ellipse fill="none" stroke="black" cx="307.95" cy="-453" rx="29.5" ry="18"/>
<text text-anchor="middle" x="307.95" y="-449.3" font-family="Times,serif" font-size="14.00">(24)</text>
</g>
<!-- internal_18&#45;&gt;internal_13 -->
<g id="edge37" class="edge">
<title>internal_18&#45;&gt;internal_13</title>
<path fill="none" stroke="black" d="M289.51,-438.72C269.94,-424.62 238.83,-402.21 216.59,-386.19"/>
<polygon fill="black" stroke="black" points="218.41,-383.19 208.25,-380.19 214.32,-388.87 218.41,-383.19"/>
<text text-anchor="middle" x="261.95" y="-405.8" font-family="Times,serif" font-size="14.00">0</text>
</g>
<!-- internal_18&#45;&gt;internal_14 -->
<g id="edge38" class="edge">
<title>internal_18&#45;&gt;internal_14</title>
<path fill="none" stroke="black" d="M307.95,-434.8C307.95,-423.16 307.95,-407.55 307.95,-394.24"/>
<polygon fill="black" stroke="black" points="311.45,-394.18 307.95,-384.18 304.45,-394.18 311.45,-394.18"/>
<text text-anchor="middle" x="312.95" y="-405.8" font-family="Times,serif" font-size="14.00">1</text>
</g>
<!-- leaf_0x65 -->
<g id="node43" class="node">
<title>leaf_0x65</title>
<ellipse fill="none" stroke="black" cx="636.95" cy="-366" rx="46.29" ry="18"/>
<text text-anchor="middle" x="636.95" y="-362.3" font-family="Times,serif" font-size="14.00">&quot;e&quot; (13)</text>
</g>
<!-- internal_19 -->
<g id="node44" class="node">
<title>internal_19</title>
<ellipse fill="none" stroke="black" cx="613.95" cy="-453" rx="29.5" ry="18"/>
<text text-anchor="middle" x="613.95" y="-449.3" font-family="Times,serif" font-size="14.00">(28)</text>
</g>
<!-- internal_19&#45;&gt;internal_15 -->
<g id="edge40" class="edge">
<title>internal_19&#45;&gt;internal_15</title>
<path fill="none" stroke="black" d="M601.11,-436.41C590.55,-423.59 575.42,-405.22 563.38,-390.6"/>
<polygon fill="black" stroke="black" points="565.76,-387.99 556.7,-382.49 560.36,-392.44 565.76,-387.99"/>
<text text-anchor="middle" x="587.95" y="-405.8" font-family="Times,serif" font-size="14.00">1</text>
</g>
<!-- internal_19&#45;&gt;leaf_0x65 -->
<g id="edge39" class="edge">
<title>internal_19&#45;&gt;leaf_0x65</title>
<path fill="none" stroke="black" d="M618.49,-435.21C621.68,-423.41 626.02,-407.38 629.69,-393.82"/>
<polygon fill="black" stroke="black" points="633.1,-394.62 632.33,-384.05 626.34,-392.79 633.1,-394.62"/>
<text text-anchor="middle" x="630.95" y="-405.8" font-family="Times,serif" font-size="14.00">0</text>
</g>
<!-- internal_20 -->
<g id="node45" class="node">
<title>internal_20</title>
<ellipse fill="none" stroke="black" cx="741.95" cy="-453" rx="29.5" ry="18"/>
<text text-anchor="middle" x="741.95" y="-449.3" font-family="Times,serif" font-size="14.00">(37)</text>
</g>
<!-- internal_20&#45;&gt;internal_16 -->
<g id="edge41" class="edge">
<title>internal_20&#45;&gt;internal_16</title>
<path fill="none" stroke="black" d="M741.95,-434.8C741.95,-423.16 741.95,-407.55 741.95,-394.24"/>
<polygon fill="black" stroke="black" points="745.45,-394.18 741.95,-384.18 738.45,-394.18 745.45,-394.18"/>
<text text-anchor="middle" x="746.95" y="-405.8" font-family="Times,serif" font-size="14.00">0</text>
</g>
<!-- internal_20&#45;&gt;internal_17 -->
<g id="edge42" class="edge">
<title>internal_20&#45;&gt;internal_17</title>
<path fill="none" stroke="black" d="M763.25,-440.54C790.66,-425.79 838.43,-400.09 869.62,-383.32"/>
<polygon fill="black" stroke="black" points="871.58,-386.24 878.72,-378.42 868.26,-380.07 871.58,-386.24"/>
<text text-anchor="middle" x="834.95" y="-405.8" font-family="Times,serif" font-size="14.00">1</text>
</g>
<!-- leaf_0x20 -->
<g id="node46" class="node">
<title>leaf_0x20</title>
<ellipse fill="none" stroke="black" cx="476.95" cy="-453" rx="44.39" ry="18"/>
<text text-anchor="middle" x="476.95" y="-449.3" font-family="Times,serif" font-size="14.00">&quot; &quot; (21)</text>
</g>
<!-- internal_21 -->
<g id="node47" class="node">
<title>internal_21</title>
<ellipse fill="none" stroke="black" cx="476.95" cy="-540" rx="29.5" ry="18"/>
<text text-anchor="middle" x="476.95" y="-536.3" font-family="Times,serif" font-size="14.00">(45)</text>
</g>
<!-- internal_21&#45;&gt;internal_18 -->
<g id="edge44" class="edge">
<title>internal_21&#45;&gt;internal_18</title>
<path fill="none" stroke="black" d="M454.85,-527.89C425.29,-513.02 372.71,-486.57 339.13,-469.68"/>
<polygon fill="black" stroke="black" points="340.28,-466.35 329.78,-464.98 337.14,-472.6 340.28,-466.35"/>
<text text-anchor="middle" x="407.95" y="-492.8" font-family="Times,serif" font-size="14.00">1</text>
</g>
<!-- internal_21&#45;&gt;leaf_0x20 -->
<g id="edge43" class="edge">
<title>internal_21&#45;&gt;leaf_0x20</title>
<path fill="none" stroke="black" d="M476.95,-521.8C476.95,-510.16 476.95,-494.55 476.95,-481.24"/>
<polygon fill="black" stroke="black" points="480.45,-481.18 476.95,-471.18 473.45,-481.18 480.45,-481.18"/>
<text text-anchor="middle" x="481.95" y="-492.8" font-family="Times,serif" font-size="14.00">0</text>
</g>
<!-- internal_22 -->
<g id="node48" class="node">
<title>internal_22</title>
<ellipse fill="none" stroke="black" cx="613.95" cy="-540" rx="29.5" ry="18"/>
<text text-anchor="middle" x="613.95" y="-536.3" font-family="Times,serif" font-size="14.00">(65)</text>
</g>
<!-- internal_22&#45;&gt;internal_19 -->
<g id="edge45" class="edge">
<title>internal_22&#45;&gt;internal_19</title>
<path fill="none" stroke="black" d="M613.95,-521.8C613.95,-510.16 613.95,-494.55 613.95,-481.24"/>
<polygon fill="black" stroke="black" points="617.45,-481.18 613.95,-471.18 610.45,-481.18 617.45,-481.18"/>
<text text-anchor="middle" x="618.95" y="-492.8" font-family="Times,serif" font-size="14.00">0</text>
</g>
<!-- internal_22&#45;&gt;internal_20 -->
<g id="edge46" class="edge">
<title>internal_22&#45;&gt;internal_20</title>
<path fill="none" stroke="black" d="M633.11,-526.27C654.6,-512 689.65,-488.73 714.15,-472.46"/>
<polygon fill="black" stroke="black" points="716.26,-475.26 722.65,-466.81 712.39,-469.43 716.26,-475.26"/>
<text text-anchor="middle" x="689.95" y="-492.8" font-family="Times,serif" font-size="14.00">1</text>
</g>
<!-- internal_23 -->
<g id="node49" class="node">
<title>internal_23</title>
<ellipse fill="none" stroke="black" cx="521.95" cy="-627" rx="35.19" ry="18"/>
<text text-anchor="middle" x="521.95" y="-623.3" font-family="Times,serif" font-size="14.00">(110)</text>
</g>
<!-- internal_23&#45;&gt;internal_21 -->
<g id="edge47" class="edge">
<title>internal_23&#45;&gt;internal_21</title>
<path fill="none" stroke="black" d="M513.06,-609.21C506.6,-597.02 497.76,-580.32 490.44,-566.49"/>
<polygon fill="black" stroke="black" points="493.44,-564.67 485.67,-557.47 487.25,-567.94 493.44,-564.67"/>
<text text-anchor="middle" x="507.95" y="-579.8" font-family="Times,serif" font-size="14.00">0</text>
</g>
<!-- internal_23&#45;&gt;internal_22 -->
<g id="edge48" class="edge">
<title>internal_23&#45;&gt;internal_22</title>
<path fill="none" stroke="black" d="M538.39,-610.8C552.96,-597.34 574.39,-577.55 590.71,-562.47"/>
<polygon fill="black" stroke="black" points="593.29,-564.85 598.26,-555.5 588.53,-559.71 593.29,-564.85"/>
<text text-anchor="middle" x="577.95" y="-579.8" font-family="Times,serif" font-size="14.00">1</text>
</g>
</g>
</svg>
