<?xml version="1.0" encoding="UTF-8" standalone="no"?>
<!DOCTYPE svg PUBLIC "-//W3C//DTD SVG 1.1//EN"
 "http://www.w3.org/Graphics/SVG/1.1/DTD/svg11.dtd">
<!-- Generated by graphviz version 2.43.0 (0)
 -->
<!-- Title: %3 Pages: 1 -->
<svg width="306pt" height="392pt"
 viewBox="0.00 0.00 305.69 392.00" xmlns="http://www.w3.org/2000/svg" xmlns:xlink="http://www.w3.org/1999/xlink">
<g id="graph0" class="graph" transform="scale(1 1) rotate(0) translate(4 388)">
<title>%3</title>
<polygon fill="white" stroke="transparent" points="-4,4 -4,-388 301.69,-388 301.69,4 -4,4"/>
<!-- leaf_20 -->
<g id="node1" class="node">
<title>leaf_20</title>
<ellipse fill="none" stroke="black" cx="38.35" cy="-18" rx="38.19" ry="18"/>
<text text-anchor="middle" x="38.35" y="-14.3" font-family="Times,serif" font-size="14.00">&quot; &quot; (2)</text>
</g>
<!-- leaf_6d -->
<g id="node2" class="node">
<title>leaf_6d</title>
<ellipse fill="none" stroke="black" cx="139.35" cy="-18" rx="44.39" ry="18"/>
<text text-anchor="middle" x="139.35" y="-14.3" font-family="Times,serif" font-size="14.00">&quot;m&quot; (2)</text>
</g>
<!-- internal_0 -->
<g id="node3" class="node">
<title>internal_0</title>
<ellipse fill="none" stroke="black" cx="88.35" cy="-105" rx="27" ry="18"/>
<text text-anchor="middle" x="88.35" y="-101.3" font-family="Times,serif" font-size="14.00">(4)</text>
</g>
<!-- internal_0&#45;&gt;leaf_20 -->
<g id="edge1" class="edge">
<title>internal_0&#45;&gt;leaf_20</title>
<path fill="none" stroke="black" d="M78.94,-88.01C71.7,-75.7 61.56,-58.46 53.22,-44.28"/>
<polygon fill="black" stroke="black" points="56.14,-42.34 48.05,-35.5 50.1,-45.89 56.14,-42.34"/>
<text text-anchor="middle" x="71.35" y="-57.8" font-family="Times,serif" font-size="14.00">0</text>
</g>
<!-- internal_0&#45;&gt;leaf_6d -->
<g id="edge2" class="edge">
<title>internal_0&#45;&gt;leaf_6d</title>
<path fill="none" stroke="black" d="M97.94,-88.01C105.28,-75.78 115.54,-58.68 124.01,-44.56"/>
<polygon fill="black" stroke="black" points="127.13,-46.16 129.27,-35.79 121.13,-42.56 127.13,-46.16"/>
<text text-anchor="middle" x="122.35" y="-57.8" font-family="Times,serif" font-size="14.00">1</text>
</g>
<!-- leaf_70 -->
<g id="node4" class="node">
<title>leaf_70</title>
<ellipse fill="none" stroke="black" cx="174.35" cy="-105" rx="40.89" ry="18"/>
<text text-anchor="middle" x="174.35" y="-101.3" font-family="Times,serif" font-size="14.00">&quot;p&quot; (4)</text>
</g>
<!-- internal_1 -->
<g id="node5" class="node">
<title>internal_1</title>
<ellipse fill="none" stroke="black" cx="131.35" cy="-192" rx="27" ry="18"/>
<text text-anchor="middle" x="131.35" y="-188.3" font-family="Times,serif" font-size="14.00">(8)</text>
</g>
<!-- internal_1&#45;&gt;internal_0 -->
<g id="edge4" class="edge">
<title>internal_1&#45;&gt;internal_0</title>
<path fill="none" stroke="black" d="M123.06,-174.61C116.87,-162.38 108.3,-145.44 101.22,-131.46"/>
<polygon fill="black" stroke="black" points="104.25,-129.68 96.61,-122.34 98,-132.84 104.25,-129.68"/>
<text text-anchor="middle" x="118.35" y="-144.8" font-family="Times,serif" font-size="14.00">1</text>
</g>
<!-- internal_1&#45;&gt;leaf_70 -->
<g id="edge3" class="edge">
<title>internal_1&#45;&gt;leaf_70</title>
<path fill="none" stroke="black" d="M139.64,-174.61C145.78,-162.46 154.28,-145.66 161.33,-131.73"/>
<polygon fill="black" stroke="black" points="164.54,-133.13 165.93,-122.63 158.3,-129.97 164.54,-133.13"/>
<text text-anchor="middle" x="161.35" y="-144.8" font-family="Times,serif" font-size="14.00">0</text>
</g>
<!-- leaf_73 -->
<g id="node6" class="node">
<title>leaf_73</title>
<ellipse fill="none" stroke="black" cx="216.35" cy="-192" rx="40.09" ry="18"/>
<text text-anchor="middle" x="216.35" y="-188.3" font-family="Times,serif" font-size="14.00">&quot;s&quot; (9)</text>
</g>
<!-- internal_2 -->
<g id="node7" class="node">
<title>internal_2</title>
<ellipse fill="none" stroke="black" cx="173.35" cy="-279" rx="29.5" ry="18"/>
<text text-anchor="middle" x="173.35" y="-275.3" font-family="Times,serif" font-size="14.00">(17)</text>
</g>
<!-- internal_2&#45;&gt;internal_1 -->
<g id="edge5" class="edge">
<title>internal_2&#45;&gt;internal_1</title>
<path fill="none" stroke="black" d="M165.25,-261.61C159.21,-249.38 150.84,-232.44 143.92,-218.46"/>
<polygon fill="black" stroke="black" points="146.99,-216.75 139.42,-209.34 140.71,-219.85 146.99,-216.75"/>
<text text-anchor="middle" x="160.35" y="-231.8" font-family="Times,serif" font-size="14.00">0</text>
</g>
<!-- internal_2&#45;&gt;leaf_73 -->
<g id="edge6" class="edge">
<title>internal_2&#45;&gt;leaf_73</title>
<path fill="none" stroke="black" d="M181.64,-261.61C187.78,-249.46 196.28,-232.66 203.33,-218.73"/>
<polygon fill="black" stroke="black" points="206.54,-220.13 207.93,-209.63 200.3,-216.97 206.54,-220.13"/>
<text text-anchor="middle" x="203.35" y="-231.8" font-family="Times,serif" font-size="14.00">1</text>
</g>
<!-- leaf_69 -->
<g id="node8" class="node">
<title>leaf_69</title>
<ellipse fill="none" stroke="black" cx="259.35" cy="-279" rx="38.19" ry="18"/>
<text text-anchor="middle" x="259.35" y="-275.3" font-family="Times,serif" font-size="14.00">&quot;i&quot; (9)</text>
</g>
<!-- internal_3 -->
<g id="node9" class="node">
<title>internal_3</title>
<ellipse fill="none" stroke="black" cx="216.35" cy="-366" rx="29.5" ry="18"/>
<text text-anchor="middle" x="216.35" y="-362.3" font-family="Times,serif" font-size="14.00">(26)</text>
</g>
<!-- internal_3&#45;&gt;internal_2 -->
<g id="edge8" class="edge">
<title>internal_3&#45;&gt;internal_2</title>
<path fill="none" stroke="black" d="M208.06,-348.61C201.87,-336.38 193.3,-319.44 186.22,-305.46"/>
<polygon fill="black" stroke="black" points="189.25,-303.68 181.61,-296.34 183,-306.84 189.25,-303.68"/>
<text text-anchor="middle" x="203.35" y="-318.8" font-family="Times,serif" font-size="14.00">1</text>
</g>
<!-- internal_3&#45;&gt;leaf_69 -->
<g id="edge7" class="edge">
<title>internal_3&#45;&gt;leaf_69</title>
<path fill="none" stroke="black" d="M224.64,-348.61C230.78,-336.46 239.28,-319.66 246.33,-305.73"/>
<polygon fill="black" stroke="black" points="249.54,-307.13 250.93,-296.63 243.3,-303.97 249.54,-307.13"/>
<text text-anchor="middle" x="245.35" y="-318.8" font-family="Times,serif" font-size="14.00">0</text>
</g>
</g>
</svg>
