<?xml version="1.0" encoding="UTF-8" standalone="no"?>
<!DOCTYPE svg PUBLIC "-//W3C//DTD SVG 1.1//EN"
 "http://www.w3.org/Graphics/SVG/1.1/DTD/svg11.dtd">
<!-- Generated by graphviz version 2.43.0 (0)
 -->
<!-- Title: %3 Pages: 1 -->
<svg width="354pt" height="305pt"
 viewBox="0.00 0.00 353.64 305.00" xmlns="http://www.w3.org/2000/svg" xmlns:xlink="http://www.w3.org/1999/xlink">
<g id="graph0" class="graph" transform="scale(1 1) rotate(0) translate(4 301)">
<title>%3</title>
<polygon fill="white" stroke="transparent" points="-4,4 -4,-301 349.64,-301 349.64,4 -4,4"/>
<!-- internal_4 -->
<g id="node1" class="node">
<title>internal_4</title>
<ellipse fill="none" stroke="black" cx="177.35" cy="-279" rx="27" ry="18"/>
<text text-anchor="middle" x="177.35" y="-275.3" font-family="Times,serif" font-size="14.00">(6)</text>
</g>
<!-- internal_2 -->
<g id="node2" class="node">
<title>internal_2</title>
<ellipse fill="none" stroke="black" cx="135.35" cy="-192" rx="27" ry="18"/>
<text text-anchor="middle" x="135.35" y="-188.3" font-family="Times,serif" font-size="14.00">(2)</text>
</g>
<!-- internal_4&#45;&gt;internal_2 -->
<g id="edge1" class="edge">
<title>internal_4&#45;&gt;internal_2</title>
<path fill="none" stroke="black" d="M169.25,-261.61C163.21,-249.38 154.84,-232.44 147.92,-218.46"/>
<polygon fill="black" stroke="black" points="150.99,-216.75 143.42,-209.34 144.71,-219.85 150.99,-216.75"/>
<text text-anchor="middle" x="164.35" y="-231.8" font-family="Times,serif" font-size="14.00">0</text>
</g>
<!-- internal_3 -->
<g id="node3" class="node">
<title>internal_3</title>
<ellipse fill="none" stroke="black" cx="220.35" cy="-192" rx="27" ry="18"/>
<text text-anchor="middle" x="220.35" y="-188.3" font-family="Times,serif" font-size="14.00">(4)</text>
</g>
<!-- internal_4&#45;&gt;internal_3 -->
<g id="edge2" class="edge">
<title>internal_4&#45;&gt;internal_3</title>
<path fill="none" stroke="black" d="M185.64,-261.61C191.82,-249.38 200.39,-232.44 207.47,-218.46"/>
<polygon fill="black" stroke="black" points="210.69,-219.84 212.08,-209.34 204.44,-216.68 210.69,-219.84"/>
<text text-anchor="middle" x="207.35" y="-231.8" font-family="Times,serif" font-size="14.00">1</text>
</g>
<!-- leaf_0x66 -->
<g id="node8" class="node">
<title>leaf_0x66</title>
<ellipse fill="none" stroke="black" cx="38.35" cy="-105" rx="38.19" ry="18"/>
<text text-anchor="middle" x="38.35" y="-101.3" font-family="Times,serif" font-size="14.00">&quot;f&quot; (1)</text>
</g>
<!-- internal_2&#45;&gt;leaf_0x66 -->
<g id="edge7" class="edge">
<title>internal_2&#45;&gt;leaf_0x66</title>
<path fill="none" stroke="black" d="M119.33,-176.96C104.12,-163.63 81.01,-143.39 63.37,-127.93"/>
<polygon fill="black" stroke="black" points="65.53,-125.16 55.7,-121.21 60.91,-130.43 65.53,-125.16"/>
<text text-anchor="middle" x="98.35" y="-144.8" font-family="Times,serif" font-size="14.00">0</text>
</g>
<!-- leaf_0x61 -->
<g id="node9" class="node">
<title>leaf_0x61</title>
<ellipse fill="none" stroke="black" cx="135.35" cy="-105" rx="40.09" ry="18"/>
<text text-anchor="middle" x="135.35" y="-101.3" font-family="Times,serif" font-size="14.00">&quot;a&quot; (1)</text>
</g>
<!-- internal_2&#45;&gt;leaf_0x61 -->
<g id="edge8" class="edge">
<title>internal_2&#45;&gt;leaf_0x61</title>
<path fill="none" stroke="black" d="M135.35,-173.8C135.35,-162.16 135.35,-146.55 135.35,-133.24"/>
<polygon fill="black" stroke="black" points="138.85,-133.18 135.35,-123.18 131.85,-133.18 138.85,-133.18"/>
<text text-anchor="middle" x="140.35" y="-144.8" font-family="Times,serif" font-size="14.00">1</text>
</g>
<!-- internal_1 -->
<g id="node4" class="node">
<title>internal_1</title>
<ellipse fill="none" stroke="black" cx="220.35" cy="-105" rx="27" ry="18"/>
<text text-anchor="middle" x="220.35" y="-101.3" font-family="Times,serif" font-size="14.00">(2)</text>
</g>
<!-- internal_3&#45;&gt;internal_1 -->
<g id="edge3" class="edge">
<title>internal_3&#45;&gt;internal_1</title>
<path fill="none" stroke="black" d="M220.35,-173.8C220.35,-162.16 220.35,-146.55 220.35,-133.24"/>
<polygon fill="black" stroke="black" points="223.85,-133.18 220.35,-123.18 216.85,-133.18 223.85,-133.18"/>
<text text-anchor="middle" x="225.35" y="-144.8" font-family="Times,serif" font-size="14.00">0</text>
</g>
<!-- leaf_0x6f -->
<g id="node5" class="node">
<title>leaf_0x6f</title>
<ellipse fill="none" stroke="black" cx="305.35" cy="-105" rx="40.09" ry="18"/>
<text text-anchor="middle" x="305.35" y="-101.3" font-family="Times,serif" font-size="14.00">&quot;o&quot; (2)</text>
</g>
<!-- internal_3&#45;&gt;leaf_0x6f -->
<g id="edge4" class="edge">
<title>internal_3&#45;&gt;leaf_0x6f</title>
<path fill="none" stroke="black" d="M234.77,-176.58C247.75,-163.59 267.07,-144.27 282.22,-129.13"/>
<polygon fill="black" stroke="black" points="285.11,-131.19 289.7,-121.64 280.16,-126.24 285.11,-131.19"/>
<text text-anchor="middle" x="273.35" y="-144.8" font-family="Times,serif" font-size="14.00">1</text>
</g>
<!-- leaf_0x72 -->
<g id="node6" class="node">
<title>leaf_0x72</title>
<ellipse fill="none" stroke="black" cx="171.35" cy="-18" rx="39.79" ry="18"/>
<text text-anchor="middle" x="171.35" y="-14.3" font-family="Times,serif" font-size="14.00">&quot;r&quot; (1)</text>
</g>
<!-- internal_1&#45;&gt;leaf_0x72 -->
<g id="edge5" class="edge">
<title>internal_1&#45;&gt;leaf_0x72</title>
<path fill="none" stroke="black" d="M211.13,-88.01C204.03,-75.7 194.09,-58.46 185.92,-44.28"/>
<polygon fill="black" stroke="black" points="188.88,-42.41 180.86,-35.5 182.82,-45.91 188.88,-42.41"/>
<text text-anchor="middle" x="204.35" y="-57.8" font-family="Times,serif" font-size="14.00">0</text>
</g>
<!-- leaf_0x62 -->
<g id="node7" class="node">
<title>leaf_0x62</title>
<ellipse fill="none" stroke="black" cx="270.35" cy="-18" rx="40.89" ry="18"/>
<text text-anchor="middle" x="270.35" y="-14.3" font-family="Times,serif" font-size="14.00">&quot;b&quot; (1)</text>
</g>
<!-- internal_1&#45;&gt;leaf_0x62 -->
<g id="edge6" class="edge">
<title>internal_1&#45;&gt;leaf_0x62</title>
<path fill="none" stroke="black" d="M229.75,-88.01C236.99,-75.7 247.14,-58.46 255.47,-44.28"/>
<polygon fill="black" stroke="black" points="258.59,-45.89 260.64,-35.5 252.56,-42.34 258.59,-45.89"/>
<text text-anchor="middle" x="253.35" y="-57.8" font-family="Times,serif" font-size="14.00">1</text>
</g>
</g>
</svg>
