<?xml version="1.0" encoding="UTF-8" standalone="no"?>
<!DOCTYPE svg PUBLIC "-//W3C//DTD SVG 1.1//EN"
 "http://www.w3.org/Graphics/SVG/1.1/DTD/svg11.dtd">
<!-- Generated by graphviz version 2.43.0 (0)
 -->
<!-- Title: %3 Pages: 1 -->
<svg width="1202pt" height="653pt"
 viewBox="0.00 0.00 1201.64 653.00" xmlns="http://www.w3.org/2000/svg" xmlns:xlink="http://www.w3.org/1999/xlink">
<g id="graph0" class="graph" transform="scale(1 1) rotate(0) translate(4 649)">
<title>%3</title>
<polygon fill="white" stroke="transparent" points="-4,4 -4,-649 1197.64,-649 1197.64,4 -4,4"/>
<!-- internal_24 -->
<g id="node1" class="node">
<title>internal_24</title>
<ellipse fill="none" stroke="black" cx="455.35" cy="-627" rx="35.19" ry="18"/>
<text text-anchor="middle" x="455.35" y="-623.3" font-family="Times,serif" font-size="14.00">(110)</text>
</g>
<!-- internal_22 -->
<g id="node2" class="node">
<title>internal_22</title>
<ellipse fill="none" stroke="black" cx="363.35" cy="-540" rx="29.5" ry="18"/>
<text text-anchor="middle" x="363.35" y="-536.3" font-family="Times,serif" font-size="14.00">(46)</text>
</g>
<!-- internal_24&#45;&gt;internal_22 -->
<g id="edge1" class="edge">
<title>internal_24&#45;&gt;internal_22</title>
<path fill="none" stroke="black" d="M438.9,-610.8C424.33,-597.34 402.9,-577.55 386.59,-562.47"/>
<polygon fill="black" stroke="black" points="388.76,-559.71 379.04,-555.5 384.01,-564.85 388.76,-559.71"/>
<text text-anchor="middle" x="420.35" y="-579.8" font-family="Times,serif" font-size="14.00">0</text>
</g>
<!-- internal_23 -->
<g id="node3" class="node">
<title>internal_23</title>
<ellipse fill="none" stroke="black" cx="549.35" cy="-540" rx="29.5" ry="18"/>
<text text-anchor="middle" x="549.35" y="-536.3" font-family="Times,serif" font-size="14.00">(64)</text>
</g>
<!-- internal_24&#45;&gt;internal_23 -->
<g id="edge2" class="edge">
<title>internal_24&#45;&gt;internal_23</title>
<path fill="none" stroke="black" d="M472.15,-610.8C487.13,-597.26 509.2,-577.31 525.91,-562.2"/>
<polygon fill="black" stroke="black" points="528.55,-564.52 533.62,-555.22 523.86,-559.33 528.55,-564.52"/>
<text text-anchor="middle" x="513.35" y="-579.8" font-family="Times,serif" font-size="14.00">1</text>
</g>
<!-- internal_18 -->
<g id="node36" class="node">
<title>internal_18</title>
<ellipse fill="none" stroke="black" cx="226.35" cy="-453" rx="29.5" ry="18"/>
<text text-anchor="middle" x="226.35" y="-449.3" font-family="Times,serif" font-size="14.00">(21)</text>
</g>
<!-- internal_22&#45;&gt;internal_18 -->
<g id="edge35" class="edge">
<title>internal_22&#45;&gt;internal_18</title>
<path fill="none" stroke="black" d="M343.43,-526.64C320.19,-512.22 281.59,-488.28 255.11,-471.85"/>
<polygon fill="black" stroke="black" points="256.63,-468.67 246.29,-466.37 252.94,-474.62 256.63,-468.67"/>
<text text-anchor="middle" x="308.35" y="-492.8" font-family="Times,serif" font-size="14.00">0</text>
</g>
<!-- internal_19 -->
<g id="node37" class="node">
<title>internal_19</title>
<ellipse fill="none" stroke="black" cx="363.35" cy="-453" rx="29.5" ry="18"/>
<text text-anchor="middle" x="363.35" y="-449.3" font-family="Times,serif" font-size="14.00">(25)</text>
</g>
<!-- internal_22&#45;&gt;internal_19 -->
<g id="edge36" class="edge">
<title>internal_22&#45;&gt;internal_19</title>
<path fill="none" stroke="black" d="M363.35,-521.8C363.35,-510.16 363.35,-494.55 363.35,-481.24"/>
<polygon fill="black" stroke="black" points="366.85,-481.18 363.35,-471.18 359.85,-481.18 366.85,-481.18"/>
<text text-anchor="middle" x="368.35" y="-492.8" font-family="Times,serif" font-size="14.00">1</text>
</g>
<!-- internal_20 -->
<g id="node4" class="node">
<title>internal_20</title>
<ellipse fill="none" stroke="black" cx="549.35" cy="-453" rx="29.5" ry="18"/>
<text text-anchor="middle" x="549.35" y="-449.3" font-family="Times,serif" font-size="14.00">(28)</text>
</g>
<!-- internal_23&#45;&gt;internal_20 -->
<g id="edge3" class="edge">
<title>internal_23&#45;&gt;internal_20</title>
<path fill="none" stroke="black" d="M549.35,-521.8C549.35,-510.16 549.35,-494.55 549.35,-481.24"/>
<polygon fill="black" stroke="black" points="552.85,-481.18 549.35,-471.18 545.85,-481.18 552.85,-481.18"/>
<text text-anchor="middle" x="554.35" y="-492.8" font-family="Times,serif" font-size="14.00">0</text>
</g>
<!-- internal_21 -->
<g id="node5" class="node">
<title>internal_21</title>
<ellipse fill="none" stroke="black" cx="901.35" cy="-453" rx="29.5" ry="18"/>
<text text-anchor="middle" x="901.35" y="-449.3" font-family="Times,serif" font-size="14.00">(36)</text>
</g>
<!-- internal_23&#45;&gt;internal_21 -->
<g id="edge4" class="edge">
<title>internal_23&#45;&gt;internal_21</title>
<path fill="none" stroke="black" d="M576.09,-532.54C638.48,-517.48 793.73,-479.99 864.79,-462.83"/>
<polygon fill="black" stroke="black" points="865.74,-466.2 874.64,-460.45 864.1,-459.39 865.74,-466.2"/>
<text text-anchor="middle" x="752.35" y="-492.8" font-family="Times,serif" font-size="14.00">1</text>
</g>
<!-- internal_15 -->
<g id="node20" class="node">
<title>internal_15</title>
<ellipse fill="none" stroke="black" cx="505.35" cy="-366" rx="29.5" ry="18"/>
<text text-anchor="middle" x="505.35" y="-362.3" font-family="Times,serif" font-size="14.00">(13)</text>
</g>
<!-- internal_20&#45;&gt;internal_15 -->
<g id="edge19" class="edge">
<title>internal_20&#45;&gt;internal_15</title>
<path fill="none" stroke="black" d="M540.86,-435.61C534.53,-423.38 525.76,-406.44 518.52,-392.46"/>
<polygon fill="black" stroke="black" points="521.51,-390.61 513.8,-383.34 515.29,-393.83 521.51,-390.61"/>
<text text-anchor="middle" x="535.35" y="-405.8" font-family="Times,serif" font-size="14.00">0</text>
</g>
<!-- internal_16 -->
<g id="node21" class="node">
<title>internal_16</title>
<ellipse fill="none" stroke="black" cx="593.35" cy="-366" rx="29.5" ry="18"/>
<text text-anchor="middle" x="593.35" y="-362.3" font-family="Times,serif" font-size="14.00">(15)</text>
</g>
<!-- internal_20&#45;&gt;internal_16 -->
<g id="edge20" class="edge">
<title>internal_20&#45;&gt;internal_16</title>
<path fill="none" stroke="black" d="M557.83,-435.61C564.16,-423.38 572.93,-406.44 580.17,-392.46"/>
<polygon fill="black" stroke="black" points="583.4,-393.83 584.89,-383.34 577.18,-390.61 583.4,-393.83"/>
<text text-anchor="middle" x="579.35" y="-405.8" font-family="Times,serif" font-size="14.00">1</text>
</g>
<!-- internal_17 -->
<g id="node6" class="node">
<title>internal_17</title>
<ellipse fill="none" stroke="black" cx="901.35" cy="-366" rx="29.5" ry="18"/>
<text text-anchor="middle" x="901.35" y="-362.3" font-family="Times,serif" font-size="14.00">(16)</text>
</g>
<!-- internal_21&#45;&gt;internal_17 -->
<g id="edge5" class="edge">
<title>internal_21&#45;&gt;internal_17</title>
<path fill="none" stroke="black" d="M901.35,-434.8C901.35,-423.16 901.35,-407.55 901.35,-394.24"/>
<polygon fill="black" stroke="black" points="904.85,-394.18 901.35,-384.18 897.85,-394.18 904.85,-394.18"/>
<text text-anchor="middle" x="906.35" y="-405.8" font-family="Times,serif" font-size="14.00">0</text>
</g>
<!-- leaf_0x20 -->
<g id="node7" class="node">
<title>leaf_0x20</title>
<ellipse fill="none" stroke="black" cx="992.35" cy="-366" rx="44.39" ry="18"/>
<text text-anchor="middle" x="992.35" y="-362.3" font-family="Times,serif" font-size="14.00">&quot; &quot; (20)</text>
</g>
<!-- internal_21&#45;&gt;leaf_0x20 -->
<g id="edge6" class="edge">
<title>internal_21&#45;&gt;leaf_0x20</title>
<path fill="none" stroke="black" d="M916.78,-437.58C930.73,-424.56 951.49,-405.16 967.73,-390"/>
<polygon fill="black" stroke="black" points="970.36,-392.32 975.28,-382.94 965.59,-387.21 970.36,-392.32"/>
<text text-anchor="middle" x="957.35" y="-405.8" font-family="Times,serif" font-size="14.00">1</text>
</g>
<!-- internal_12 -->
<g id="node8" class="node">
<title>internal_12</title>
<ellipse fill="none" stroke="black" cx="901.35" cy="-279" rx="27" ry="18"/>
<text text-anchor="middle" x="901.35" y="-275.3" font-family="Times,serif" font-size="14.00">(8)</text>
</g>
<!-- internal_17&#45;&gt;internal_12 -->
<g id="edge7" class="edge">
<title>internal_17&#45;&gt;internal_12</title>
<path fill="none" stroke="black" d="M901.35,-347.8C901.35,-336.16 901.35,-320.55 901.35,-307.24"/>
<polygon fill="black" stroke="black" points="904.85,-307.18 901.35,-297.18 897.85,-307.18 904.85,-307.18"/>
<text text-anchor="middle" x="906.35" y="-318.8" font-family="Times,serif" font-size="14.00">0</text>
</g>
<!-- leaf_0x74 -->
<g id="node9" class="node">
<title>leaf_0x74</title>
<ellipse fill="none" stroke="black" cx="985.35" cy="-279" rx="38.99" ry="18"/>
<text text-anchor="middle" x="985.35" y="-275.3" font-family="Times,serif" font-size="14.00">&quot;t&quot; (8)</text>
</g>
<!-- internal_17&#45;&gt;leaf_0x74 -->
<g id="edge8" class="edge">
<title>internal_17&#45;&gt;leaf_0x74</title>
<path fill="none" stroke="black" d="M915.98,-350.19C928.79,-337.23 947.61,-318.18 962.42,-303.2"/>
<polygon fill="black" stroke="black" points="965.2,-305.36 969.74,-295.79 960.23,-300.44 965.2,-305.36"/>
<text text-anchor="middle" x="954.35" y="-318.8" font-family="Times,serif" font-size="14.00">1</text>
</g>
<!-- internal_7 -->
<g id="node10" class="node">
<title>internal_7</title>
<ellipse fill="none" stroke="black" cx="901.35" cy="-192" rx="27" ry="18"/>
<text text-anchor="middle" x="901.35" y="-188.3" font-family="Times,serif" font-size="14.00">(4)</text>
</g>
<!-- internal_12&#45;&gt;internal_7 -->
<g id="edge9" class="edge">
<title>internal_12&#45;&gt;internal_7</title>
<path fill="none" stroke="black" d="M901.35,-260.8C901.35,-249.16 901.35,-233.55 901.35,-220.24"/>
<polygon fill="black" stroke="black" points="904.85,-220.18 901.35,-210.18 897.85,-220.18 904.85,-220.18"/>
<text text-anchor="middle" x="906.35" y="-231.8" font-family="Times,serif" font-size="14.00">0</text>
</g>
<!-- internal_8 -->
<g id="node11" class="node">
<title>internal_8</title>
<ellipse fill="none" stroke="black" cx="1054.35" cy="-192" rx="27" ry="18"/>
<text text-anchor="middle" x="1054.35" y="-188.3" font-family="Times,serif" font-size="14.00">(4)</text>
</g>
<!-- internal_12&#45;&gt;internal_8 -->
<g id="edge10" class="edge">
<title>internal_12&#45;&gt;internal_8</title>
<path fill="none" stroke="black" d="M921.35,-266.89C947.92,-252.12 995.04,-225.95 1025.47,-209.04"/>
<polygon fill="black" stroke="black" points="1027.3,-212.03 1034.34,-204.11 1023.9,-205.91 1027.3,-212.03"/>
<text text-anchor="middle" x="992.35" y="-231.8" font-family="Times,serif" font-size="14.00">1</text>
</g>
<!-- leaf_0x64 -->
<g id="node16" class="node">
<title>leaf_0x64</title>
<ellipse fill="none" stroke="black" cx="871.35" cy="-105" rx="40.89" ry="18"/>
<text text-anchor="middle" x="871.35" y="-101.3" font-family="Times,serif" font-size="14.00">&quot;d&quot; (2)</text>
</g>
<!-- internal_7&#45;&gt;leaf_0x64 -->
<g id="edge15" class="edge">
<title>internal_7&#45;&gt;leaf_0x64</title>
<path fill="none" stroke="black" d="M895.42,-174.21C891.26,-162.41 885.6,-146.38 880.81,-132.82"/>
<polygon fill="black" stroke="black" points="883.99,-131.31 877.36,-123.05 877.39,-133.64 883.99,-131.31"/>
<text text-anchor="middle" x="893.35" y="-144.8" font-family="Times,serif" font-size="14.00">0</text>
</g>
<!-- internal_2 -->
<g id="node17" class="node">
<title>internal_2</title>
<ellipse fill="none" stroke="black" cx="957.35" cy="-105" rx="27" ry="18"/>
<text text-anchor="middle" x="957.35" y="-101.3" font-family="Times,serif" font-size="14.00">(2)</text>
</g>
<!-- internal_7&#45;&gt;internal_2 -->
<g id="edge16" class="edge">
<title>internal_7&#45;&gt;internal_2</title>
<path fill="none" stroke="black" d="M911.88,-175.01C920.17,-162.43 931.86,-144.68 941.32,-130.33"/>
<polygon fill="black" stroke="black" points="944.28,-132.19 946.86,-121.92 938.44,-128.34 944.28,-132.19"/>
<text text-anchor="middle" x="938.35" y="-144.8" font-family="Times,serif" font-size="14.00">1</text>
</g>
<!-- internal_3 -->
<g id="node12" class="node">
<title>internal_3</title>
<ellipse fill="none" stroke="black" cx="1054.35" cy="-105" rx="27" ry="18"/>
<text text-anchor="middle" x="1054.35" y="-101.3" font-family="Times,serif" font-size="14.00">(2)</text>
</g>
<!-- internal_8&#45;&gt;internal_3 -->
<g id="edge11" class="edge">
<title>internal_8&#45;&gt;internal_3</title>
<path fill="none" stroke="black" d="M1054.35,-173.8C1054.35,-162.16 1054.35,-146.55 1054.35,-133.24"/>
<polygon fill="black" stroke="black" points="1057.85,-133.18 1054.35,-123.18 1050.85,-133.18 1057.85,-133.18"/>
<text text-anchor="middle" x="1059.35" y="-144.8" font-family="Times,serif" font-size="14.00">0</text>
</g>
<!-- leaf_0x4d -->
<g id="node13" class="node">
<title>leaf_0x4d</title>
<ellipse fill="none" stroke="black" cx="1143.35" cy="-105" rx="44.39" ry="18"/>
<text text-anchor="middle" x="1143.35" y="-101.3" font-family="Times,serif" font-size="14.00">&quot;M&quot; (2)</text>
</g>
<!-- internal_8&#45;&gt;leaf_0x4d -->
<g id="edge12" class="edge">
<title>internal_8&#45;&gt;leaf_0x4d</title>
<path fill="none" stroke="black" d="M1069.44,-176.58C1083.08,-163.56 1103.39,-144.16 1119.27,-129"/>
<polygon fill="black" stroke="black" points="1121.84,-131.38 1126.66,-121.94 1117.01,-126.31 1121.84,-131.38"/>
<text text-anchor="middle" x="1108.35" y="-144.8" font-family="Times,serif" font-size="14.00">1</text>
</g>
<!-- leaf_0x75 -->
<g id="node14" class="node">
<title>leaf_0x75</title>
<ellipse fill="none" stroke="black" cx="1054.35" cy="-18" rx="40.89" ry="18"/>
<text text-anchor="middle" x="1054.35" y="-14.3" font-family="Times,serif" font-size="14.00">&quot;u&quot; (1)</text>
</g>
<!-- internal_3&#45;&gt;leaf_0x75 -->
<g id="edge13" class="edge">
<title>internal_3&#45;&gt;leaf_0x75</title>
<path fill="none" stroke="black" d="M1054.35,-86.8C1054.35,-75.16 1054.35,-59.55 1054.35,-46.24"/>
<polygon fill="black" stroke="black" points="1057.85,-46.18 1054.35,-36.18 1050.85,-46.18 1057.85,-46.18"/>
<text text-anchor="middle" x="1059.35" y="-57.8" font-family="Times,serif" font-size="14.00">0</text>
</g>
<!-- leaf_0x63 -->
<g id="node15" class="node">
<title>leaf_0x63</title>
<ellipse fill="none" stroke="black" cx="1153.35" cy="-18" rx="40.09" ry="18"/>
<text text-anchor="middle" x="1153.35" y="-14.3" font-family="Times,serif" font-size="14.00">&quot;c&quot; (1)</text>
</g>
<!-- internal_3&#45;&gt;leaf_0x63 -->
<g id="edge14" class="edge">
<title>internal_3&#45;&gt;leaf_0x63</title>
<path fill="none" stroke="black" d="M1070.25,-90.34C1085.7,-77.08 1109.43,-56.71 1127.57,-41.13"/>
<polygon fill="black" stroke="black" points="1130.16,-43.52 1135.47,-34.35 1125.6,-38.21 1130.16,-43.52"/>
<text text-anchor="middle" x="1114.35" y="-57.8" font-family="Times,serif" font-size="14.00">1</text>
</g>
<!-- leaf_0x66 -->
<g id="node18" class="node">
<title>leaf_0x66</title>
<ellipse fill="none" stroke="black" cx="862.35" cy="-18" rx="38.19" ry="18"/>
<text text-anchor="middle" x="862.35" y="-14.3" font-family="Times,serif" font-size="14.00">&quot;f&quot; (1)</text>
</g>
<!-- internal_2&#45;&gt;leaf_0x66 -->
<g id="edge17" class="edge">
<title>internal_2&#45;&gt;leaf_0x66</title>
<path fill="none" stroke="black" d="M941.66,-89.96C926.76,-76.63 904.13,-56.39 886.86,-40.93"/>
<polygon fill="black" stroke="black" points="889.13,-38.27 879.34,-34.21 884.46,-43.48 889.13,-38.27"/>
<text text-anchor="middle" x="921.35" y="-57.8" font-family="Times,serif" font-size="14.00">0</text>
</g>
<!-- leaf_0x2c -->
<g id="node19" class="node">
<title>leaf_0x2c</title>
<ellipse fill="none" stroke="black" cx="957.35" cy="-18" rx="38.19" ry="18"/>
<text text-anchor="middle" x="957.35" y="-14.3" font-family="Times,serif" font-size="14.00">&quot;,&quot; (1)</text>
</g>
<!-- internal_2&#45;&gt;leaf_0x2c -->
<g id="edge18" class="edge">
<title>internal_2&#45;&gt;leaf_0x2c</title>
<path fill="none" stroke="black" d="M957.35,-86.8C957.35,-75.16 957.35,-59.55 957.35,-46.24"/>
<polygon fill="black" stroke="black" points="960.85,-46.18 957.35,-36.18 953.85,-46.18 960.85,-46.18"/>
<text text-anchor="middle" x="962.35" y="-57.8" font-family="Times,serif" font-size="14.00">1</text>
</g>
<!-- leaf_0x73 -->
<g id="node34" class="node">
<title>leaf_0x73</title>
<ellipse fill="none" stroke="black" cx="404.35" cy="-279" rx="40.09" ry="18"/>
<text text-anchor="middle" x="404.35" y="-275.3" font-family="Times,serif" font-size="14.00">&quot;s&quot; (6)</text>
</g>
<!-- internal_15&#45;&gt;leaf_0x73 -->
<g id="edge33" class="edge">
<title>internal_15&#45;&gt;leaf_0x73</title>
<path fill="none" stroke="black" d="M488.67,-350.96C472.83,-337.63 448.77,-317.39 430.4,-301.93"/>
<polygon fill="black" stroke="black" points="432.32,-298.97 422.41,-295.21 427.81,-304.32 432.32,-298.97"/>
<text text-anchor="middle" x="466.35" y="-318.8" font-family="Times,serif" font-size="14.00">0</text>
</g>
<!-- leaf_0x77 -->
<g id="node35" class="node">
<title>leaf_0x77</title>
<ellipse fill="none" stroke="black" cx="505.35" cy="-279" rx="42.79" ry="18"/>
<text text-anchor="middle" x="505.35" y="-275.3" font-family="Times,serif" font-size="14.00">&quot;w&quot; (7)</text>
</g>
<!-- internal_15&#45;&gt;leaf_0x77 -->
<g id="edge34" class="edge">
<title>internal_15&#45;&gt;leaf_0x77</title>
<path fill="none" stroke="black" d="M505.35,-347.8C505.35,-336.16 505.35,-320.55 505.35,-307.24"/>
<polygon fill="black" stroke="black" points="508.85,-307.18 505.35,-297.18 501.85,-307.18 508.85,-307.18"/>
<text text-anchor="middle" x="510.35" y="-318.8" font-family="Times,serif" font-size="14.00">1</text>
</g>
<!-- internal_10 -->
<g id="node22" class="node">
<title>internal_10</title>
<ellipse fill="none" stroke="black" cx="593.35" cy="-279" rx="27" ry="18"/>
<text text-anchor="middle" x="593.35" y="-275.3" font-family="Times,serif" font-size="14.00">(7)</text>
</g>
<!-- internal_16&#45;&gt;internal_10 -->
<g id="edge21" class="edge">
<title>internal_16&#45;&gt;internal_10</title>
<path fill="none" stroke="black" d="M593.35,-347.8C593.35,-336.16 593.35,-320.55 593.35,-307.24"/>
<polygon fill="black" stroke="black" points="596.85,-307.18 593.35,-297.18 589.85,-307.18 596.85,-307.18"/>
<text text-anchor="middle" x="598.35" y="-318.8" font-family="Times,serif" font-size="14.00">0</text>
</g>
<!-- internal_11 -->
<g id="node23" class="node">
<title>internal_11</title>
<ellipse fill="none" stroke="black" cx="673.35" cy="-279" rx="27" ry="18"/>
<text text-anchor="middle" x="673.35" y="-275.3" font-family="Times,serif" font-size="14.00">(8)</text>
</g>
<!-- internal_16&#45;&gt;internal_11 -->
<g id="edge22" class="edge">
<title>internal_16&#45;&gt;internal_11</title>
<path fill="none" stroke="black" d="M607.65,-349.8C620.13,-336.55 638.39,-317.14 652.49,-302.16"/>
<polygon fill="black" stroke="black" points="655.13,-304.46 659.44,-294.78 650.03,-299.66 655.13,-304.46"/>
<text text-anchor="middle" x="643.35" y="-318.8" font-family="Times,serif" font-size="14.00">1</text>
</g>
<!-- leaf_0x79 -->
<g id="node28" class="node">
<title>leaf_0x79</title>
<ellipse fill="none" stroke="black" cx="499.35" cy="-192" rx="40.09" ry="18"/>
<text text-anchor="middle" x="499.35" y="-188.3" font-family="Times,serif" font-size="14.00">&quot;y&quot; (3)</text>
</g>
<!-- internal_10&#45;&gt;leaf_0x79 -->
<g id="edge27" class="edge">
<title>internal_10&#45;&gt;leaf_0x79</title>
<path fill="none" stroke="black" d="M577.82,-263.96C563.17,-250.72 540.97,-230.64 523.91,-215.21"/>
<polygon fill="black" stroke="black" points="526.25,-212.61 516.49,-208.5 521.55,-217.8 526.25,-212.61"/>
<text text-anchor="middle" x="557.35" y="-231.8" font-family="Times,serif" font-size="14.00">0</text>
</g>
<!-- internal_5 -->
<g id="node29" class="node">
<title>internal_5</title>
<ellipse fill="none" stroke="black" cx="584.35" cy="-192" rx="27" ry="18"/>
<text text-anchor="middle" x="584.35" y="-188.3" font-family="Times,serif" font-size="14.00">(4)</text>
</g>
<!-- internal_10&#45;&gt;internal_5 -->
<g id="edge28" class="edge">
<title>internal_10&#45;&gt;internal_5</title>
<path fill="none" stroke="black" d="M591.53,-260.8C590.29,-249.16 588.64,-233.55 587.23,-220.24"/>
<polygon fill="black" stroke="black" points="590.7,-219.75 586.17,-210.18 583.74,-220.49 590.7,-219.75"/>
<text text-anchor="middle" x="595.35" y="-231.8" font-family="Times,serif" font-size="14.00">1</text>
</g>
<!-- internal_6 -->
<g id="node24" class="node">
<title>internal_6</title>
<ellipse fill="none" stroke="black" cx="673.35" cy="-192" rx="27" ry="18"/>
<text text-anchor="middle" x="673.35" y="-188.3" font-family="Times,serif" font-size="14.00">(4)</text>
</g>
<!-- internal_11&#45;&gt;internal_6 -->
<g id="edge23" class="edge">
<title>internal_11&#45;&gt;internal_6</title>
<path fill="none" stroke="black" d="M673.35,-260.8C673.35,-249.16 673.35,-233.55 673.35,-220.24"/>
<polygon fill="black" stroke="black" points="676.85,-220.18 673.35,-210.18 669.85,-220.18 676.85,-220.18"/>
<text text-anchor="middle" x="678.35" y="-231.8" font-family="Times,serif" font-size="14.00">0</text>
</g>
<!-- leaf_0x6f -->
<g id="node25" class="node">
<title>leaf_0x6f</title>
<ellipse fill="none" stroke="black" cx="758.35" cy="-192" rx="40.09" ry="18"/>
<text text-anchor="middle" x="758.35" y="-188.3" font-family="Times,serif" font-size="14.00">&quot;o&quot; (4)</text>
</g>
<!-- internal_11&#45;&gt;leaf_0x6f -->
<g id="edge24" class="edge">
<title>internal_11&#45;&gt;leaf_0x6f</title>
<path fill="none" stroke="black" d="M687.77,-263.58C700.75,-250.59 720.07,-231.27 735.22,-216.13"/>
<polygon fill="black" stroke="black" points="738.11,-218.19 742.7,-208.64 733.16,-213.24 738.11,-218.19"/>
<text text-anchor="middle" x="726.35" y="-231.8" font-family="Times,serif" font-size="14.00">1</text>
</g>
<!-- leaf_0x6d -->
<g id="node26" class="node">
<title>leaf_0x6d</title>
<ellipse fill="none" stroke="black" cx="673.35" cy="-105" rx="44.39" ry="18"/>
<text text-anchor="middle" x="673.35" y="-101.3" font-family="Times,serif" font-size="14.00">&quot;m&quot; (2)</text>
</g>
<!-- internal_6&#45;&gt;leaf_0x6d -->
<g id="edge25" class="edge">
<title>internal_6&#45;&gt;leaf_0x6d</title>
<path fill="none" stroke="black" d="M673.35,-173.8C673.35,-162.16 673.35,-146.55 673.35,-133.24"/>
<polygon fill="black" stroke="black" points="676.85,-133.18 673.35,-123.18 669.85,-133.18 676.85,-133.18"/>
<text text-anchor="middle" x="678.35" y="-144.8" font-family="Times,serif" font-size="14.00">0</text>
</g>
<!-- leaf_0x69 -->
<g id="node27" class="node">
<title>leaf_0x69</title>
<ellipse fill="none" stroke="black" cx="774.35" cy="-105" rx="38.19" ry="18"/>
<text text-anchor="middle" x="774.35" y="-101.3" font-family="Times,serif" font-size="14.00">&quot;i&quot; (2)</text>
</g>
<!-- internal_6&#45;&gt;leaf_0x69 -->
<g id="edge26" class="edge">
<title>internal_6&#45;&gt;leaf_0x69</title>
<path fill="none" stroke="black" d="M689.57,-177.34C705.51,-163.93 730.06,-143.27 748.64,-127.63"/>
<polygon fill="black" stroke="black" points="751.06,-130.17 756.46,-121.06 746.55,-124.82 751.06,-130.17"/>
<text text-anchor="middle" x="735.35" y="-144.8" font-family="Times,serif" font-size="14.00">1</text>
</g>
<!-- internal_1 -->
<g id="node30" class="node">
<title>internal_1</title>
<ellipse fill="none" stroke="black" cx="478.35" cy="-105" rx="27" ry="18"/>
<text text-anchor="middle" x="478.35" y="-101.3" font-family="Times,serif" font-size="14.00">(2)</text>
</g>
<!-- internal_5&#45;&gt;internal_1 -->
<g id="edge29" class="edge">
<title>internal_5&#45;&gt;internal_1</title>
<path fill="none" stroke="black" d="M567.78,-177.72C550.46,-163.83 523.07,-141.87 503.17,-125.9"/>
<polygon fill="black" stroke="black" points="505.13,-122.99 495.14,-119.47 500.75,-128.45 505.13,-122.99"/>
<text text-anchor="middle" x="543.35" y="-144.8" font-family="Times,serif" font-size="14.00">0</text>
</g>
<!-- leaf_0x0a -->
<g id="node31" class="node">
<title>leaf_0x0a</title>
<ellipse fill="none" stroke="black" cx="567.35" cy="-105" rx="44.39" ry="18"/>
<text text-anchor="middle" x="567.35" y="-101.3" font-family="Times,serif" font-size="14.00">&quot;\n&quot; (2)</text>
</g>
<!-- internal_5&#45;&gt;leaf_0x0a -->
<g id="edge30" class="edge">
<title>internal_5&#45;&gt;leaf_0x0a</title>
<path fill="none" stroke="black" d="M580.91,-173.8C578.58,-162.16 575.46,-146.55 572.79,-133.24"/>
<polygon fill="black" stroke="black" points="576.17,-132.29 570.78,-123.18 569.31,-133.67 576.17,-132.29"/>
<text text-anchor="middle" x="582.35" y="-144.8" font-family="Times,serif" font-size="14.00">1</text>
</g>
<!-- leaf_0x67 -->
<g id="node32" class="node">
<title>leaf_0x67</title>
<ellipse fill="none" stroke="black" cx="428.35" cy="-18" rx="40.89" ry="18"/>
<text text-anchor="middle" x="428.35" y="-14.3" font-family="Times,serif" font-size="14.00">&quot;g&quot; (1)</text>
</g>
<!-- internal_1&#45;&gt;leaf_0x67 -->
<g id="edge31" class="edge">
<title>internal_1&#45;&gt;leaf_0x67</title>
<path fill="none" stroke="black" d="M468.94,-88.01C461.7,-75.7 451.56,-58.46 443.22,-44.28"/>
<polygon fill="black" stroke="black" points="446.14,-42.34 438.05,-35.5 440.1,-45.89 446.14,-42.34"/>
<text text-anchor="middle" x="461.35" y="-57.8" font-family="Times,serif" font-size="14.00">0</text>
</g>
<!-- leaf_0x76 -->
<g id="node33" class="node">
<title>leaf_0x76</title>
<ellipse fill="none" stroke="black" cx="527.35" cy="-18" rx="40.09" ry="18"/>
<text text-anchor="middle" x="527.35" y="-14.3" font-family="Times,serif" font-size="14.00">&quot;v&quot; (1)</text>
</g>
<!-- internal_1&#45;&gt;leaf_0x76 -->
<g id="edge32" class="edge">
<title>internal_1&#45;&gt;leaf_0x76</title>
<path fill="none" stroke="black" d="M487.56,-88.01C494.66,-75.7 504.6,-58.46 512.77,-44.28"/>
<polygon fill="black" stroke="black" points="515.88,-45.91 517.84,-35.5 509.81,-42.41 515.88,-45.91"/>
<text text-anchor="middle" x="511.35" y="-57.8" font-family="Times,serif" font-size="14.00">1</text>
</g>
<!-- internal_13 -->
<g id="node46" class="node">
<title>internal_13</title>
<ellipse fill="none" stroke="black" cx="133.35" cy="-366" rx="29.5" ry="18"/>
<text text-anchor="middle" x="133.35" y="-362.3" font-family="Times,serif" font-size="14.00">(10)</text>
</g>
<!-- internal_18&#45;&gt;internal_13 -->
<g id="edge45" class="edge">
<title>internal_18&#45;&gt;internal_13</title>
<path fill="none" stroke="black" d="M210.57,-437.58C195.87,-424.15 173.77,-403.94 156.97,-388.59"/>
<polygon fill="black" stroke="black" points="158.94,-385.65 149.2,-381.49 154.22,-390.82 158.94,-385.65"/>
<text text-anchor="middle" x="191.35" y="-405.8" font-family="Times,serif" font-size="14.00">0</text>
</g>
<!-- leaf_0x61 -->
<g id="node47" class="node">
<title>leaf_0x61</title>
<ellipse fill="none" stroke="black" cx="226.35" cy="-366" rx="46.29" ry="18"/>
<text text-anchor="middle" x="226.35" y="-362.3" font-family="Times,serif" font-size="14.00">&quot;a&quot; (11)</text>
</g>
<!-- internal_18&#45;&gt;leaf_0x61 -->
<g id="edge46" class="edge">
<title>internal_18&#45;&gt;leaf_0x61</title>
<path fill="none" stroke="black" d="M226.35,-434.8C226.35,-423.16 226.35,-407.55 226.35,-394.24"/>
<polygon fill="black" stroke="black" points="229.85,-394.18 226.35,-384.18 222.85,-394.18 229.85,-394.18"/>
<text text-anchor="middle" x="231.35" y="-405.8" font-family="Times,serif" font-size="14.00">1</text>
</g>
<!-- internal_14 -->
<g id="node38" class="node">
<title>internal_14</title>
<ellipse fill="none" stroke="black" cx="319.35" cy="-366" rx="29.5" ry="18"/>
<text text-anchor="middle" x="319.35" y="-362.3" font-family="Times,serif" font-size="14.00">(12)</text>
</g>
<!-- internal_19&#45;&gt;internal_14 -->
<g id="edge37" class="edge">
<title>internal_19&#45;&gt;internal_14</title>
<path fill="none" stroke="black" d="M354.86,-435.61C348.53,-423.38 339.76,-406.44 332.52,-392.46"/>
<polygon fill="black" stroke="black" points="335.51,-390.61 327.8,-383.34 329.29,-393.83 335.51,-390.61"/>
<text text-anchor="middle" x="349.35" y="-405.8" font-family="Times,serif" font-size="14.00">0</text>
</g>
<!-- leaf_0x65 -->
<g id="node39" class="node">
<title>leaf_0x65</title>
<ellipse fill="none" stroke="black" cx="412.35" cy="-366" rx="46.29" ry="18"/>
<text text-anchor="middle" x="412.35" y="-362.3" font-family="Times,serif" font-size="14.00">&quot;e&quot; (13)</text>
</g>
<!-- internal_19&#45;&gt;leaf_0x65 -->
<g id="edge38" class="edge">
<title>internal_19&#45;&gt;leaf_0x65</title>
<path fill="none" stroke="black" d="M372.79,-435.61C379.87,-423.34 389.67,-406.34 397.75,-392.32"/>
<polygon fill="black" stroke="black" points="400.8,-394.04 402.76,-383.63 394.73,-390.54 400.8,-394.04"/>
<text text-anchor="middle" x="396.35" y="-405.8" font-family="Times,serif" font-size="14.00">1</text>
</g>
<!-- leaf_0x68 -->
<g id="node40" class="node">
<title>leaf_0x68</title>
<ellipse fill="none" stroke="black" cx="233.35" cy="-279" rx="40.89" ry="18"/>
<text text-anchor="middle" x="233.35" y="-275.3" font-family="Times,serif" font-size="14.00">&quot;h&quot; (6)</text>
</g>
<!-- internal_14&#45;&gt;leaf_0x68 -->
<g id="edge39" class="edge">
<title>internal_14&#45;&gt;leaf_0x68</title>
<path fill="none" stroke="black" d="M304.37,-350.19C291.25,-337.23 271.98,-318.18 256.82,-303.2"/>
<polygon fill="black" stroke="black" points="258.89,-300.33 249.32,-295.79 253.97,-305.31 258.89,-300.33"/>
<text text-anchor="middle" x="287.35" y="-318.8" font-family="Times,serif" font-size="14.00">0</text>
</g>
<!-- internal_9 -->
<g id="node41" class="node">
<title>internal_9</title>
<ellipse fill="none" stroke="black" cx="319.35" cy="-279" rx="27" ry="18"/>
<text text-anchor="middle" x="319.35" y="-275.3" font-family="Times,serif" font-size="14.00">(6)</text>
</g>
<!-- internal_14&#45;&gt;internal_9 -->
<g id="edge40" class="edge">
<title>internal_14&#45;&gt;internal_9</title>
<path fill="none" stroke="black" d="M319.35,-347.8C319.35,-336.16 319.35,-320.55 319.35,-307.24"/>
<polygon fill="black" stroke="black" points="322.85,-307.18 319.35,-297.18 315.85,-307.18 322.85,-307.18"/>
<text text-anchor="middle" x="324.35" y="-318.8" font-family="Times,serif" font-size="14.00">1</text>
</g>
<!-- internal_4 -->
<g id="node42" class="node">
<title>internal_4</title>
<ellipse fill="none" stroke="black" cx="262.35" cy="-192" rx="27" ry="18"/>
<text text-anchor="middle" x="262.35" y="-188.3" font-family="Times,serif" font-size="14.00">(3)</text>
</g>
<!-- internal_9&#45;&gt;internal_4 -->
<g id="edge41" class="edge">
<title>internal_9&#45;&gt;internal_4</title>
<path fill="none" stroke="black" d="M308.63,-262.01C300.13,-249.35 288.13,-231.45 278.48,-217.06"/>
<polygon fill="black" stroke="black" points="281.3,-214.99 272.83,-208.63 275.49,-218.88 281.3,-214.99"/>
<text text-anchor="middle" x="299.35" y="-231.8" font-family="Times,serif" font-size="14.00">0</text>
</g>
<!-- leaf_0x6e -->
<g id="node43" class="node">
<title>leaf_0x6e</title>
<ellipse fill="none" stroke="black" cx="348.35" cy="-192" rx="40.89" ry="18"/>
<text text-anchor="middle" x="348.35" y="-188.3" font-family="Times,serif" font-size="14.00">&quot;n&quot; (3)</text>
</g>
<!-- internal_9&#45;&gt;leaf_0x6e -->
<g id="edge42" class="edge">
<title>internal_9&#45;&gt;leaf_0x6e</title>
<path fill="none" stroke="black" d="M325.08,-261.21C329.1,-249.41 334.57,-233.38 339.2,-219.82"/>
<polygon fill="black" stroke="black" points="342.61,-220.64 342.53,-210.05 335.99,-218.38 342.61,-220.64"/>
<text text-anchor="middle" x="341.35" y="-231.8" font-family="Times,serif" font-size="14.00">1</text>
</g>
<!-- leaf_0x2e -->
<g id="node44" class="node">
<title>leaf_0x2e</title>
<ellipse fill="none" stroke="black" cx="214.35" cy="-105" rx="38.19" ry="18"/>
<text text-anchor="middle" x="214.35" y="-101.3" font-family="Times,serif" font-size="14.00">&quot;.&quot; (1)</text>
</g>
<!-- internal_4&#45;&gt;leaf_0x2e -->
<g id="edge43" class="edge">
<title>internal_4&#45;&gt;leaf_0x2e</title>
<path fill="none" stroke="black" d="M253.32,-175.01C246.37,-162.7 236.63,-145.46 228.62,-131.28"/>
<polygon fill="black" stroke="black" points="231.63,-129.48 223.66,-122.5 225.53,-132.92 231.63,-129.48"/>
<text text-anchor="middle" x="246.35" y="-144.8" font-family="Times,serif" font-size="14.00">0</text>
</g>
<!-- leaf_0x62 -->
<g id="node45" class="node">
<title>leaf_0x62</title>
<ellipse fill="none" stroke="black" cx="311.35" cy="-105" rx="40.89" ry="18"/>
<text text-anchor="middle" x="311.35" y="-101.3" font-family="Times,serif" font-size="14.00">&quot;b&quot; (2)</text>
</g>
<!-- internal_4&#45;&gt;leaf_0x62 -->
<g id="edge44" class="edge">
<title>internal_4&#45;&gt;leaf_0x62</title>
<path fill="none" stroke="black" d="M271.56,-175.01C278.61,-162.78 288.47,-145.68 296.61,-131.56"/>
<polygon fill="black" stroke="black" points="299.71,-133.2 301.67,-122.79 293.64,-129.7 299.71,-133.2"/>
<text text-anchor="middle" x="295.35" y="-144.8" font-family="Times,serif" font-size="14.00">1</text>
</g>
<!-- leaf_0x6c -->
<g id="node48" class="node">
<title>leaf_0x6c</title>
<ellipse fill="none" stroke="black" cx="38.35" cy="-279" rx="38.19" ry="18"/>
<text text-anchor="middle" x="38.35" y="-275.3" font-family="Times,serif" font-size="14.00">&quot;l&quot; (5)</text>
</g>
<!-- internal_13&#45;&gt;leaf_0x6c -->
<g id="edge47" class="edge">
<title>internal_13&#45;&gt;leaf_0x6c</title>
<path fill="none" stroke="black" d="M117.23,-350.58C102.49,-337.39 80.45,-317.67 63.41,-302.43"/>
<polygon fill="black" stroke="black" points="65.29,-299.41 55.51,-295.35 60.62,-304.63 65.29,-299.41"/>
<text text-anchor="middle" x="97.35" y="-318.8" font-family="Times,serif" font-size="14.00">0</text>
</g>
<!-- leaf_0x72 -->
<g id="node49" class="node">
<title>leaf_0x72</title>
<ellipse fill="none" stroke="black" cx="134.35" cy="-279" rx="39.79" ry="18"/>
<text text-anchor="middle" x="134.35" y="-275.3" font-family="Times,serif" font-size="14.00">&quot;r&quot; (5)</text>
</g>
<!-- internal_13&#45;&gt;leaf_0x72 -->
<g id="edge48" class="edge">
<title>internal_13&#45;&gt;leaf_0x72</title>
<path fill="none" stroke="black" d="M133.55,-347.8C133.69,-336.16 133.87,-320.55 134.03,-307.24"/>
<polygon fill="black" stroke="black" points="137.53,-307.22 134.14,-297.18 130.53,-307.13 137.53,-307.22"/>
<text text-anchor="middle" x="139.35" y="-318.8" font-family="Times,serif" font-size="14.00">1</text>
</g>
</g>
</svg>
